<?xml version="1.0" encoding="utf-8" standalone="no"?>
<!DOCTYPE svg PUBLIC "-//W3C//DTD SVG 1.1//EN"
  "http://www.w3.org/Graphics/SVG/1.1/DTD/svg11.dtd">
<svg xmlns:xlink="http://www.w3.org/1999/xlink" width="460.8pt" height="345.6pt" viewBox="0 0 460.8 345.6" xmlns="http://www.w3.org/2000/svg" version="1.1">
 <metadata>
  <rdf:RDF xmlns:dc="http://purl.org/dc/elements/1.1/" xmlns:cc="http://creativecommons.org/ns#" xmlns:rdf="http://www.w3.org/1999/02/22-rdf-syntax-ns#">
   <cc:Work>
    <dc:type rdf:resource="http://purl.org/dc/dcmitype/StillImage"/>
    <dc:date>2023-02-13T17:34:09.794692</dc:date>
    <dc:format>image/svg+xml</dc:format>
    <dc:creator>
     <cc:Agent>
      <dc:title>Matplotlib v3.6.2, https://matplotlib.org/</dc:title>
     </cc:Agent>
    </dc:creator>
   </cc:Work>
  </rdf:RDF>
 </metadata>
 <defs>
  <style type="text/css">*{stroke-linejoin: round; stroke-linecap: butt}</style>
 </defs>
 <g id="figure_1">
  <g id="patch_1">
   <path d="M 0 345.6 
L 460.8 345.6 
L 460.8 0 
L 0 0 
L 0 345.6 
z
" style="fill: none"/>
  </g>
  <g id="axes_1">
   <g id="patch_2">
    <path d="M 57.6 307.584 
L 193.05931 307.584 
L 193.05931 41.472 
L 57.6 41.472 
L 57.6 307.584 
z
" style="fill: none"/>
   </g>
   <g id="patch_3">
    <path d="M 63.757241 307.584 
L 89.682468 307.584 
L 89.682468 250.164 
L 63.757241 250.164 
z
" clip-path="url(#p4856b0ea83)" style="fill: #1f77b4; opacity: 0.8"/>
   </g>
   <g id="patch_4">
    <path d="M 96.163775 307.584 
L 122.089002 307.584 
L 122.089002 194.724 
L 96.163775 194.724 
z
" clip-path="url(#p4856b0ea83)" style="fill: #1f77b4; opacity: 0.8"/>
   </g>
   <g id="patch_5">
    <path d="M 128.570309 307.584 
L 154.495535 307.584 
L 154.495535 157.104 
L 128.570309 157.104 
z
" clip-path="url(#p4856b0ea83)" style="fill: #1f77b4; opacity: 0.8"/>
   </g>
   <g id="patch_6">
    <path d="M 160.976842 307.584 
L 186.902069 307.584 
L 186.902069 297.684 
L 160.976842 297.684 
z
" clip-path="url(#p4856b0ea83)" style="fill: #1f77b4; opacity: 0.8"/>
   </g>
   <g id="matplotlib.axis_1">
    <g id="xtick_1">
     <g id="line2d_1">
      <defs>
       <path id="m3eef872b03" d="M 0 0 
L 0 -3.5 
" style="stroke: #000000; stroke-width: 0.8"/>
      </defs>
      <g>
       <use xlink:href="#m3eef872b03" x="76.719855" y="307.584" style="stroke: #000000; stroke-width: 0.8"/>
      </g>
     </g>
     <g id="line2d_2">
      <defs>
       <path id="m303053a14f" d="M 0 0 
L 0 3.5 
" style="stroke: #000000; stroke-width: 0.8"/>
      </defs>
      <g>
       <use xlink:href="#m303053a14f" x="76.719855" y="41.472" style="stroke: #000000; stroke-width: 0.8"/>
      </g>
     </g>
     <g id="text_1">
      <text style="font: 12px 'DejaVu Sans', 'Bitstream Vera Sans', 'Computer Modern Sans Serif', 'Lucida Grande', 'Verdana', 'Geneva', 'Lucid', 'Arial', 'Helvetica', 'Avant Garde', sans-serif; text-anchor: middle" x="76.719855" y="320.202125" transform="rotate(-0 76.719855 320.202125)">No labels</text>
     </g>
    </g>
    <g id="xtick_2">
     <g id="line2d_3">
      <g>
       <use xlink:href="#m3eef872b03" x="109.126388" y="307.584" style="stroke: #000000; stroke-width: 0.8"/>
      </g>
     </g>
     <g id="line2d_4">
      <g>
       <use xlink:href="#m303053a14f" x="109.126388" y="41.472" style="stroke: #000000; stroke-width: 0.8"/>
      </g>
     </g>
     <g id="text_2">
      <text style="font: 12px 'DejaVu Sans', 'Bitstream Vera Sans', 'Computer Modern Sans Serif', 'Lucida Grande', 'Verdana', 'Geneva', 'Lucid', 'Arial', 'Helvetica', 'Avant Garde', sans-serif; text-anchor: middle" x="109.126388" y="320.202125" transform="rotate(-0 109.126388 320.202125)">1 Step</text>
     </g>
    </g>
    <g id="xtick_3">
     <g id="line2d_5">
      <g>
       <use xlink:href="#m3eef872b03" x="141.532922" y="307.584" style="stroke: #000000; stroke-width: 0.8"/>
      </g>
     </g>
     <g id="line2d_6">
      <g>
       <use xlink:href="#m303053a14f" x="141.532922" y="41.472" style="stroke: #000000; stroke-width: 0.8"/>
      </g>
     </g>
     <g id="text_3">
      <text style="font: 12px 'DejaVu Sans', 'Bitstream Vera Sans', 'Computer Modern Sans Serif', 'Lucida Grande', 'Verdana', 'Geneva', 'Lucid', 'Arial', 'Helvetica', 'Avant Garde', sans-serif; text-anchor: middle" x="141.532922" y="320.202125" transform="rotate(-0 141.532922 320.202125)">2 Step</text>
     </g>
    </g>
    <g id="xtick_4">
     <g id="line2d_7">
      <g>
       <use xlink:href="#m3eef872b03" x="173.939456" y="307.584" style="stroke: #000000; stroke-width: 0.8"/>
      </g>
     </g>
     <g id="line2d_8">
      <g>
       <use xlink:href="#m303053a14f" x="173.939456" y="41.472" style="stroke: #000000; stroke-width: 0.8"/>
      </g>
     </g>
     <g id="text_4">
      <text style="font: 12px 'DejaVu Sans', 'Bitstream Vera Sans', 'Computer Modern Sans Serif', 'Lucida Grande', 'Verdana', 'Geneva', 'Lucid', 'Arial', 'Helvetica', 'Avant Garde', sans-serif; text-anchor: middle" x="173.939456" y="320.202125" transform="rotate(-0 173.939456 320.202125)">&gt;2 Step</text>
     </g>
    </g>
   </g>
   <g id="matplotlib.axis_2">
    <g id="ytick_1">
     <g id="line2d_9">
      <defs>
       <path id="mfeba37063c" d="M 0 0 
L 3.5 0 
" style="stroke: #000000; stroke-width: 0.8"/>
      </defs>
      <g>
       <use xlink:href="#mfeba37063c" x="57.6" y="307.584" style="stroke: #000000; stroke-width: 0.8"/>
      </g>
     </g>
     <g id="line2d_10">
      <defs>
       <path id="m11f59d7eee" d="M 0 0 
L -3.5 0 
" style="stroke: #000000; stroke-width: 0.8"/>
      </defs>
      <g>
       <use xlink:href="#m11f59d7eee" x="193.05931" y="307.584" style="stroke: #000000; stroke-width: 0.8"/>
      </g>
     </g>
     <g id="text_5">
      <text style="font: 14px 'DejaVu Sans', 'Bitstream Vera Sans', 'Computer Modern Sans Serif', 'Lucida Grande', 'Verdana', 'Geneva', 'Lucid', 'Arial', 'Helvetica', 'Avant Garde', sans-serif; text-anchor: end" x="54.1" y="312.902906" transform="rotate(-0 54.1 312.902906)">0.0</text>
     </g>
    </g>
    <g id="ytick_2">
     <g id="line2d_11">
      <g>
       <use xlink:href="#mfeba37063c" x="57.6" y="274.32" style="stroke: #000000; stroke-width: 0.8"/>
      </g>
     </g>
     <g id="line2d_12">
      <g>
       <use xlink:href="#m11f59d7eee" x="193.05931" y="274.32" style="stroke: #000000; stroke-width: 0.8"/>
      </g>
     </g>
     <g id="text_6">
      <text style="font: 14px 'DejaVu Sans', 'Bitstream Vera Sans', 'Computer Modern Sans Serif', 'Lucida Grande', 'Verdana', 'Geneva', 'Lucid', 'Arial', 'Helvetica', 'Avant Garde', sans-serif; text-anchor: end" x="54.1" y="279.638906" transform="rotate(-0 54.1 279.638906)">0.1</text>
     </g>
    </g>
    <g id="ytick_3">
     <g id="line2d_13">
      <g>
       <use xlink:href="#mfeba37063c" x="57.6" y="241.056" style="stroke: #000000; stroke-width: 0.8"/>
      </g>
     </g>
     <g id="line2d_14">
      <g>
       <use xlink:href="#m11f59d7eee" x="193.05931" y="241.056" style="stroke: #000000; stroke-width: 0.8"/>
      </g>
     </g>
     <g id="text_7">
      <text style="font: 14px 'DejaVu Sans', 'Bitstream Vera Sans', 'Computer Modern Sans Serif', 'Lucida Grande', 'Verdana', 'Geneva', 'Lucid', 'Arial', 'Helvetica', 'Avant Garde', sans-serif; text-anchor: end" x="54.1" y="246.374906" transform="rotate(-0 54.1 246.374906)">0.2</text>
     </g>
    </g>
    <g id="ytick_4">
     <g id="line2d_15">
      <g>
       <use xlink:href="#mfeba37063c" x="57.6" y="207.792" style="stroke: #000000; stroke-width: 0.8"/>
      </g>
     </g>
     <g id="line2d_16">
      <g>
       <use xlink:href="#m11f59d7eee" x="193.05931" y="207.792" style="stroke: #000000; stroke-width: 0.8"/>
      </g>
     </g>
     <g id="text_8">
      <text style="font: 14px 'DejaVu Sans', 'Bitstream Vera Sans', 'Computer Modern Sans Serif', 'Lucida Grande', 'Verdana', 'Geneva', 'Lucid', 'Arial', 'Helvetica', 'Avant Garde', sans-serif; text-anchor: end" x="54.1" y="213.110906" transform="rotate(-0 54.1 213.110906)">0.3</text>
     </g>
    </g>
    <g id="ytick_5">
     <g id="line2d_17">
      <g>
       <use xlink:href="#mfeba37063c" x="57.6" y="174.528" style="stroke: #000000; stroke-width: 0.8"/>
      </g>
     </g>
     <g id="line2d_18">
      <g>
       <use xlink:href="#m11f59d7eee" x="193.05931" y="174.528" style="stroke: #000000; stroke-width: 0.8"/>
      </g>
     </g>
     <g id="text_9">
      <text style="font: 14px 'DejaVu Sans', 'Bitstream Vera Sans', 'Computer Modern Sans Serif', 'Lucida Grande', 'Verdana', 'Geneva', 'Lucid', 'Arial', 'Helvetica', 'Avant Garde', sans-serif; text-anchor: end" x="54.1" y="179.846906" transform="rotate(-0 54.1 179.846906)">0.4</text>
     </g>
    </g>
    <g id="ytick_6">
     <g id="line2d_19">
      <g>
       <use xlink:href="#mfeba37063c" x="57.6" y="141.264" style="stroke: #000000; stroke-width: 0.8"/>
      </g>
     </g>
     <g id="line2d_20">
      <g>
       <use xlink:href="#m11f59d7eee" x="193.05931" y="141.264" style="stroke: #000000; stroke-width: 0.8"/>
      </g>
     </g>
     <g id="text_10">
      <text style="font: 14px 'DejaVu Sans', 'Bitstream Vera Sans', 'Computer Modern Sans Serif', 'Lucida Grande', 'Verdana', 'Geneva', 'Lucid', 'Arial', 'Helvetica', 'Avant Garde', sans-serif; text-anchor: end" x="54.1" y="146.582906" transform="rotate(-0 54.1 146.582906)">0.5</text>
     </g>
    </g>
    <g id="ytick_7">
     <g id="line2d_21">
      <g>
       <use xlink:href="#mfeba37063c" x="57.6" y="108" style="stroke: #000000; stroke-width: 0.8"/>
      </g>
     </g>
     <g id="line2d_22">
      <g>
       <use xlink:href="#m11f59d7eee" x="193.05931" y="108" style="stroke: #000000; stroke-width: 0.8"/>
      </g>
     </g>
     <g id="text_11">
      <text style="font: 14px 'DejaVu Sans', 'Bitstream Vera Sans', 'Computer Modern Sans Serif', 'Lucida Grande', 'Verdana', 'Geneva', 'Lucid', 'Arial', 'Helvetica', 'Avant Garde', sans-serif; text-anchor: end" x="54.1" y="113.318906" transform="rotate(-0 54.1 113.318906)">0.6</text>
     </g>
    </g>
    <g id="ytick_8">
     <g id="line2d_23">
      <g>
       <use xlink:href="#mfeba37063c" x="57.6" y="74.736" style="stroke: #000000; stroke-width: 0.8"/>
      </g>
     </g>
     <g id="line2d_24">
      <g>
       <use xlink:href="#m11f59d7eee" x="193.05931" y="74.736" style="stroke: #000000; stroke-width: 0.8"/>
      </g>
     </g>
     <g id="text_12">
      <text style="font: 14px 'DejaVu Sans', 'Bitstream Vera Sans', 'Computer Modern Sans Serif', 'Lucida Grande', 'Verdana', 'Geneva', 'Lucid', 'Arial', 'Helvetica', 'Avant Garde', sans-serif; text-anchor: end" x="54.1" y="80.054906" transform="rotate(-0 54.1 80.054906)">0.7</text>
     </g>
    </g>
    <g id="ytick_9">
     <g id="line2d_25">
      <g>
       <use xlink:href="#mfeba37063c" x="57.6" y="41.472" style="stroke: #000000; stroke-width: 0.8"/>
      </g>
     </g>
     <g id="line2d_26">
      <g>
       <use xlink:href="#m11f59d7eee" x="193.05931" y="41.472" style="stroke: #000000; stroke-width: 0.8"/>
      </g>
     </g>
     <g id="text_13">
      <text style="font: 14px 'DejaVu Sans', 'Bitstream Vera Sans', 'Computer Modern Sans Serif', 'Lucida Grande', 'Verdana', 'Geneva', 'Lucid', 'Arial', 'Helvetica', 'Avant Garde', sans-serif; text-anchor: end" x="54.1" y="46.790906" transform="rotate(-0 54.1 46.790906)">0.8</text>
     </g>
    </g>
    <g id="text_14">
     <text style="font: 16px 'DejaVu Sans', 'Bitstream Vera Sans', 'Computer Modern Sans Serif', 'Lucida Grande', 'Verdana', 'Geneva', 'Lucid', 'Arial', 'Helvetica', 'Avant Garde', sans-serif; text-anchor: middle" x="24.508125" y="174.528" transform="rotate(-90 24.508125 174.528)">fractions (%)</text>
    </g>
   </g>
   <g id="LineCollection_1">
    <path d="M 76.719855 259.862776 
L 76.719855 240.465224 
" clip-path="url(#p4856b0ea83)" style="fill: none; stroke: #000000; stroke-width: 1.5"/>
    <path d="M 109.126388 206.874929 
L 109.126388 182.573071 
" clip-path="url(#p4856b0ea83)" style="fill: none; stroke: #000000; stroke-width: 1.5"/>
    <path d="M 141.532922 169.87754 
L 141.532922 144.33046 
" clip-path="url(#p4856b0ea83)" style="fill: none; stroke: #000000; stroke-width: 1.5"/>
    <path d="M 173.939456 302.045033 
L 173.939456 293.322967 
" clip-path="url(#p4856b0ea83)" style="fill: none; stroke: #000000; stroke-width: 1.5"/>
   </g>
   <g id="line2d_27">
    <defs>
     <path id="m7baa4c2477" d="M 5 0 
L -5 -0 
" style="stroke: #000000"/>
    </defs>
    <g clip-path="url(#p4856b0ea83)">
     <use xlink:href="#m7baa4c2477" x="76.719855" y="259.862776" style="stroke: #000000"/>
     <use xlink:href="#m7baa4c2477" x="109.126388" y="206.874929" style="stroke: #000000"/>
     <use xlink:href="#m7baa4c2477" x="141.532922" y="169.87754" style="stroke: #000000"/>
     <use xlink:href="#m7baa4c2477" x="173.939456" y="302.045033" style="stroke: #000000"/>
    </g>
   </g>
   <g id="line2d_28">
    <g clip-path="url(#p4856b0ea83)">
     <use xlink:href="#m7baa4c2477" x="76.719855" y="240.465224" style="stroke: #000000"/>
     <use xlink:href="#m7baa4c2477" x="109.126388" y="182.573071" style="stroke: #000000"/>
     <use xlink:href="#m7baa4c2477" x="141.532922" y="144.33046" style="stroke: #000000"/>
     <use xlink:href="#m7baa4c2477" x="173.939456" y="293.322967" style="stroke: #000000"/>
    </g>
   </g>
   <g id="line2d_29">
    <path d="M 57.6 261.927529 
L 193.05931 261.927529 
" clip-path="url(#p4856b0ea83)" style="fill: none; stroke-dasharray: 5.55,2.4; stroke-dashoffset: 0; stroke: #000000; stroke-width: 1.5"/>
   </g>
   <g id="line2d_30">
    <path d="M 57.6 177.136941 
L 193.05931 177.136941 
" clip-path="url(#p4856b0ea83)" style="fill: none; stroke-dasharray: 5.55,2.4; stroke-dashoffset: 0; stroke: #ff0000; stroke-width: 1.5"/>
   </g>
   <g id="line2d_31">
    <path d="M 57.6 151.047529 
L 193.05931 151.047529 
" clip-path="url(#p4856b0ea83)" style="fill: none; stroke-dasharray: 5.55,2.4; stroke-dashoffset: 0; stroke: #0000ff; stroke-width: 1.5"/>
   </g>
   <g id="line2d_32">
    <defs>
     <path id="m5ef17421bd" d="M 0 -3 
L -0.673542 -0.927051 
L -2.85317 -0.927051 
L -1.089814 0.354102 
L -1.763356 2.427051 
L -0 1.145898 
L 1.763356 2.427051 
L 1.089814 0.354102 
L 2.85317 -0.927051 
L 0.673542 -0.927051 
z
" style="stroke: #1f77b4; stroke-linejoin: bevel"/>
    </defs>
    <g clip-path="url(#p4856b0ea83)">
     <use xlink:href="#m5ef17421bd" x="76.719855" y="250.164" style="stroke: #1f77b4; stroke-linejoin: bevel"/>
     <use xlink:href="#m5ef17421bd" x="109.126388" y="194.724" style="stroke: #1f77b4; stroke-linejoin: bevel"/>
     <use xlink:href="#m5ef17421bd" x="141.532922" y="157.104" style="stroke: #1f77b4; stroke-linejoin: bevel"/>
     <use xlink:href="#m5ef17421bd" x="173.939456" y="297.684" style="stroke: #1f77b4; stroke-linejoin: bevel"/>
    </g>
   </g>
   <g id="patch_7">
    <path d="M 57.6 307.584 
L 57.6 41.472 
" style="fill: none; stroke: #000000; stroke-width: 0.8; stroke-linejoin: miter; stroke-linecap: square"/>
   </g>
   <g id="patch_8">
    <path d="M 193.05931 307.584 
L 193.05931 41.472 
" style="fill: none; stroke: #000000; stroke-width: 0.8; stroke-linejoin: miter; stroke-linecap: square"/>
   </g>
   <g id="patch_9">
    <path d="M 57.6 307.584 
L 193.05931 307.584 
" style="fill: none; stroke: #000000; stroke-width: 0.8; stroke-linejoin: miter; stroke-linecap: square"/>
   </g>
   <g id="patch_10">
    <path d="M 57.6 41.472 
L 193.05931 41.472 
" style="fill: none; stroke: #000000; stroke-width: 0.8; stroke-linejoin: miter; stroke-linecap: square"/>
   </g>
  </g>
  <g id="axes_2">
   <g id="patch_11">
    <path d="M 205.373793 307.584 
L 414.72 307.584 
L 414.72 41.472 
L 205.373793 41.472 
L 205.373793 307.584 
z
" style="fill: none"/>
   </g>
   <g id="PolyCollection_1">
    <defs>
     <path id="m186f25bae4" d="M 205.373793 -144.4608 
L 205.373793 -177.7248 
L 207.467255 -176.881225 
L 209.560717 -176.03765 
L 211.654179 -175.194075 
L 213.747641 -174.3505 
L 215.841103 -173.506925 
L 217.934566 -172.66335 
L 220.028028 -171.819775 
L 222.12149 -170.9762 
L 224.214952 -170.132625 
L 226.308414 -169.28905 
L 228.401876 -168.445475 
L 230.495338 -167.6019 
L 232.5888 -166.758324 
L 234.682262 -165.914749 
L 236.775724 -165.071174 
L 238.869186 -164.227599 
L 240.962648 -163.384024 
L 243.05611 -162.540449 
L 245.149572 -161.696874 
L 247.243034 -160.853299 
L 249.336497 -160.009724 
L 251.429959 -159.166149 
L 253.523421 -158.322574 
L 255.616883 -157.478999 
L 257.710345 -156.635424 
L 259.803807 -155.791849 
L 261.897269 -154.948274 
L 263.990731 -154.104699 
L 266.084193 -153.261124 
L 268.177655 -152.417549 
L 270.271117 -151.573974 
L 272.364579 -150.730399 
L 274.458041 -149.886824 
L 276.551503 -149.043249 
L 278.644966 -148.199674 
L 280.738428 -147.356099 
L 282.83189 -146.512524 
L 284.925352 -145.668948 
L 287.018814 -144.825373 
L 289.112276 -143.981798 
L 291.205738 -143.138223 
L 293.2992 -142.294648 
L 295.392662 -141.451073 
L 297.486124 -140.607498 
L 299.579586 -139.763923 
L 301.673048 -138.920348 
L 303.76651 -138.076773 
L 305.859972 -137.233198 
L 307.953434 -136.389623 
L 310.046897 -135.546048 
L 312.140359 -134.702473 
L 314.233821 -133.858898 
L 316.327283 -133.015323 
L 318.420745 -132.171748 
L 320.514207 -131.328173 
L 322.607669 -130.484598 
L 324.701131 -129.641023 
L 326.794593 -128.797448 
L 328.888055 -127.953873 
L 330.981517 -127.110298 
L 333.074979 -126.266723 
L 335.168441 -125.423148 
L 337.261903 -124.579572 
L 339.355366 -123.735997 
L 341.448828 -122.892422 
L 343.54229 -122.048847 
L 345.635752 -121.205272 
L 347.729214 -120.361697 
L 349.822676 -119.518122 
L 351.916138 -118.674547 
L 354.0096 -117.830972 
L 356.103062 -116.987397 
L 358.196524 -116.143822 
L 360.289986 -115.300247 
L 362.383448 -114.456672 
L 364.47691 -113.613097 
L 366.570372 -112.769522 
L 368.663834 -111.925947 
L 370.757297 -111.082372 
L 372.850759 -110.238797 
L 374.944221 -109.395222 
L 377.037683 -108.551647 
L 379.131145 -107.708072 
L 381.224607 -106.864497 
L 383.318069 -106.020922 
L 385.411531 -105.177347 
L 387.504993 -104.333772 
L 389.598455 -103.490196 
L 391.691917 -102.646621 
L 393.785379 -101.803046 
L 395.878841 -100.959471 
L 397.972303 -100.115896 
L 400.065766 -99.272321 
L 402.159228 -98.428746 
L 404.25269 -97.585171 
L 406.346152 -96.741596 
L 408.439614 -95.898021 
L 410.533076 -95.054446 
L 412.626538 -94.210871 
L 412.626538 -72.802161 
L 412.626538 -72.802161 
L 410.533076 -73.525985 
L 408.439614 -74.24981 
L 406.346152 -74.973635 
L 404.25269 -75.697459 
L 402.159228 -76.421284 
L 400.065766 -77.145108 
L 397.972303 -77.868933 
L 395.878841 -78.592758 
L 393.785379 -79.316582 
L 391.691917 -80.040407 
L 389.598455 -80.764232 
L 387.504993 -81.488056 
L 385.411531 -82.211881 
L 383.318069 -82.935706 
L 381.224607 -83.65953 
L 379.131145 -84.383355 
L 377.037683 -85.10718 
L 374.944221 -85.831004 
L 372.850759 -86.554829 
L 370.757297 -87.278653 
L 368.663834 -88.002478 
L 366.570372 -88.726303 
L 364.47691 -89.450127 
L 362.383448 -90.173952 
L 360.289986 -90.897777 
L 358.196524 -91.621601 
L 356.103062 -92.345426 
L 354.0096 -93.069251 
L 351.916138 -93.793075 
L 349.822676 -94.5169 
L 347.729214 -95.240724 
L 345.635752 -95.964549 
L 343.54229 -96.688374 
L 341.448828 -97.412198 
L 339.355366 -98.136023 
L 337.261903 -98.859848 
L 335.168441 -99.583672 
L 333.074979 -100.307497 
L 330.981517 -101.031322 
L 328.888055 -101.755146 
L 326.794593 -102.478971 
L 324.701131 -103.202796 
L 322.607669 -103.92662 
L 320.514207 -104.650445 
L 318.420745 -105.374269 
L 316.327283 -106.098094 
L 314.233821 -106.821919 
L 312.140359 -107.545743 
L 310.046897 -108.269568 
L 307.953434 -108.993393 
L 305.859972 -109.717217 
L 303.76651 -110.441042 
L 301.673048 -111.164867 
L 299.579586 -111.888691 
L 297.486124 -112.612516 
L 295.392662 -113.33634 
L 293.2992 -114.060165 
L 291.205738 -114.78399 
L 289.112276 -115.507814 
L 287.018814 -116.231639 
L 284.925352 -116.955464 
L 282.83189 -117.679288 
L 280.738428 -118.403113 
L 278.644966 -119.126938 
L 276.551503 -119.850762 
L 274.458041 -120.574587 
L 272.364579 -121.298412 
L 270.271117 -122.022236 
L 268.177655 -122.746061 
L 266.084193 -123.469885 
L 263.990731 -124.19371 
L 261.897269 -124.917535 
L 259.803807 -125.641359 
L 257.710345 -126.365184 
L 255.616883 -127.089009 
L 253.523421 -127.812833 
L 251.429959 -128.536658 
L 249.336497 -129.260483 
L 247.243034 -129.984307 
L 245.149572 -130.708132 
L 243.05611 -131.431956 
L 240.962648 -132.155781 
L 238.869186 -132.879606 
L 236.775724 -133.60343 
L 234.682262 -134.327255 
L 232.5888 -135.05108 
L 230.495338 -135.774904 
L 228.401876 -136.498729 
L 226.308414 -137.222554 
L 224.214952 -137.946378 
L 222.12149 -138.670203 
L 220.028028 -139.394028 
L 217.934566 -140.117852 
L 215.841103 -140.841677 
L 213.747641 -141.565501 
L 211.654179 -142.289326 
L 209.560717 -143.013151 
L 207.467255 -143.736975 
L 205.373793 -144.4608 
z
" style="stroke: #ffffff; stroke-opacity: 0.7"/>
    </defs>
    <g clip-path="url(#p8491ec2f81)">
     <use xlink:href="#m186f25bae4" x="0" y="345.6" style="fill: #808080; fill-opacity: 0.7; stroke: #ffffff; stroke-opacity: 0.7"/>
    </g>
   </g>
   <g id="PolyCollection_2">
    <defs>
     <path id="me5d8ad94af" d="M 205.373793 -111.1968 
L 205.373793 -144.4608 
L 207.467255 -143.736975 
L 209.560717 -143.013151 
L 211.654179 -142.289326 
L 213.747641 -141.565501 
L 215.841103 -140.841677 
L 217.934566 -140.117852 
L 220.028028 -139.394028 
L 222.12149 -138.670203 
L 224.214952 -137.946378 
L 226.308414 -137.222554 
L 228.401876 -136.498729 
L 230.495338 -135.774904 
L 232.5888 -135.05108 
L 234.682262 -134.327255 
L 236.775724 -133.60343 
L 238.869186 -132.879606 
L 240.962648 -132.155781 
L 243.05611 -131.431956 
L 245.149572 -130.708132 
L 247.243034 -129.984307 
L 249.336497 -129.260483 
L 251.429959 -128.536658 
L 253.523421 -127.812833 
L 255.616883 -127.089009 
L 257.710345 -126.365184 
L 259.803807 -125.641359 
L 261.897269 -124.917535 
L 263.990731 -124.19371 
L 266.084193 -123.469885 
L 268.177655 -122.746061 
L 270.271117 -122.022236 
L 272.364579 -121.298412 
L 274.458041 -120.574587 
L 276.551503 -119.850762 
L 278.644966 -119.126938 
L 280.738428 -118.403113 
L 282.83189 -117.679288 
L 284.925352 -116.955464 
L 287.018814 -116.231639 
L 289.112276 -115.507814 
L 291.205738 -114.78399 
L 293.2992 -114.060165 
L 295.392662 -113.33634 
L 297.486124 -112.612516 
L 299.579586 -111.888691 
L 301.673048 -111.164867 
L 303.76651 -110.441042 
L 305.859972 -109.717217 
L 307.953434 -108.993393 
L 310.046897 -108.269568 
L 312.140359 -107.545743 
L 314.233821 -106.821919 
L 316.327283 -106.098094 
L 318.420745 -105.374269 
L 320.514207 -104.650445 
L 322.607669 -103.92662 
L 324.701131 -103.202796 
L 326.794593 -102.478971 
L 328.888055 -101.755146 
L 330.981517 -101.031322 
L 333.074979 -100.307497 
L 335.168441 -99.583672 
L 337.261903 -98.859848 
L 339.355366 -98.136023 
L 341.448828 -97.412198 
L 343.54229 -96.688374 
L 345.635752 -95.964549 
L 347.729214 -95.240724 
L 349.822676 -94.5169 
L 351.916138 -93.793075 
L 354.0096 -93.069251 
L 356.103062 -92.345426 
L 358.196524 -91.621601 
L 360.289986 -90.897777 
L 362.383448 -90.173952 
L 364.47691 -89.450127 
L 366.570372 -88.726303 
L 368.663834 -88.002478 
L 370.757297 -87.278653 
L 372.850759 -86.554829 
L 374.944221 -85.831004 
L 377.037683 -85.10718 
L 379.131145 -84.383355 
L 381.224607 -83.65953 
L 383.318069 -82.935706 
L 385.411531 -82.211881 
L 387.504993 -81.488056 
L 389.598455 -80.764232 
L 391.691917 -80.040407 
L 393.785379 -79.316582 
L 395.878841 -78.592758 
L 397.972303 -77.868933 
L 400.065766 -77.145108 
L 402.159228 -76.421284 
L 404.25269 -75.697459 
L 406.346152 -74.973635 
L 408.439614 -74.24981 
L 410.533076 -73.525985 
L 412.626538 -72.802161 
L 412.626538 -51.39345 
L 412.626538 -51.39345 
L 410.533076 -51.997524 
L 408.439614 -52.601599 
L 406.346152 -53.205673 
L 404.25269 -53.809747 
L 402.159228 -54.413821 
L 400.065766 -55.017896 
L 397.972303 -55.62197 
L 395.878841 -56.226044 
L 393.785379 -56.830118 
L 391.691917 -57.434193 
L 389.598455 -58.038267 
L 387.504993 -58.642341 
L 385.411531 -59.246415 
L 383.318069 -59.85049 
L 381.224607 -60.454564 
L 379.131145 -61.058638 
L 377.037683 -61.662712 
L 374.944221 -62.266787 
L 372.850759 -62.870861 
L 370.757297 -63.474935 
L 368.663834 -64.079009 
L 366.570372 -64.683084 
L 364.47691 -65.287158 
L 362.383448 -65.891232 
L 360.289986 -66.495306 
L 358.196524 -67.09938 
L 356.103062 -67.703455 
L 354.0096 -68.307529 
L 351.916138 -68.911603 
L 349.822676 -69.515677 
L 347.729214 -70.119752 
L 345.635752 -70.723826 
L 343.54229 -71.3279 
L 341.448828 -71.931974 
L 339.355366 -72.536049 
L 337.261903 -73.140123 
L 335.168441 -73.744197 
L 333.074979 -74.348271 
L 330.981517 -74.952346 
L 328.888055 -75.55642 
L 326.794593 -76.160494 
L 324.701131 -76.764568 
L 322.607669 -77.368643 
L 320.514207 -77.972717 
L 318.420745 -78.576791 
L 316.327283 -79.180865 
L 314.233821 -79.78494 
L 312.140359 -80.389014 
L 310.046897 -80.993088 
L 307.953434 -81.597162 
L 305.859972 -82.201236 
L 303.76651 -82.805311 
L 301.673048 -83.409385 
L 299.579586 -84.013459 
L 297.486124 -84.617533 
L 295.392662 -85.221608 
L 293.2992 -85.825682 
L 291.205738 -86.429756 
L 289.112276 -87.03383 
L 287.018814 -87.637905 
L 284.925352 -88.241979 
L 282.83189 -88.846053 
L 280.738428 -89.450127 
L 278.644966 -90.054202 
L 276.551503 -90.658276 
L 274.458041 -91.26235 
L 272.364579 -91.866424 
L 270.271117 -92.470499 
L 268.177655 -93.074573 
L 266.084193 -93.678647 
L 263.990731 -94.282721 
L 261.897269 -94.886796 
L 259.803807 -95.49087 
L 257.710345 -96.094944 
L 255.616883 -96.699018 
L 253.523421 -97.303092 
L 251.429959 -97.907167 
L 249.336497 -98.511241 
L 247.243034 -99.115315 
L 245.149572 -99.719389 
L 243.05611 -100.323464 
L 240.962648 -100.927538 
L 238.869186 -101.531612 
L 236.775724 -102.135686 
L 234.682262 -102.739761 
L 232.5888 -103.343835 
L 230.495338 -103.947909 
L 228.401876 -104.551983 
L 226.308414 -105.156058 
L 224.214952 -105.760132 
L 222.12149 -106.364206 
L 220.028028 -106.96828 
L 217.934566 -107.572355 
L 215.841103 -108.176429 
L 213.747641 -108.780503 
L 211.654179 -109.384577 
L 209.560717 -109.988652 
L 207.467255 -110.592726 
L 205.373793 -111.1968 
z
" style="stroke: #808080; stroke-opacity: 0.7"/>
    </defs>
    <g clip-path="url(#p8491ec2f81)">
     <use xlink:href="#me5d8ad94af" x="0" y="345.6" style="fill: #808080; fill-opacity: 0.7; stroke: #808080; stroke-opacity: 0.7"/>
    </g>
   </g>
   <g id="PolyCollection_3">
    <defs>
     <path id="mfd916ff6f7" d="M 205.373793 -264.2112 
L 205.373793 -297.4752 
L 207.467255 -296.088756 
L 209.560717 -294.702313 
L 211.654179 -293.315869 
L 213.747641 -291.929426 
L 215.841103 -290.542982 
L 217.934566 -289.156539 
L 220.028028 -287.770095 
L 222.12149 -286.383652 
L 224.214952 -284.997208 
L 226.308414 -283.610765 
L 228.401876 -282.224321 
L 230.495338 -280.837878 
L 232.5888 -279.451434 
L 234.682262 -278.064991 
L 236.775724 -276.678547 
L 238.869186 -275.292104 
L 240.962648 -273.90566 
L 243.05611 -272.519217 
L 245.149572 -271.132773 
L 247.243034 -269.74633 
L 249.336497 -268.359886 
L 251.429959 -266.973443 
L 253.523421 -265.586999 
L 255.616883 -264.200556 
L 257.710345 -262.814112 
L 259.803807 -261.427668 
L 261.897269 -260.041225 
L 263.990731 -258.654781 
L 266.084193 -257.268338 
L 268.177655 -255.881894 
L 270.271117 -254.495451 
L 272.364579 -253.109007 
L 274.458041 -251.722564 
L 276.551503 -250.33612 
L 278.644966 -248.949677 
L 280.738428 -247.563233 
L 282.83189 -246.17679 
L 284.925352 -244.790346 
L 287.018814 -243.403903 
L 289.112276 -242.017459 
L 291.205738 -240.631016 
L 293.2992 -239.244572 
L 295.392662 -237.858129 
L 297.486124 -236.471685 
L 299.579586 -235.085242 
L 301.673048 -233.698798 
L 303.76651 -232.312355 
L 305.859972 -230.925911 
L 307.953434 -229.539468 
L 310.046897 -228.153024 
L 312.140359 -226.76658 
L 314.233821 -225.380137 
L 316.327283 -223.993693 
L 318.420745 -222.60725 
L 320.514207 -221.220806 
L 322.607669 -219.834363 
L 324.701131 -218.447919 
L 326.794593 -217.061476 
L 328.888055 -216.659647 
L 330.981517 -216.417485 
L 333.074979 -216.175323 
L 335.168441 -215.933161 
L 337.261903 -215.690999 
L 339.355366 -215.448837 
L 341.448828 -215.206675 
L 343.54229 -214.964513 
L 345.635752 -214.722351 
L 347.729214 -214.480189 
L 349.822676 -214.238028 
L 351.916138 -213.995866 
L 354.0096 -213.753704 
L 356.103062 -213.511542 
L 358.196524 -213.26938 
L 360.289986 -213.027218 
L 362.383448 -212.785056 
L 364.47691 -212.542894 
L 366.570372 -212.300732 
L 368.663834 -212.05857 
L 370.757297 -211.816408 
L 372.850759 -211.574246 
L 374.944221 -211.332084 
L 377.037683 -211.089923 
L 379.131145 -210.847761 
L 381.224607 -210.605599 
L 383.318069 -210.363437 
L 385.411531 -210.121275 
L 387.504993 -209.879113 
L 389.598455 -209.636951 
L 391.691917 -209.394789 
L 393.785379 -209.152627 
L 395.878841 -208.910465 
L 397.972303 -208.668303 
L 400.065766 -208.426141 
L 402.159228 -208.18398 
L 404.25269 -207.941818 
L 406.346152 -207.699656 
L 408.439614 -207.457494 
L 410.533076 -207.215332 
L 412.626538 -206.97317 
L 412.626538 -183.595231 
L 412.626538 -183.595231 
L 410.533076 -184.409533 
L 408.439614 -185.223836 
L 406.346152 -186.038139 
L 404.25269 -186.852442 
L 402.159228 -187.666744 
L 400.065766 -188.481047 
L 397.972303 -189.29535 
L 395.878841 -190.109652 
L 393.785379 -190.923955 
L 391.691917 -191.738258 
L 389.598455 -192.552561 
L 387.504993 -193.366863 
L 385.411531 -194.181166 
L 383.318069 -194.995469 
L 381.224607 -195.809772 
L 379.131145 -196.624074 
L 377.037683 -197.438377 
L 374.944221 -198.25268 
L 372.850759 -199.066982 
L 370.757297 -199.881285 
L 368.663834 -200.695588 
L 366.570372 -201.509891 
L 364.47691 -202.324193 
L 362.383448 -203.138496 
L 360.289986 -203.952799 
L 358.196524 -204.767101 
L 356.103062 -205.581404 
L 354.0096 -206.395707 
L 351.916138 -207.21001 
L 349.822676 -208.024312 
L 347.729214 -208.838615 
L 345.635752 -209.652918 
L 343.54229 -210.46722 
L 341.448828 -211.281523 
L 339.355366 -212.095826 
L 337.261903 -212.910129 
L 335.168441 -213.724431 
L 333.074979 -214.538734 
L 330.981517 -215.353037 
L 328.888055 -216.16734 
L 326.794593 -216.981642 
L 324.701131 -217.795945 
L 322.607669 -218.610248 
L 320.514207 -219.42455 
L 318.420745 -220.238853 
L 316.327283 -221.053156 
L 314.233821 -221.867459 
L 312.140359 -222.681761 
L 310.046897 -223.496064 
L 307.953434 -224.310367 
L 305.859972 -225.124669 
L 303.76651 -225.938972 
L 301.673048 -226.753275 
L 299.579586 -227.567578 
L 297.486124 -228.38188 
L 295.392662 -229.196183 
L 293.2992 -230.010486 
L 291.205738 -230.824788 
L 289.112276 -231.639091 
L 287.018814 -232.453394 
L 284.925352 -233.267697 
L 282.83189 -234.081999 
L 280.738428 -234.896302 
L 278.644966 -235.710605 
L 276.551503 -236.524908 
L 274.458041 -237.33921 
L 272.364579 -238.153513 
L 270.271117 -238.967816 
L 268.177655 -239.782118 
L 266.084193 -240.596421 
L 263.990731 -241.410724 
L 261.897269 -242.225027 
L 259.803807 -243.039329 
L 257.710345 -243.853632 
L 255.616883 -244.667935 
L 253.523421 -245.482237 
L 251.429959 -246.29654 
L 249.336497 -247.110843 
L 247.243034 -247.925146 
L 245.149572 -248.739448 
L 243.05611 -249.553751 
L 240.962648 -250.368054 
L 238.869186 -251.182356 
L 236.775724 -251.996659 
L 234.682262 -252.810962 
L 232.5888 -253.625265 
L 230.495338 -254.439567 
L 228.401876 -255.25387 
L 226.308414 -256.068173 
L 224.214952 -256.882476 
L 222.12149 -257.696778 
L 220.028028 -258.511081 
L 217.934566 -259.325384 
L 215.841103 -260.139686 
L 213.747641 -260.953989 
L 211.654179 -261.768292 
L 209.560717 -262.582595 
L 207.467255 -263.396897 
L 205.373793 -264.2112 
z
" style="stroke: #ffc0cb; stroke-opacity: 0.7"/>
    </defs>
    <g clip-path="url(#p8491ec2f81)">
     <use xlink:href="#mfd916ff6f7" x="0" y="345.6" style="fill: #ffc0cb; fill-opacity: 0.7; stroke: #ffc0cb; stroke-opacity: 0.7"/>
    </g>
   </g>
   <g id="PolyCollection_4">
    <defs>
     <path id="m782a4c3b18" d="M 205.373793 -264.2112 
L 205.373793 -230.9472 
L 207.467255 -230.705038 
L 209.560717 -230.462876 
L 211.654179 -230.220714 
L 213.747641 -229.978552 
L 215.841103 -229.73639 
L 217.934566 -229.494228 
L 220.028028 -229.252067 
L 222.12149 -229.009905 
L 224.214952 -228.767743 
L 226.308414 -228.525581 
L 228.401876 -228.283419 
L 230.495338 -228.041257 
L 232.5888 -227.799095 
L 234.682262 -227.556933 
L 236.775724 -227.314771 
L 238.869186 -227.072609 
L 240.962648 -226.830447 
L 243.05611 -226.588285 
L 245.149572 -226.346124 
L 247.243034 -226.103962 
L 249.336497 -225.8618 
L 251.429959 -225.619638 
L 253.523421 -225.377476 
L 255.616883 -225.135314 
L 257.710345 -224.893152 
L 259.803807 -224.65099 
L 261.897269 -224.408828 
L 263.990731 -224.166666 
L 266.084193 -223.924504 
L 268.177655 -223.682342 
L 270.271117 -223.44018 
L 272.364579 -223.198019 
L 274.458041 -222.955857 
L 276.551503 -222.713695 
L 278.644966 -222.471533 
L 280.738428 -222.229371 
L 282.83189 -221.987209 
L 284.925352 -221.745047 
L 287.018814 -221.502885 
L 289.112276 -221.260723 
L 291.205738 -221.018561 
L 293.2992 -220.776399 
L 295.392662 -220.534237 
L 297.486124 -220.292076 
L 299.579586 -220.049914 
L 301.673048 -219.807752 
L 303.76651 -219.56559 
L 305.859972 -219.323428 
L 307.953434 -219.081266 
L 310.046897 -218.839104 
L 312.140359 -218.596942 
L 314.233821 -218.35478 
L 316.327283 -218.112618 
L 318.420745 -217.870456 
L 320.514207 -217.628294 
L 322.607669 -217.386132 
L 324.701131 -217.143971 
L 326.794593 -216.901809 
L 328.888055 -215.675032 
L 330.981517 -214.288589 
L 333.074979 -212.902145 
L 335.168441 -211.515702 
L 337.261903 -210.129258 
L 339.355366 -208.742815 
L 341.448828 -207.356371 
L 343.54229 -205.969928 
L 345.635752 -204.583484 
L 347.729214 -203.197041 
L 349.822676 -201.810597 
L 351.916138 -200.424154 
L 354.0096 -199.03771 
L 356.103062 -197.651267 
L 358.196524 -196.264823 
L 360.289986 -194.87838 
L 362.383448 -193.491936 
L 364.47691 -192.105492 
L 366.570372 -190.719049 
L 368.663834 -189.332605 
L 370.757297 -187.946162 
L 372.850759 -186.559718 
L 374.944221 -185.173275 
L 377.037683 -183.786831 
L 379.131145 -182.400388 
L 381.224607 -181.013944 
L 383.318069 -179.627501 
L 385.411531 -178.241057 
L 387.504993 -176.854614 
L 389.598455 -175.46817 
L 391.691917 -174.081727 
L 393.785379 -172.695283 
L 395.878841 -171.30884 
L 397.972303 -169.922396 
L 400.065766 -168.535953 
L 402.159228 -167.149509 
L 404.25269 -165.763066 
L 406.346152 -164.376622 
L 408.439614 -162.990179 
L 410.533076 -161.603735 
L 412.626538 -160.217292 
L 412.626538 -183.595231 
L 412.626538 -183.595231 
L 410.533076 -184.409533 
L 408.439614 -185.223836 
L 406.346152 -186.038139 
L 404.25269 -186.852442 
L 402.159228 -187.666744 
L 400.065766 -188.481047 
L 397.972303 -189.29535 
L 395.878841 -190.109652 
L 393.785379 -190.923955 
L 391.691917 -191.738258 
L 389.598455 -192.552561 
L 387.504993 -193.366863 
L 385.411531 -194.181166 
L 383.318069 -194.995469 
L 381.224607 -195.809772 
L 379.131145 -196.624074 
L 377.037683 -197.438377 
L 374.944221 -198.25268 
L 372.850759 -199.066982 
L 370.757297 -199.881285 
L 368.663834 -200.695588 
L 366.570372 -201.509891 
L 364.47691 -202.324193 
L 362.383448 -203.138496 
L 360.289986 -203.952799 
L 358.196524 -204.767101 
L 356.103062 -205.581404 
L 354.0096 -206.395707 
L 351.916138 -207.21001 
L 349.822676 -208.024312 
L 347.729214 -208.838615 
L 345.635752 -209.652918 
L 343.54229 -210.46722 
L 341.448828 -211.281523 
L 339.355366 -212.095826 
L 337.261903 -212.910129 
L 335.168441 -213.724431 
L 333.074979 -214.538734 
L 330.981517 -215.353037 
L 328.888055 -216.16734 
L 326.794593 -216.981642 
L 324.701131 -217.795945 
L 322.607669 -218.610248 
L 320.514207 -219.42455 
L 318.420745 -220.238853 
L 316.327283 -221.053156 
L 314.233821 -221.867459 
L 312.140359 -222.681761 
L 310.046897 -223.496064 
L 307.953434 -224.310367 
L 305.859972 -225.124669 
L 303.76651 -225.938972 
L 301.673048 -226.753275 
L 299.579586 -227.567578 
L 297.486124 -228.38188 
L 295.392662 -229.196183 
L 293.2992 -230.010486 
L 291.205738 -230.824788 
L 289.112276 -231.639091 
L 287.018814 -232.453394 
L 284.925352 -233.267697 
L 282.83189 -234.081999 
L 280.738428 -234.896302 
L 278.644966 -235.710605 
L 276.551503 -236.524908 
L 274.458041 -237.33921 
L 272.364579 -238.153513 
L 270.271117 -238.967816 
L 268.177655 -239.782118 
L 266.084193 -240.596421 
L 263.990731 -241.410724 
L 261.897269 -242.225027 
L 259.803807 -243.039329 
L 257.710345 -243.853632 
L 255.616883 -244.667935 
L 253.523421 -245.482237 
L 251.429959 -246.29654 
L 249.336497 -247.110843 
L 247.243034 -247.925146 
L 245.149572 -248.739448 
L 243.05611 -249.553751 
L 240.962648 -250.368054 
L 238.869186 -251.182356 
L 236.775724 -251.996659 
L 234.682262 -252.810962 
L 232.5888 -253.625265 
L 230.495338 -254.439567 
L 228.401876 -255.25387 
L 226.308414 -256.068173 
L 224.214952 -256.882476 
L 222.12149 -257.696778 
L 220.028028 -258.511081 
L 217.934566 -259.325384 
L 215.841103 -260.139686 
L 213.747641 -260.953989 
L 211.654179 -261.768292 
L 209.560717 -262.582595 
L 207.467255 -263.396897 
L 205.373793 -264.2112 
z
" style="stroke: #ffc0cb; stroke-opacity: 0.7"/>
    </defs>
    <g clip-path="url(#p8491ec2f81)">
     <use xlink:href="#m782a4c3b18" x="0" y="345.6" style="fill: #ffc0cb; fill-opacity: 0.7; stroke: #ffc0cb; stroke-opacity: 0.7"/>
    </g>
   </g>
   <g id="PolyCollection_5">
    <defs>
     <path id="m66b5812c69" d="M 205.373793 -38.016 
L 205.373793 -38.016 
L 207.467255 -40.006518 
L 209.560717 -41.997036 
L 211.654179 -43.987553 
L 213.747641 -45.978071 
L 215.841103 -47.968589 
L 217.934566 -49.959107 
L 220.028028 -51.949624 
L 222.12149 -53.940142 
L 224.214952 -55.93066 
L 226.308414 -57.921178 
L 228.401876 -59.911695 
L 230.495338 -61.902213 
L 232.5888 -63.892731 
L 234.682262 -65.883249 
L 236.775724 -67.873766 
L 238.869186 -69.864284 
L 240.962648 -71.854802 
L 243.05611 -73.84532 
L 245.149572 -75.835837 
L 247.243034 -77.826355 
L 249.336497 -79.816873 
L 251.429959 -81.807391 
L 253.523421 -83.797908 
L 255.616883 -85.788426 
L 257.710345 -87.778944 
L 259.803807 -89.769462 
L 261.897269 -91.75998 
L 263.990731 -93.750497 
L 266.084193 -95.741015 
L 268.177655 -97.731533 
L 270.271117 -99.722051 
L 272.364579 -101.712568 
L 274.458041 -103.703086 
L 276.551503 -105.693604 
L 278.644966 -107.684122 
L 280.738428 -109.674639 
L 282.83189 -111.665157 
L 284.925352 -113.655675 
L 287.018814 -115.646193 
L 289.112276 -117.63671 
L 291.205738 -119.627228 
L 293.2992 -121.617746 
L 295.392662 -123.608264 
L 297.486124 -125.598781 
L 299.579586 -127.589299 
L 301.673048 -129.579817 
L 303.76651 -131.570335 
L 305.859972 -133.560852 
L 307.953434 -135.55137 
L 310.046897 -137.541888 
L 312.140359 -139.532406 
L 314.233821 -141.522924 
L 316.327283 -143.513441 
L 318.420745 -145.503959 
L 320.514207 -147.494477 
L 322.607669 -149.484995 
L 324.701131 -151.475512 
L 326.794593 -153.46603 
L 328.888055 -155.456548 
L 330.981517 -157.447066 
L 333.074979 -159.437583 
L 335.168441 -161.428101 
L 337.261903 -163.418619 
L 339.355366 -165.409137 
L 341.448828 -167.399654 
L 343.54229 -169.390172 
L 345.635752 -171.38069 
L 347.729214 -173.371208 
L 349.822676 -175.361725 
L 351.916138 -177.352243 
L 354.0096 -179.342761 
L 356.103062 -181.333279 
L 358.196524 -183.323796 
L 360.289986 -185.314314 
L 362.383448 -187.304832 
L 364.47691 -189.29535 
L 366.570372 -191.285868 
L 368.663834 -193.276385 
L 370.757297 -195.266903 
L 372.850759 -197.257421 
L 374.944221 -199.247939 
L 377.037683 -201.238456 
L 379.131145 -203.228974 
L 381.224607 -205.219492 
L 383.318069 -207.21001 
L 385.411531 -209.200527 
L 387.504993 -211.191045 
L 389.598455 -213.181563 
L 391.691917 -215.172081 
L 393.785379 -217.162598 
L 395.878841 -219.153116 
L 397.972303 -221.143634 
L 400.065766 -223.134152 
L 402.159228 -225.124669 
L 404.25269 -227.115187 
L 406.346152 -229.105705 
L 408.439614 -231.096223 
L 410.533076 -233.08674 
L 412.626538 -235.077258 
L 412.626538 -190.290609 
L 412.626538 -190.290609 
L 410.533076 -188.752481 
L 408.439614 -187.214354 
L 406.346152 -185.676227 
L 404.25269 -184.138099 
L 402.159228 -182.599972 
L 400.065766 -181.061844 
L 397.972303 -179.523717 
L 395.878841 -177.98559 
L 393.785379 -176.447462 
L 391.691917 -174.909335 
L 389.598455 -173.371208 
L 387.504993 -171.83308 
L 385.411531 -170.294953 
L 383.318069 -168.756826 
L 381.224607 -167.218698 
L 379.131145 -165.680571 
L 377.037683 -164.142444 
L 374.944221 -162.604316 
L 372.850759 -161.066189 
L 370.757297 -159.528061 
L 368.663834 -157.989934 
L 366.570372 -156.451807 
L 364.47691 -154.913679 
L 362.383448 -153.375552 
L 360.289986 -151.837425 
L 358.196524 -150.299297 
L 356.103062 -148.76117 
L 354.0096 -147.223043 
L 351.916138 -145.684915 
L 349.822676 -144.146788 
L 347.729214 -142.60866 
L 345.635752 -141.070533 
L 343.54229 -139.532406 
L 341.448828 -137.994278 
L 339.355366 -136.456151 
L 337.261903 -134.918024 
L 335.168441 -133.379896 
L 333.074979 -131.841769 
L 330.981517 -130.303642 
L 328.888055 -128.765514 
L 326.794593 -127.227387 
L 324.701131 -125.68926 
L 322.607669 -124.151132 
L 320.514207 -122.613005 
L 318.420745 -121.074877 
L 316.327283 -119.53675 
L 314.233821 -117.998623 
L 312.140359 -116.460495 
L 310.046897 -114.922368 
L 307.953434 -113.384241 
L 305.859972 -111.846113 
L 303.76651 -110.307986 
L 301.673048 -108.769859 
L 299.579586 -107.231731 
L 297.486124 -105.693604 
L 295.392662 -104.155476 
L 293.2992 -102.617349 
L 291.205738 -101.079222 
L 289.112276 -99.541094 
L 287.018814 -98.002967 
L 284.925352 -96.46484 
L 282.83189 -94.926712 
L 280.738428 -93.388585 
L 278.644966 -91.850458 
L 276.551503 -90.31233 
L 274.458041 -88.774203 
L 272.364579 -87.236076 
L 270.271117 -85.697948 
L 268.177655 -84.159821 
L 266.084193 -82.621693 
L 263.990731 -81.083566 
L 261.897269 -79.545439 
L 259.803807 -78.007311 
L 257.710345 -76.469184 
L 255.616883 -74.931057 
L 253.523421 -73.392929 
L 251.429959 -71.854802 
L 249.336497 -70.316675 
L 247.243034 -68.778547 
L 245.149572 -67.24042 
L 243.05611 -65.702292 
L 240.962648 -64.164165 
L 238.869186 -62.626038 
L 236.775724 -61.08791 
L 234.682262 -59.549783 
L 232.5888 -58.011656 
L 230.495338 -56.473528 
L 228.401876 -54.935401 
L 226.308414 -53.397274 
L 224.214952 -51.859146 
L 222.12149 -50.321019 
L 220.028028 -48.782892 
L 217.934566 -47.244764 
L 215.841103 -45.706637 
L 213.747641 -44.168509 
L 211.654179 -42.630382 
L 209.560717 -41.092255 
L 207.467255 -39.554127 
L 205.373793 -38.016 
z
" style="stroke: #add8e6; stroke-opacity: 0.7"/>
    </defs>
    <g clip-path="url(#p8491ec2f81)">
     <use xlink:href="#m66b5812c69" x="0" y="345.6" style="fill: #add8e6; fill-opacity: 0.7; stroke: #add8e6; stroke-opacity: 0.7"/>
    </g>
   </g>
   <g id="PolyCollection_6">
    <defs>
     <path id="mc5254b28c7" d="M 205.373793 -38.016 
L 205.373793 -38.016 
L 207.467255 -39.554127 
L 209.560717 -41.092255 
L 211.654179 -42.630382 
L 213.747641 -44.168509 
L 215.841103 -45.706637 
L 217.934566 -47.244764 
L 220.028028 -48.782892 
L 222.12149 -50.321019 
L 224.214952 -51.859146 
L 226.308414 -53.397274 
L 228.401876 -54.935401 
L 230.495338 -56.473528 
L 232.5888 -58.011656 
L 234.682262 -59.549783 
L 236.775724 -61.08791 
L 238.869186 -62.626038 
L 240.962648 -64.164165 
L 243.05611 -65.702292 
L 245.149572 -67.24042 
L 247.243034 -68.778547 
L 249.336497 -70.316675 
L 251.429959 -71.854802 
L 253.523421 -73.392929 
L 255.616883 -74.931057 
L 257.710345 -76.469184 
L 259.803807 -78.007311 
L 261.897269 -79.545439 
L 263.990731 -81.083566 
L 266.084193 -82.621693 
L 268.177655 -84.159821 
L 270.271117 -85.697948 
L 272.364579 -87.236076 
L 274.458041 -88.774203 
L 276.551503 -90.31233 
L 278.644966 -91.850458 
L 280.738428 -93.388585 
L 282.83189 -94.926712 
L 284.925352 -96.46484 
L 287.018814 -98.002967 
L 289.112276 -99.541094 
L 291.205738 -101.079222 
L 293.2992 -102.617349 
L 295.392662 -104.155476 
L 297.486124 -105.693604 
L 299.579586 -107.231731 
L 301.673048 -108.769859 
L 303.76651 -110.307986 
L 305.859972 -111.846113 
L 307.953434 -113.384241 
L 310.046897 -114.922368 
L 312.140359 -116.460495 
L 314.233821 -117.998623 
L 316.327283 -119.53675 
L 318.420745 -121.074877 
L 320.514207 -122.613005 
L 322.607669 -124.151132 
L 324.701131 -125.68926 
L 326.794593 -127.227387 
L 328.888055 -128.765514 
L 330.981517 -130.303642 
L 333.074979 -131.841769 
L 335.168441 -133.379896 
L 337.261903 -134.918024 
L 339.355366 -136.456151 
L 341.448828 -137.994278 
L 343.54229 -139.532406 
L 345.635752 -141.070533 
L 347.729214 -142.60866 
L 349.822676 -144.146788 
L 351.916138 -145.684915 
L 354.0096 -147.223043 
L 356.103062 -148.76117 
L 358.196524 -150.299297 
L 360.289986 -151.837425 
L 362.383448 -153.375552 
L 364.47691 -154.913679 
L 366.570372 -156.451807 
L 368.663834 -157.989934 
L 370.757297 -159.528061 
L 372.850759 -161.066189 
L 374.944221 -162.604316 
L 377.037683 -164.142444 
L 379.131145 -165.680571 
L 381.224607 -167.218698 
L 383.318069 -168.756826 
L 385.411531 -170.294953 
L 387.504993 -171.83308 
L 389.598455 -173.371208 
L 391.691917 -174.909335 
L 393.785379 -176.447462 
L 395.878841 -177.98559 
L 397.972303 -179.523717 
L 400.065766 -181.061844 
L 402.159228 -182.599972 
L 404.25269 -184.138099 
L 406.346152 -185.676227 
L 408.439614 -187.214354 
L 410.533076 -188.752481 
L 412.626538 -190.290609 
L 412.626538 -145.503959 
L 412.626538 -145.503959 
L 410.533076 -144.418222 
L 408.439614 -143.332485 
L 406.346152 -142.246748 
L 404.25269 -141.161011 
L 402.159228 -140.075274 
L 400.065766 -138.989537 
L 397.972303 -137.9038 
L 395.878841 -136.818063 
L 393.785379 -135.732326 
L 391.691917 -134.646589 
L 389.598455 -133.560852 
L 387.504993 -132.475116 
L 385.411531 -131.389379 
L 383.318069 -130.303642 
L 381.224607 -129.217905 
L 379.131145 -128.132168 
L 377.037683 -127.046431 
L 374.944221 -125.960694 
L 372.850759 -124.874957 
L 370.757297 -123.78922 
L 368.663834 -122.703483 
L 366.570372 -121.617746 
L 364.47691 -120.532009 
L 362.383448 -119.446272 
L 360.289986 -118.360535 
L 358.196524 -117.274798 
L 356.103062 -116.189061 
L 354.0096 -115.103324 
L 351.916138 -114.017587 
L 349.822676 -112.93185 
L 347.729214 -111.846113 
L 345.635752 -110.760376 
L 343.54229 -109.674639 
L 341.448828 -108.588902 
L 339.355366 -107.503165 
L 337.261903 -106.417428 
L 335.168441 -105.331692 
L 333.074979 -104.245955 
L 330.981517 -103.160218 
L 328.888055 -102.074481 
L 326.794593 -100.988744 
L 324.701131 -99.903007 
L 322.607669 -98.81727 
L 320.514207 -97.731533 
L 318.420745 -96.645796 
L 316.327283 -95.560059 
L 314.233821 -94.474322 
L 312.140359 -93.388585 
L 310.046897 -92.302848 
L 307.953434 -91.217111 
L 305.859972 -90.131374 
L 303.76651 -89.045637 
L 301.673048 -87.9599 
L 299.579586 -86.874163 
L 297.486124 -85.788426 
L 295.392662 -84.702689 
L 293.2992 -83.616952 
L 291.205738 -82.531215 
L 289.112276 -81.445478 
L 287.018814 -80.359741 
L 284.925352 -79.274004 
L 282.83189 -78.188268 
L 280.738428 -77.102531 
L 278.644966 -76.016794 
L 276.551503 -74.931057 
L 274.458041 -73.84532 
L 272.364579 -72.759583 
L 270.271117 -71.673846 
L 268.177655 -70.588109 
L 266.084193 -69.502372 
L 263.990731 -68.416635 
L 261.897269 -67.330898 
L 259.803807 -66.245161 
L 257.710345 -65.159424 
L 255.616883 -64.073687 
L 253.523421 -62.98795 
L 251.429959 -61.902213 
L 249.336497 -60.816476 
L 247.243034 -59.730739 
L 245.149572 -58.645002 
L 243.05611 -57.559265 
L 240.962648 -56.473528 
L 238.869186 -55.387791 
L 236.775724 -54.302054 
L 234.682262 -53.216317 
L 232.5888 -52.13058 
L 230.495338 -51.044844 
L 228.401876 -49.959107 
L 226.308414 -48.87337 
L 224.214952 -47.787633 
L 222.12149 -46.701896 
L 220.028028 -45.616159 
L 217.934566 -44.530422 
L 215.841103 -43.444685 
L 213.747641 -42.358948 
L 211.654179 -41.273211 
L 209.560717 -40.187474 
L 207.467255 -39.101737 
L 205.373793 -38.016 
z
" style="stroke: #add8e6; stroke-opacity: 0.7"/>
    </defs>
    <g clip-path="url(#p8491ec2f81)">
     <use xlink:href="#mc5254b28c7" x="0" y="345.6" style="fill: #add8e6; fill-opacity: 0.7; stroke: #add8e6; stroke-opacity: 0.7"/>
    </g>
   </g>
   <g id="matplotlib.axis_3">
    <g id="xtick_5">
     <g id="line2d_33">
      <g>
       <use xlink:href="#m3eef872b03" x="205.373793" y="307.584" style="stroke: #000000; stroke-width: 0.8"/>
      </g>
     </g>
     <g id="line2d_34">
      <g>
       <use xlink:href="#m303053a14f" x="205.373793" y="41.472" style="stroke: #000000; stroke-width: 0.8"/>
      </g>
     </g>
     <g id="text_15">
      <text style="font: 14px 'DejaVu Sans', 'Bitstream Vera Sans', 'Computer Modern Sans Serif', 'Lucida Grande', 'Verdana', 'Geneva', 'Lucid', 'Arial', 'Helvetica', 'Avant Garde', sans-serif; text-anchor: middle" x="205.373793" y="321.721812" transform="rotate(-0 205.373793 321.721812)">0.00</text>
     </g>
    </g>
    <g id="xtick_6">
     <g id="line2d_35">
      <g>
       <use xlink:href="#m3eef872b03" x="257.710345" y="307.584" style="stroke: #000000; stroke-width: 0.8"/>
      </g>
     </g>
     <g id="line2d_36">
      <g>
       <use xlink:href="#m303053a14f" x="257.710345" y="41.472" style="stroke: #000000; stroke-width: 0.8"/>
      </g>
     </g>
     <g id="text_16">
      <text style="font: 14px 'DejaVu Sans', 'Bitstream Vera Sans', 'Computer Modern Sans Serif', 'Lucida Grande', 'Verdana', 'Geneva', 'Lucid', 'Arial', 'Helvetica', 'Avant Garde', sans-serif; text-anchor: middle" x="257.710345" y="321.721812" transform="rotate(-0 257.710345 321.721812)">0.25</text>
     </g>
    </g>
    <g id="xtick_7">
     <g id="line2d_37">
      <g>
       <use xlink:href="#m3eef872b03" x="310.046897" y="307.584" style="stroke: #000000; stroke-width: 0.8"/>
      </g>
     </g>
     <g id="line2d_38">
      <g>
       <use xlink:href="#m303053a14f" x="310.046897" y="41.472" style="stroke: #000000; stroke-width: 0.8"/>
      </g>
     </g>
     <g id="text_17">
      <text style="font: 14px 'DejaVu Sans', 'Bitstream Vera Sans', 'Computer Modern Sans Serif', 'Lucida Grande', 'Verdana', 'Geneva', 'Lucid', 'Arial', 'Helvetica', 'Avant Garde', sans-serif; text-anchor: middle" x="310.046897" y="321.721812" transform="rotate(-0 310.046897 321.721812)">0.50</text>
     </g>
    </g>
    <g id="xtick_8">
     <g id="line2d_39">
      <g>
       <use xlink:href="#m3eef872b03" x="362.383448" y="307.584" style="stroke: #000000; stroke-width: 0.8"/>
      </g>
     </g>
     <g id="line2d_40">
      <g>
       <use xlink:href="#m303053a14f" x="362.383448" y="41.472" style="stroke: #000000; stroke-width: 0.8"/>
      </g>
     </g>
     <g id="text_18">
      <text style="font: 14px 'DejaVu Sans', 'Bitstream Vera Sans', 'Computer Modern Sans Serif', 'Lucida Grande', 'Verdana', 'Geneva', 'Lucid', 'Arial', 'Helvetica', 'Avant Garde', sans-serif; text-anchor: middle" x="362.383448" y="321.721812" transform="rotate(-0 362.383448 321.721812)">0.75</text>
     </g>
    </g>
    <g id="xtick_9">
     <g id="line2d_41">
      <g>
       <use xlink:href="#m3eef872b03" x="414.72" y="307.584" style="stroke: #000000; stroke-width: 0.8"/>
      </g>
     </g>
     <g id="line2d_42">
      <g>
       <use xlink:href="#m303053a14f" x="414.72" y="41.472" style="stroke: #000000; stroke-width: 0.8"/>
      </g>
     </g>
     <g id="text_19">
      <text style="font: 14px 'DejaVu Sans', 'Bitstream Vera Sans', 'Computer Modern Sans Serif', 'Lucida Grande', 'Verdana', 'Geneva', 'Lucid', 'Arial', 'Helvetica', 'Avant Garde', sans-serif; text-anchor: middle" x="414.72" y="321.721812" transform="rotate(-0 414.72 321.721812)">1.00</text>
     </g>
    </g>
    <g id="text_20">
     <text style="font: 16px 'DejaVu Sans', 'Bitstream Vera Sans', 'Computer Modern Sans Serif', 'Lucida Grande', 'Verdana', 'Geneva', 'Lucid', 'Arial', 'Helvetica', 'Avant Garde', sans-serif; text-anchor: middle" x="310.046897" y="340.790875" transform="rotate(-0 310.046897 340.790875)">Fraction of Dimers</text>
    </g>
   </g>
   <g id="matplotlib.axis_4">
    <g id="ytick_10">
     <g id="line2d_43">
      <g>
       <use xlink:href="#m11f59d7eee" x="414.72" y="307.584" style="stroke: #000000; stroke-width: 0.8"/>
      </g>
     </g>
     <g id="text_21">
      <text style="font: 14px 'DejaVu Sans', 'Bitstream Vera Sans', 'Computer Modern Sans Serif', 'Lucida Grande', 'Verdana', 'Geneva', 'Lucid', 'Arial', 'Helvetica', 'Avant Garde', sans-serif; text-anchor: start" x="418.22" y="312.902906" transform="rotate(-0 418.22 312.902906)">0.0</text>
     </g>
    </g>
    <g id="ytick_11">
     <g id="line2d_44">
      <g>
       <use xlink:href="#m11f59d7eee" x="414.72" y="274.32" style="stroke: #000000; stroke-width: 0.8"/>
      </g>
     </g>
     <g id="text_22">
      <text style="font: 14px 'DejaVu Sans', 'Bitstream Vera Sans', 'Computer Modern Sans Serif', 'Lucida Grande', 'Verdana', 'Geneva', 'Lucid', 'Arial', 'Helvetica', 'Avant Garde', sans-serif; text-anchor: start" x="418.22" y="279.638906" transform="rotate(-0 418.22 279.638906)">0.1</text>
     </g>
    </g>
    <g id="ytick_12">
     <g id="line2d_45">
      <g>
       <use xlink:href="#m11f59d7eee" x="414.72" y="241.056" style="stroke: #000000; stroke-width: 0.8"/>
      </g>
     </g>
     <g id="text_23">
      <text style="font: 14px 'DejaVu Sans', 'Bitstream Vera Sans', 'Computer Modern Sans Serif', 'Lucida Grande', 'Verdana', 'Geneva', 'Lucid', 'Arial', 'Helvetica', 'Avant Garde', sans-serif; text-anchor: start" x="418.22" y="246.374906" transform="rotate(-0 418.22 246.374906)">0.2</text>
     </g>
    </g>
    <g id="ytick_13">
     <g id="line2d_46">
      <g>
       <use xlink:href="#m11f59d7eee" x="414.72" y="207.792" style="stroke: #000000; stroke-width: 0.8"/>
      </g>
     </g>
     <g id="text_24">
      <text style="font: 14px 'DejaVu Sans', 'Bitstream Vera Sans', 'Computer Modern Sans Serif', 'Lucida Grande', 'Verdana', 'Geneva', 'Lucid', 'Arial', 'Helvetica', 'Avant Garde', sans-serif; text-anchor: start" x="418.22" y="213.110906" transform="rotate(-0 418.22 213.110906)">0.3</text>
     </g>
    </g>
    <g id="ytick_14">
     <g id="line2d_47">
      <g>
       <use xlink:href="#m11f59d7eee" x="414.72" y="174.528" style="stroke: #000000; stroke-width: 0.8"/>
      </g>
     </g>
     <g id="text_25">
      <text style="font: 14px 'DejaVu Sans', 'Bitstream Vera Sans', 'Computer Modern Sans Serif', 'Lucida Grande', 'Verdana', 'Geneva', 'Lucid', 'Arial', 'Helvetica', 'Avant Garde', sans-serif; text-anchor: start" x="418.22" y="179.846906" transform="rotate(-0 418.22 179.846906)">0.4</text>
     </g>
    </g>
    <g id="ytick_15">
     <g id="line2d_48">
      <g>
       <use xlink:href="#m11f59d7eee" x="414.72" y="141.264" style="stroke: #000000; stroke-width: 0.8"/>
      </g>
     </g>
     <g id="text_26">
      <text style="font: 14px 'DejaVu Sans', 'Bitstream Vera Sans', 'Computer Modern Sans Serif', 'Lucida Grande', 'Verdana', 'Geneva', 'Lucid', 'Arial', 'Helvetica', 'Avant Garde', sans-serif; text-anchor: start" x="418.22" y="146.582906" transform="rotate(-0 418.22 146.582906)">0.5</text>
     </g>
    </g>
    <g id="ytick_16">
     <g id="line2d_49">
      <g>
       <use xlink:href="#m11f59d7eee" x="414.72" y="108" style="stroke: #000000; stroke-width: 0.8"/>
      </g>
     </g>
     <g id="text_27">
      <text style="font: 14px 'DejaVu Sans', 'Bitstream Vera Sans', 'Computer Modern Sans Serif', 'Lucida Grande', 'Verdana', 'Geneva', 'Lucid', 'Arial', 'Helvetica', 'Avant Garde', sans-serif; text-anchor: start" x="418.22" y="113.318906" transform="rotate(-0 418.22 113.318906)">0.6</text>
     </g>
    </g>
    <g id="ytick_17">
     <g id="line2d_50">
      <g>
       <use xlink:href="#m11f59d7eee" x="414.72" y="74.736" style="stroke: #000000; stroke-width: 0.8"/>
      </g>
     </g>
     <g id="text_28">
      <text style="font: 14px 'DejaVu Sans', 'Bitstream Vera Sans', 'Computer Modern Sans Serif', 'Lucida Grande', 'Verdana', 'Geneva', 'Lucid', 'Arial', 'Helvetica', 'Avant Garde', sans-serif; text-anchor: start" x="418.22" y="80.054906" transform="rotate(-0 418.22 80.054906)">0.7</text>
     </g>
    </g>
    <g id="ytick_18">
     <g id="line2d_51">
      <g>
       <use xlink:href="#m11f59d7eee" x="414.72" y="41.472" style="stroke: #000000; stroke-width: 0.8"/>
      </g>
     </g>
     <g id="text_29">
      <text style="font: 14px 'DejaVu Sans', 'Bitstream Vera Sans', 'Computer Modern Sans Serif', 'Lucida Grande', 'Verdana', 'Geneva', 'Lucid', 'Arial', 'Helvetica', 'Avant Garde', sans-serif; text-anchor: start" x="418.22" y="46.790906" transform="rotate(-0 418.22 46.790906)">0.8</text>
     </g>
    </g>
   </g>
   <g id="line2d_52">
    <path d="M 205.373793 261.927529 
L 414.72 261.927529 
" clip-path="url(#p8491ec2f81)" style="fill: none; stroke-dasharray: 5.55,2.4; stroke-dashoffset: 0; stroke: #000000; stroke-width: 1.5"/>
   </g>
   <g id="line2d_53">
    <path d="M 205.373793 177.136941 
L 414.72 177.136941 
" clip-path="url(#p8491ec2f81)" style="fill: none; stroke-dasharray: 5.55,2.4; stroke-dashoffset: 0; stroke: #ff0000; stroke-width: 1.5"/>
   </g>
   <g id="line2d_54">
    <path d="M 205.373793 151.047529 
L 414.72 151.047529 
" clip-path="url(#p8491ec2f81)" style="fill: none; stroke-dasharray: 5.55,2.4; stroke-dashoffset: 0; stroke: #0000ff; stroke-width: 1.5"/>
   </g>
   <g id="patch_12">
    <path d="M 205.373793 307.584 
L 205.373793 41.472 
" style="fill: none; stroke: #000000; stroke-width: 0.8; stroke-linejoin: miter; stroke-linecap: square"/>
   </g>
   <g id="patch_13">
    <path d="M 414.72 307.584 
L 414.72 41.472 
" style="fill: none; stroke: #000000; stroke-width: 0.8; stroke-linejoin: miter; stroke-linecap: square"/>
   </g>
   <g id="patch_14">
    <path d="M 205.373793 307.584 
L 414.72 307.584 
" style="fill: none; stroke: #000000; stroke-width: 0.8; stroke-linejoin: miter; stroke-linecap: square"/>
   </g>
   <g id="patch_15">
    <path d="M 205.373793 41.472 
L 414.72 41.472 
" style="fill: none; stroke: #000000; stroke-width: 0.8; stroke-linejoin: miter; stroke-linecap: square"/>
   </g>
  </g>
 </g>
 <defs>
  <clipPath id="p4856b0ea83">
   <rect x="57.6" y="41.472" width="135.45931" height="266.112"/>
  </clipPath>
  <clipPath id="p8491ec2f81">
   <rect x="205.373793" y="41.472" width="209.346207" height="266.112"/>
  </clipPath>
 </defs>
</svg>
