<?xml version="1.0" encoding="utf-8" standalone="no"?>
<!DOCTYPE svg PUBLIC "-//W3C//DTD SVG 1.1//EN"
  "http://www.w3.org/Graphics/SVG/1.1/DTD/svg11.dtd">
<svg xmlns:xlink="http://www.w3.org/1999/xlink" width="144pt" height="216pt" viewBox="0 0 144 216" xmlns="http://www.w3.org/2000/svg" version="1.1">
 <metadata>
  <rdf:RDF xmlns:dc="http://purl.org/dc/elements/1.1/" xmlns:cc="http://creativecommons.org/ns#" xmlns:rdf="http://www.w3.org/1999/02/22-rdf-syntax-ns#">
   <cc:Work>
    <dc:type rdf:resource="http://purl.org/dc/dcmitype/StillImage"/>
    <dc:date>2023-02-13T18:13:05.174321</dc:date>
    <dc:format>image/svg+xml</dc:format>
    <dc:creator>
     <cc:Agent>
      <dc:title>Matplotlib v3.6.2, https://matplotlib.org/</dc:title>
     </cc:Agent>
    </dc:creator>
   </cc:Work>
  </rdf:RDF>
 </metadata>
 <defs>
  <style type="text/css">*{stroke-linejoin: round; stroke-linecap: butt}</style>
 </defs>
 <g id="figure_1">
  <g id="patch_1">
   <path d="M 0 216 
L 144 216 
L 144 0 
L 0 0 
L 0 216 
z
" style="fill: none"/>
  </g>
  <g id="axes_1">
   <g id="patch_2">
    <path d="M 18 192.24 
L 129.6 192.24 
L 129.6 25.92 
L 18 25.92 
L 18 192.24 
z
" style="fill: none"/>
   </g>
   <g id="matplotlib.axis_1">
    <g id="xtick_1">
     <g id="line2d_1">
      <defs>
       <path id="m7b34a95d4f" d="M 0 0 
L 0 -3.5 
" style="stroke: #000000; stroke-width: 0.8"/>
      </defs>
      <g>
       <use xlink:href="#m7b34a95d4f" x="63.145462" y="192.24" style="stroke: #000000; stroke-width: 0.8"/>
      </g>
     </g>
     <g id="line2d_2">
      <defs>
       <path id="m1513b3724a" d="M 0 0 
L 0 3.5 
" style="stroke: #000000; stroke-width: 0.8"/>
      </defs>
      <g>
       <use xlink:href="#m1513b3724a" x="63.145462" y="25.92" style="stroke: #000000; stroke-width: 0.8"/>
      </g>
     </g>
     <g id="text_1">
      <!-- $\mathdefault{10^{0}}$ -->
      <g transform="translate(50.825462 206.377813)">
       <text>
        <tspan style="font: 14px 'DejaVu Sans'" x="0 8.907227" y="-0.3671875">10</tspan>
        <tspan style="font: 9.8px 'DejaVu Sans'" x="17.948438" y="-5.7265625">0</tspan>
       </text>
      </g>
     </g>
    </g>
    <g id="xtick_2">
     <g id="line2d_3">
      <g>
       <use xlink:href="#m7b34a95d4f" x="119.650038" y="192.24" style="stroke: #000000; stroke-width: 0.8"/>
      </g>
     </g>
     <g id="line2d_4">
      <g>
       <use xlink:href="#m1513b3724a" x="119.650038" y="25.92" style="stroke: #000000; stroke-width: 0.8"/>
      </g>
     </g>
     <g id="text_2">
      <!-- $\mathdefault{10^{1}}$ -->
      <g transform="translate(107.330038 206.377813)">
       <text>
        <tspan style="font: 14px 'DejaVu Sans'" x="0 8.907227" y="-0.4984375000000014">10</tspan>
        <tspan style="font: 9.8px 'DejaVu Sans'" x="17.948438" y="-5.857812500000001">1</tspan>
       </text>
      </g>
     </g>
    </g>
    <g id="xtick_3">
     <g id="line2d_5">
      <defs>
       <path id="m435b7a1b81" d="M 0 0 
L 0 -2 
" style="stroke: #000000; stroke-width: 0.6"/>
      </defs>
      <g>
       <use xlink:href="#m435b7a1b81" x="23.650458" y="192.24" style="stroke: #000000; stroke-width: 0.6"/>
      </g>
     </g>
     <g id="line2d_6">
      <defs>
       <path id="m12db51bbc3" d="M 0 0 
L 0 2 
" style="stroke: #000000; stroke-width: 0.6"/>
      </defs>
      <g>
       <use xlink:href="#m12db51bbc3" x="23.650458" y="25.92" style="stroke: #000000; stroke-width: 0.6"/>
      </g>
     </g>
    </g>
    <g id="xtick_4">
     <g id="line2d_7">
      <g>
       <use xlink:href="#m435b7a1b81" x="33.60042" y="192.24" style="stroke: #000000; stroke-width: 0.6"/>
      </g>
     </g>
     <g id="line2d_8">
      <g>
       <use xlink:href="#m12db51bbc3" x="33.60042" y="25.92" style="stroke: #000000; stroke-width: 0.6"/>
      </g>
     </g>
    </g>
    <g id="xtick_5">
     <g id="line2d_9">
      <g>
       <use xlink:href="#m435b7a1b81" x="40.66003" y="192.24" style="stroke: #000000; stroke-width: 0.6"/>
      </g>
     </g>
     <g id="line2d_10">
      <g>
       <use xlink:href="#m12db51bbc3" x="40.66003" y="25.92" style="stroke: #000000; stroke-width: 0.6"/>
      </g>
     </g>
    </g>
    <g id="xtick_6">
     <g id="line2d_11">
      <g>
       <use xlink:href="#m435b7a1b81" x="46.135889" y="192.24" style="stroke: #000000; stroke-width: 0.6"/>
      </g>
     </g>
     <g id="line2d_12">
      <g>
       <use xlink:href="#m12db51bbc3" x="46.135889" y="25.92" style="stroke: #000000; stroke-width: 0.6"/>
      </g>
     </g>
    </g>
    <g id="xtick_7">
     <g id="line2d_13">
      <g>
       <use xlink:href="#m435b7a1b81" x="50.609992" y="192.24" style="stroke: #000000; stroke-width: 0.6"/>
      </g>
     </g>
     <g id="line2d_14">
      <g>
       <use xlink:href="#m12db51bbc3" x="50.609992" y="25.92" style="stroke: #000000; stroke-width: 0.6"/>
      </g>
     </g>
    </g>
    <g id="xtick_8">
     <g id="line2d_15">
      <g>
       <use xlink:href="#m435b7a1b81" x="54.392792" y="192.24" style="stroke: #000000; stroke-width: 0.6"/>
      </g>
     </g>
     <g id="line2d_16">
      <g>
       <use xlink:href="#m12db51bbc3" x="54.392792" y="25.92" style="stroke: #000000; stroke-width: 0.6"/>
      </g>
     </g>
    </g>
    <g id="xtick_9">
     <g id="line2d_17">
      <g>
       <use xlink:href="#m435b7a1b81" x="57.669602" y="192.24" style="stroke: #000000; stroke-width: 0.6"/>
      </g>
     </g>
     <g id="line2d_18">
      <g>
       <use xlink:href="#m12db51bbc3" x="57.669602" y="25.92" style="stroke: #000000; stroke-width: 0.6"/>
      </g>
     </g>
    </g>
    <g id="xtick_10">
     <g id="line2d_19">
      <g>
       <use xlink:href="#m435b7a1b81" x="60.559954" y="192.24" style="stroke: #000000; stroke-width: 0.6"/>
      </g>
     </g>
     <g id="line2d_20">
      <g>
       <use xlink:href="#m12db51bbc3" x="60.559954" y="25.92" style="stroke: #000000; stroke-width: 0.6"/>
      </g>
     </g>
    </g>
    <g id="xtick_11">
     <g id="line2d_21">
      <g>
       <use xlink:href="#m435b7a1b81" x="80.155034" y="192.24" style="stroke: #000000; stroke-width: 0.6"/>
      </g>
     </g>
     <g id="line2d_22">
      <g>
       <use xlink:href="#m12db51bbc3" x="80.155034" y="25.92" style="stroke: #000000; stroke-width: 0.6"/>
      </g>
     </g>
    </g>
    <g id="xtick_12">
     <g id="line2d_23">
      <g>
       <use xlink:href="#m435b7a1b81" x="90.104996" y="192.24" style="stroke: #000000; stroke-width: 0.6"/>
      </g>
     </g>
     <g id="line2d_24">
      <g>
       <use xlink:href="#m12db51bbc3" x="90.104996" y="25.92" style="stroke: #000000; stroke-width: 0.6"/>
      </g>
     </g>
    </g>
    <g id="xtick_13">
     <g id="line2d_25">
      <g>
       <use xlink:href="#m435b7a1b81" x="97.164606" y="192.24" style="stroke: #000000; stroke-width: 0.6"/>
      </g>
     </g>
     <g id="line2d_26">
      <g>
       <use xlink:href="#m12db51bbc3" x="97.164606" y="25.92" style="stroke: #000000; stroke-width: 0.6"/>
      </g>
     </g>
    </g>
    <g id="xtick_14">
     <g id="line2d_27">
      <g>
       <use xlink:href="#m435b7a1b81" x="102.640466" y="192.24" style="stroke: #000000; stroke-width: 0.6"/>
      </g>
     </g>
     <g id="line2d_28">
      <g>
       <use xlink:href="#m12db51bbc3" x="102.640466" y="25.92" style="stroke: #000000; stroke-width: 0.6"/>
      </g>
     </g>
    </g>
    <g id="xtick_15">
     <g id="line2d_29">
      <g>
       <use xlink:href="#m435b7a1b81" x="107.114568" y="192.24" style="stroke: #000000; stroke-width: 0.6"/>
      </g>
     </g>
     <g id="line2d_30">
      <g>
       <use xlink:href="#m12db51bbc3" x="107.114568" y="25.92" style="stroke: #000000; stroke-width: 0.6"/>
      </g>
     </g>
    </g>
    <g id="xtick_16">
     <g id="line2d_31">
      <g>
       <use xlink:href="#m435b7a1b81" x="110.897368" y="192.24" style="stroke: #000000; stroke-width: 0.6"/>
      </g>
     </g>
     <g id="line2d_32">
      <g>
       <use xlink:href="#m12db51bbc3" x="110.897368" y="25.92" style="stroke: #000000; stroke-width: 0.6"/>
      </g>
     </g>
    </g>
    <g id="xtick_17">
     <g id="line2d_33">
      <g>
       <use xlink:href="#m435b7a1b81" x="114.174179" y="192.24" style="stroke: #000000; stroke-width: 0.6"/>
      </g>
     </g>
     <g id="line2d_34">
      <g>
       <use xlink:href="#m12db51bbc3" x="114.174179" y="25.92" style="stroke: #000000; stroke-width: 0.6"/>
      </g>
     </g>
    </g>
    <g id="xtick_18">
     <g id="line2d_35">
      <g>
       <use xlink:href="#m435b7a1b81" x="117.06453" y="192.24" style="stroke: #000000; stroke-width: 0.6"/>
      </g>
     </g>
     <g id="line2d_36">
      <g>
       <use xlink:href="#m12db51bbc3" x="117.06453" y="25.92" style="stroke: #000000; stroke-width: 0.6"/>
      </g>
     </g>
    </g>
    <g id="text_3">
     <text style="font: 16px 'DejaVu Sans', 'Bitstream Vera Sans', 'Computer Modern Sans Serif', 'Lucida Grande', 'Verdana', 'Geneva', 'Lucid', 'Arial', 'Helvetica', 'Avant Garde', sans-serif; text-anchor: middle" x="73.8" y="225.446875" transform="rotate(-0 73.8 225.446875)">lag time (s)</text>
    </g>
   </g>
   <g id="matplotlib.axis_2">
    <g id="ytick_1">
     <g id="line2d_37">
      <defs>
       <path id="m63a04e847b" d="M 0 0 
L 3.5 0 
" style="stroke: #000000; stroke-width: 0.8"/>
      </defs>
      <g>
       <use xlink:href="#m63a04e847b" x="18" y="166.524431" style="stroke: #000000; stroke-width: 0.8"/>
      </g>
     </g>
     <g id="line2d_38">
      <defs>
       <path id="mbec07f2fa4" d="M 0 0 
L -3.5 0 
" style="stroke: #000000; stroke-width: 0.8"/>
      </defs>
      <g>
       <use xlink:href="#mbec07f2fa4" x="129.6" y="166.524431" style="stroke: #000000; stroke-width: 0.8"/>
      </g>
     </g>
     <g id="text_4">
      <!-- $\mathdefault{10^{-1}}$ -->
      <g transform="translate(-18.4 171.843337)">
       <text>
        <tspan style="font: 14px 'DejaVu Sans'" x="0 8.907227" y="-0.4984375000000014">10</tspan>
        <tspan style="font: 9.8px 'DejaVu Sans'" x="17.948438 26.159766" y="-5.857812500000001">−1</tspan>
       </text>
      </g>
     </g>
    </g>
    <g id="ytick_2">
     <g id="line2d_39">
      <g>
       <use xlink:href="#m63a04e847b" x="18" y="114.428842" style="stroke: #000000; stroke-width: 0.8"/>
      </g>
     </g>
     <g id="line2d_40">
      <g>
       <use xlink:href="#mbec07f2fa4" x="129.6" y="114.428842" style="stroke: #000000; stroke-width: 0.8"/>
      </g>
     </g>
     <g id="text_5">
      <!-- $\mathdefault{10^{0}}$ -->
      <g transform="translate(-10.14 119.747749)">
       <text>
        <tspan style="font: 14px 'DejaVu Sans'" x="0 8.907227" y="-0.3671875">10</tspan>
        <tspan style="font: 9.8px 'DejaVu Sans'" x="17.948438" y="-5.7265625">0</tspan>
       </text>
      </g>
     </g>
    </g>
    <g id="ytick_3">
     <g id="line2d_41">
      <g>
       <use xlink:href="#m63a04e847b" x="18" y="62.333254" style="stroke: #000000; stroke-width: 0.8"/>
      </g>
     </g>
     <g id="line2d_42">
      <g>
       <use xlink:href="#mbec07f2fa4" x="129.6" y="62.333254" style="stroke: #000000; stroke-width: 0.8"/>
      </g>
     </g>
     <g id="text_6">
      <!-- $\mathdefault{10^{1}}$ -->
      <g transform="translate(-10.14 67.65216)">
       <text>
        <tspan style="font: 14px 'DejaVu Sans'" x="0 8.907227" y="-0.4984375000000014">10</tspan>
        <tspan style="font: 9.8px 'DejaVu Sans'" x="17.948438" y="-5.857812500000001">1</tspan>
       </text>
      </g>
     </g>
    </g>
    <g id="ytick_4">
     <g id="line2d_43">
      <defs>
       <path id="m4f3bd01824" d="M 0 0 
L 2 0 
" style="stroke: #000000; stroke-width: 0.6"/>
      </defs>
      <g>
       <use xlink:href="#m4f3bd01824" x="18" y="187.25535" style="stroke: #000000; stroke-width: 0.6"/>
      </g>
     </g>
     <g id="line2d_44">
      <defs>
       <path id="m408a543683" d="M 0 0 
L -2 0 
" style="stroke: #000000; stroke-width: 0.6"/>
      </defs>
      <g>
       <use xlink:href="#m408a543683" x="129.6" y="187.25535" style="stroke: #000000; stroke-width: 0.6"/>
      </g>
     </g>
    </g>
    <g id="ytick_5">
     <g id="line2d_45">
      <g>
       <use xlink:href="#m4f3bd01824" x="18" y="182.206766" style="stroke: #000000; stroke-width: 0.6"/>
      </g>
     </g>
     <g id="line2d_46">
      <g>
       <use xlink:href="#m408a543683" x="129.6" y="182.206766" style="stroke: #000000; stroke-width: 0.6"/>
      </g>
     </g>
    </g>
    <g id="ytick_6">
     <g id="line2d_47">
      <g>
       <use xlink:href="#m4f3bd01824" x="18" y="178.081772" style="stroke: #000000; stroke-width: 0.6"/>
      </g>
     </g>
     <g id="line2d_48">
      <g>
       <use xlink:href="#m408a543683" x="129.6" y="178.081772" style="stroke: #000000; stroke-width: 0.6"/>
      </g>
     </g>
    </g>
    <g id="ytick_7">
     <g id="line2d_49">
      <g>
       <use xlink:href="#m4f3bd01824" x="18" y="174.59414" style="stroke: #000000; stroke-width: 0.6"/>
      </g>
     </g>
     <g id="line2d_50">
      <g>
       <use xlink:href="#m408a543683" x="129.6" y="174.59414" style="stroke: #000000; stroke-width: 0.6"/>
      </g>
     </g>
    </g>
    <g id="ytick_8">
     <g id="line2d_51">
      <g>
       <use xlink:href="#m4f3bd01824" x="18" y="171.573015" style="stroke: #000000; stroke-width: 0.6"/>
      </g>
     </g>
     <g id="line2d_52">
      <g>
       <use xlink:href="#m408a543683" x="129.6" y="171.573015" style="stroke: #000000; stroke-width: 0.6"/>
      </g>
     </g>
    </g>
    <g id="ytick_9">
     <g id="line2d_53">
      <g>
       <use xlink:href="#m4f3bd01824" x="18" y="168.908194" style="stroke: #000000; stroke-width: 0.6"/>
      </g>
     </g>
     <g id="line2d_54">
      <g>
       <use xlink:href="#m408a543683" x="129.6" y="168.908194" style="stroke: #000000; stroke-width: 0.6"/>
      </g>
     </g>
    </g>
    <g id="ytick_10">
     <g id="line2d_55">
      <g>
       <use xlink:href="#m4f3bd01824" x="18" y="150.842096" style="stroke: #000000; stroke-width: 0.6"/>
      </g>
     </g>
     <g id="line2d_56">
      <g>
       <use xlink:href="#m408a543683" x="129.6" y="150.842096" style="stroke: #000000; stroke-width: 0.6"/>
      </g>
     </g>
    </g>
    <g id="ytick_11">
     <g id="line2d_57">
      <g>
       <use xlink:href="#m4f3bd01824" x="18" y="141.668518" style="stroke: #000000; stroke-width: 0.6"/>
      </g>
     </g>
     <g id="line2d_58">
      <g>
       <use xlink:href="#m408a543683" x="129.6" y="141.668518" style="stroke: #000000; stroke-width: 0.6"/>
      </g>
     </g>
    </g>
    <g id="ytick_12">
     <g id="line2d_59">
      <g>
       <use xlink:href="#m4f3bd01824" x="18" y="135.159761" style="stroke: #000000; stroke-width: 0.6"/>
      </g>
     </g>
     <g id="line2d_60">
      <g>
       <use xlink:href="#m408a543683" x="129.6" y="135.159761" style="stroke: #000000; stroke-width: 0.6"/>
      </g>
     </g>
    </g>
    <g id="ytick_13">
     <g id="line2d_61">
      <g>
       <use xlink:href="#m4f3bd01824" x="18" y="130.111177" style="stroke: #000000; stroke-width: 0.6"/>
      </g>
     </g>
     <g id="line2d_62">
      <g>
       <use xlink:href="#m408a543683" x="129.6" y="130.111177" style="stroke: #000000; stroke-width: 0.6"/>
      </g>
     </g>
    </g>
    <g id="ytick_14">
     <g id="line2d_63">
      <g>
       <use xlink:href="#m4f3bd01824" x="18" y="125.986184" style="stroke: #000000; stroke-width: 0.6"/>
      </g>
     </g>
     <g id="line2d_64">
      <g>
       <use xlink:href="#m408a543683" x="129.6" y="125.986184" style="stroke: #000000; stroke-width: 0.6"/>
      </g>
     </g>
    </g>
    <g id="ytick_15">
     <g id="line2d_65">
      <g>
       <use xlink:href="#m4f3bd01824" x="18" y="122.498551" style="stroke: #000000; stroke-width: 0.6"/>
      </g>
     </g>
     <g id="line2d_66">
      <g>
       <use xlink:href="#m408a543683" x="129.6" y="122.498551" style="stroke: #000000; stroke-width: 0.6"/>
      </g>
     </g>
    </g>
    <g id="ytick_16">
     <g id="line2d_67">
      <g>
       <use xlink:href="#m4f3bd01824" x="18" y="119.477427" style="stroke: #000000; stroke-width: 0.6"/>
      </g>
     </g>
     <g id="line2d_68">
      <g>
       <use xlink:href="#m408a543683" x="129.6" y="119.477427" style="stroke: #000000; stroke-width: 0.6"/>
      </g>
     </g>
    </g>
    <g id="ytick_17">
     <g id="line2d_69">
      <g>
       <use xlink:href="#m4f3bd01824" x="18" y="116.812606" style="stroke: #000000; stroke-width: 0.6"/>
      </g>
     </g>
     <g id="line2d_70">
      <g>
       <use xlink:href="#m408a543683" x="129.6" y="116.812606" style="stroke: #000000; stroke-width: 0.6"/>
      </g>
     </g>
    </g>
    <g id="ytick_18">
     <g id="line2d_71">
      <g>
       <use xlink:href="#m4f3bd01824" x="18" y="98.746508" style="stroke: #000000; stroke-width: 0.6"/>
      </g>
     </g>
     <g id="line2d_72">
      <g>
       <use xlink:href="#m408a543683" x="129.6" y="98.746508" style="stroke: #000000; stroke-width: 0.6"/>
      </g>
     </g>
    </g>
    <g id="ytick_19">
     <g id="line2d_73">
      <g>
       <use xlink:href="#m4f3bd01824" x="18" y="89.57293" style="stroke: #000000; stroke-width: 0.6"/>
      </g>
     </g>
     <g id="line2d_74">
      <g>
       <use xlink:href="#m408a543683" x="129.6" y="89.57293" style="stroke: #000000; stroke-width: 0.6"/>
      </g>
     </g>
    </g>
    <g id="ytick_20">
     <g id="line2d_75">
      <g>
       <use xlink:href="#m4f3bd01824" x="18" y="83.064173" style="stroke: #000000; stroke-width: 0.6"/>
      </g>
     </g>
     <g id="line2d_76">
      <g>
       <use xlink:href="#m408a543683" x="129.6" y="83.064173" style="stroke: #000000; stroke-width: 0.6"/>
      </g>
     </g>
    </g>
    <g id="ytick_21">
     <g id="line2d_77">
      <g>
       <use xlink:href="#m4f3bd01824" x="18" y="78.015589" style="stroke: #000000; stroke-width: 0.6"/>
      </g>
     </g>
     <g id="line2d_78">
      <g>
       <use xlink:href="#m408a543683" x="129.6" y="78.015589" style="stroke: #000000; stroke-width: 0.6"/>
      </g>
     </g>
    </g>
    <g id="ytick_22">
     <g id="line2d_79">
      <g>
       <use xlink:href="#m4f3bd01824" x="18" y="73.890595" style="stroke: #000000; stroke-width: 0.6"/>
      </g>
     </g>
     <g id="line2d_80">
      <g>
       <use xlink:href="#m408a543683" x="129.6" y="73.890595" style="stroke: #000000; stroke-width: 0.6"/>
      </g>
     </g>
    </g>
    <g id="ytick_23">
     <g id="line2d_81">
      <g>
       <use xlink:href="#m4f3bd01824" x="18" y="70.402963" style="stroke: #000000; stroke-width: 0.6"/>
      </g>
     </g>
     <g id="line2d_82">
      <g>
       <use xlink:href="#m408a543683" x="129.6" y="70.402963" style="stroke: #000000; stroke-width: 0.6"/>
      </g>
     </g>
    </g>
    <g id="ytick_24">
     <g id="line2d_83">
      <g>
       <use xlink:href="#m4f3bd01824" x="18" y="67.381838" style="stroke: #000000; stroke-width: 0.6"/>
      </g>
     </g>
     <g id="line2d_84">
      <g>
       <use xlink:href="#m408a543683" x="129.6" y="67.381838" style="stroke: #000000; stroke-width: 0.6"/>
      </g>
     </g>
    </g>
    <g id="ytick_25">
     <g id="line2d_85">
      <g>
       <use xlink:href="#m4f3bd01824" x="18" y="64.717017" style="stroke: #000000; stroke-width: 0.6"/>
      </g>
     </g>
     <g id="line2d_86">
      <g>
       <use xlink:href="#m408a543683" x="129.6" y="64.717017" style="stroke: #000000; stroke-width: 0.6"/>
      </g>
     </g>
    </g>
    <g id="ytick_26">
     <g id="line2d_87">
      <g>
       <use xlink:href="#m4f3bd01824" x="18" y="46.650919" style="stroke: #000000; stroke-width: 0.6"/>
      </g>
     </g>
     <g id="line2d_88">
      <g>
       <use xlink:href="#m408a543683" x="129.6" y="46.650919" style="stroke: #000000; stroke-width: 0.6"/>
      </g>
     </g>
    </g>
    <g id="ytick_27">
     <g id="line2d_89">
      <g>
       <use xlink:href="#m4f3bd01824" x="18" y="37.477341" style="stroke: #000000; stroke-width: 0.6"/>
      </g>
     </g>
     <g id="line2d_90">
      <g>
       <use xlink:href="#m408a543683" x="129.6" y="37.477341" style="stroke: #000000; stroke-width: 0.6"/>
      </g>
     </g>
    </g>
    <g id="ytick_28">
     <g id="line2d_91">
      <g>
       <use xlink:href="#m4f3bd01824" x="18" y="30.968584" style="stroke: #000000; stroke-width: 0.6"/>
      </g>
     </g>
     <g id="line2d_92">
      <g>
       <use xlink:href="#m408a543683" x="129.6" y="30.968584" style="stroke: #000000; stroke-width: 0.6"/>
      </g>
     </g>
    </g>
    <g id="ytick_29">
     <g id="line2d_93">
      <g>
       <use xlink:href="#m4f3bd01824" x="18" y="25.92" style="stroke: #000000; stroke-width: 0.6"/>
      </g>
     </g>
     <g id="line2d_94">
      <g>
       <use xlink:href="#m408a543683" x="129.6" y="25.92" style="stroke: #000000; stroke-width: 0.6"/>
      </g>
     </g>
    </g>
    <g id="text_7">
     <text style="font: 16px 'DejaVu Sans', 'Bitstream Vera Sans', 'Computer Modern Sans Serif', 'Lucida Grande', 'Verdana', 'Geneva', 'Lucid', 'Arial', 'Helvetica', 'Avant Garde', sans-serif; text-anchor: middle" x="-25.7275" y="109.08" transform="rotate(-90 -25.7275 109.08)">msd^2 (um^2)</text>
    </g>
   </g>
   <g id="line2d_95">
    <path d="M 23.650458 167.480214 
L 40.66003 156.387716 
L 50.609992 151.57531 
L 57.669602 145.237566 
L 63.145462 146.218646 
L 67.619564 143.060738 
L 71.402364 138.981988 
L 74.679175 134.339294 
L 77.569526 127.514631 
L 80.155034 125.471043 
L 82.49391 121.369947 
L 84.629137 116.898072 
L 86.593355 114.358724 
L 88.411937 113.125394 
L 90.104996 110.361454 
L 91.688747 107.588405 
L 93.176453 102.795845 
L 94.579099 100.73287 
L 95.905888 99.272226 
L 97.164606 97.85299 
L 98.361899 95.491434 
L 99.503483 91.718772 
L 100.594312 90.672546 
L 101.638709 89.133152 
L 102.640466 88.006792 
L 103.602927 86.098012 
L 104.529061 84.106146 
L 105.421509 83.573612 
L 106.282637 82.281912 
L 107.114568 81.299764 
L 107.919218 79.66266 
L 108.69832 77.862939 
L 109.453445 78.165772 
L 110.186025 77.683908 
L 110.897368 77.971793 
L 111.588671 80.466058 
L 112.261032 74.240901 
L 112.915461 75.26896 
L 113.552889 77.373974 
" clip-path="url(#p502542f7f2)" style="fill: none; stroke: #1f77b4; stroke-opacity: 0.5; stroke-width: 1.5; stroke-linecap: square"/>
   </g>
   <g id="line2d_96">
    <path d="M 23.650458 172.960599 
L 40.66003 162.178794 
L 50.609992 155.383219 
L 57.669602 149.256825 
L 63.145462 141.449298 
L 67.619564 136.641621 
L 71.402364 130.881037 
L 74.679175 128.095388 
L 77.569526 123.429769 
L 80.155034 117.710354 
L 82.49391 115.069916 
L 84.629137 111.395897 
L 86.593355 108.432898 
L 88.411937 104.939752 
L 90.104996 101.473133 
L 91.688747 99.343836 
L 93.176453 96.289164 
L 94.579099 94.029314 
L 95.905888 90.632285 
L 97.164606 89.286242 
L 98.361899 86.614442 
L 99.503483 83.985572 
L 100.594312 82.295662 
L 101.638709 79.813581 
L 102.640466 78.49214 
L 103.602927 76.136335 
L 104.529061 74.693958 
L 105.421509 72.875849 
L 106.282637 71.007024 
L 107.114568 69.040851 
L 107.919218 67.501602 
L 108.69832 66.181063 
L 109.453445 64.637157 
L 110.186025 63.356195 
L 110.897368 62.622087 
L 111.588671 60.75432 
L 112.261032 60.30614 
L 112.915461 58.514528 
L 113.552889 57.744089 
L 114.174179 56.476999 
L 114.780126 55.262114 
L 115.371471 54.301547 
L 115.948901 53.160856 
L 116.513055 52.033885 
L 117.06453 51.068385 
L 117.603885 50.146428 
L 118.131639 49.036385 
L 118.648282 48.186957 
L 119.154271 47.529068 
L 119.650038 46.63075 
L 120.135987 45.861376 
L 120.6125 45.083206 
L 121.079935 44.312021 
L 121.538633 43.70738 
L 121.988914 42.996599 
L 122.431082 42.445761 
L 122.865423 41.934741 
L 123.292209 41.402484 
L 123.7117 40.619332 
L 124.124141 40.275029 
L 124.529764 39.494777 
L 124.928791 39.064948 
L 125.321433 38.467944 
L 125.707892 38.000412 
L 126.088359 37.173851 
L 126.463017 37.153175 
L 126.832041 36.138709 
L 127.195597 35.12853 
L 127.553847 34.657467 
L 127.906941 33.770435 
L 128.255026 32.958628 
L 128.598244 32.882235 
L 128.936726 31.946745 
L 129.270604 31.820882 
L 129.6 30.874363 
L 129.925033 30.153207 
L 130.245817 30.221403 
L 130.562462 29.36852 
L 130.875073 28.386159 
L 131.183751 29.869887 
L 131.488595 29.121942 
" clip-path="url(#p502542f7f2)" style="fill: none; stroke: #ff7f0e; stroke-opacity: 0.5; stroke-width: 1.5; stroke-linecap: square"/>
   </g>
   <g id="line2d_97">
    <path d="M 23.650458 182.454566 
L 40.66003 175.946898 
L 50.609992 162.807514 
L 57.669602 153.235489 
L 63.145462 144.760489 
L 67.619564 138.660248 
L 71.402364 133.41339 
L 74.679175 128.768262 
L 77.569526 123.920842 
L 80.155034 119.990651 
L 82.49391 116.387211 
L 84.629137 112.991071 
L 86.593355 109.893604 
L 88.411937 107.113723 
L 90.104996 104.641219 
L 91.688747 101.43489 
L 93.176453 99.062681 
L 94.579099 95.93905 
L 95.905888 93.571969 
L 97.164606 91.316121 
L 98.361899 88.985534 
L 99.503483 86.688633 
L 100.594312 84.77977 
L 101.638709 82.891976 
L 102.640466 80.886944 
L 103.602927 79.144775 
L 104.529061 77.584439 
L 105.421509 76.056871 
L 106.282637 74.314114 
L 107.114568 73.04671 
L 107.919218 71.672074 
L 108.69832 70.216439 
L 109.453445 68.826523 
L 110.186025 67.985144 
L 110.897368 66.537921 
L 111.588671 65.555473 
L 112.261032 64.010755 
L 112.915461 62.521614 
L 113.552889 61.090469 
L 114.174179 59.746549 
L 114.780126 58.404981 
L 115.371471 56.986532 
L 115.948901 56.015672 
L 116.513055 54.267209 
L 117.06453 53.301006 
L 117.603885 51.452499 
L 118.131639 50.184375 
L 118.648282 49.35275 
L 119.154271 47.568882 
L 119.650038 46.009305 
" clip-path="url(#p502542f7f2)" style="fill: none; stroke: #2ca02c; stroke-opacity: 0.5; stroke-width: 1.5; stroke-linecap: square"/>
   </g>
   <g id="line2d_98">
    <path d="M 23.650458 155.371702 
L 40.66003 153.653938 
L 50.609992 149.374006 
L 57.669602 145.899463 
L 63.145462 137.89784 
L 67.619564 128.424312 
L 71.402364 127.122768 
L 74.679175 119.184788 
L 77.569526 117.02486 
L 80.155034 110.956221 
L 82.49391 104.673175 
L 84.629137 103.309528 
L 86.593355 101.317381 
L 88.411937 98.795085 
L 90.104996 93.89775 
L 91.688747 90.63154 
L 93.176453 88.835562 
L 94.579099 89.215768 
L 95.905888 84.432314 
L 97.164606 82.551182 
L 98.361899 80.767745 
L 99.503483 80.606533 
L 100.594312 77.282546 
L 101.638709 76.156322 
L 102.640466 73.371872 
L 103.602927 71.747962 
L 104.529061 71.834814 
L 105.421509 68.305146 
L 106.282637 68.362487 
L 107.114568 64.517816 
L 107.919218 66.104288 
L 108.69832 64.008049 
L 109.453445 62.421536 
L 110.186025 61.936653 
L 110.897368 61.209432 
L 111.588671 60.480532 
L 112.261032 59.735139 
L 112.915461 58.314211 
L 113.552889 58.292127 
L 114.174179 58.314211 
L 114.780126 58.314211 
L 115.371471 56.921804 
" clip-path="url(#p502542f7f2)" style="fill: none; stroke: #d62728; stroke-opacity: 0.5; stroke-width: 1.5; stroke-linecap: square"/>
   </g>
   <g id="line2d_99">
    <path d="M 23.650458 165.253025 
L 40.66003 178.391581 
L 50.609992 160.284235 
L 57.669602 160.077479 
L 63.145462 151.085944 
L 67.619564 142.311052 
L 71.402364 141.295139 
L 74.679175 134.907165 
L 77.569526 132.305429 
L 80.155034 131.303328 
L 82.49391 122.624712 
L 84.629137 122.740635 
L 86.593355 117.613079 
L 88.411937 113.906349 
L 90.104996 110.785351 
L 91.688747 110.267162 
L 93.176453 104.188013 
L 94.579099 105.065879 
L 95.905888 101.450817 
L 97.164606 98.471786 
L 98.361899 96.283584 
L 99.503483 96.506564 
L 100.594312 96.005073 
L 101.638709 91.460801 
L 102.640466 90.170259 
L 103.602927 88.966614 
L 104.529061 85.281803 
L 105.421509 85.382315 
L 106.282637 81.494571 
L 107.114568 81.445163 
L 107.919218 80.505303 
L 108.69832 78.862316 
L 109.453445 77.086642 
L 110.186025 76.423406 
L 110.897368 75.76519 
L 111.588671 74.589761 
L 112.261032 73.07078 
L 112.915461 72.223015 
L 113.552889 70.73964 
L 114.174179 70.540499 
L 114.780126 68.828085 
L 115.371471 68.619343 
L 115.948901 65.986571 
L 116.513055 66.381114 
L 117.06453 64.955925 
L 117.603885 65.389737 
L 118.131639 63.91706 
L 118.648282 62.645941 
L 119.154271 62.146927 
L 119.650038 62.088425 
L 120.135987 59.945897 
L 120.6125 59.082752 
L 121.079935 58.23481 
L 121.538633 57.143106 
L 121.988914 55.812 
L 122.431082 55.010393 
L 122.865423 53.577085 
L 123.292209 55.570968 
L 123.7117 54.259292 
L 124.124141 51.744775 
L 124.529764 51.744775 
L 124.928791 51.744775 
" clip-path="url(#p502542f7f2)" style="fill: none; stroke: #9467bd; stroke-opacity: 0.5; stroke-width: 1.5; stroke-linecap: square"/>
   </g>
   <g id="line2d_100">
    <path d="M 23.650458 173.636408 
L 40.66003 166.2418 
L 50.609992 163.107645 
L 57.669602 156.007031 
L 63.145462 150.140834 
L 67.619564 143.8867 
L 71.402364 137.376925 
L 74.679175 133.024632 
L 77.569526 130.736479 
L 80.155034 125.20735 
L 82.49391 121.948073 
L 84.629137 119.037648 
L 86.593355 115.619422 
L 88.411937 113.565414 
L 90.104996 110.482791 
L 91.688747 108.095583 
L 93.176453 106.155954 
L 94.579099 103.995756 
L 95.905888 102.090924 
L 97.164606 100.427132 
L 98.361899 99.269578 
L 99.503483 96.599074 
L 100.594312 95.709354 
L 101.638709 94.126535 
L 102.640466 92.185831 
L 103.602927 90.93301 
L 104.529061 89.060895 
L 105.421509 87.287084 
L 106.282637 85.513844 
L 107.114568 84.54796 
L 107.919218 82.378493 
L 108.69832 81.435953 
L 109.453445 79.970822 
L 110.186025 78.010321 
L 110.897368 77.455931 
L 111.588671 75.701355 
L 112.261032 74.593542 
L 112.915461 73.740233 
L 113.552889 72.344109 
L 114.174179 71.347204 
L 114.780126 70.712986 
L 115.371471 69.406623 
L 115.948901 68.825136 
L 116.513055 67.94645 
L 117.06453 66.853729 
L 117.603885 66.206955 
L 118.131639 65.704046 
L 118.648282 64.463265 
L 119.154271 63.950341 
L 119.650038 62.853942 
L 120.135987 61.856184 
L 120.6125 61.211715 
L 121.079935 60.250714 
L 121.538633 58.63127 
L 121.988914 57.856058 
L 122.431082 56.693274 
L 122.865423 55.535307 
L 123.292209 54.351827 
L 123.7117 53.337622 
L 124.124141 52.03705 
L 124.529764 51.50703 
L 124.928791 50.488485 
L 125.321433 49.223808 
L 125.707892 48.871217 
L 126.088359 48.049549 
L 126.463017 47.471188 
L 126.832041 47.065128 
L 127.195597 45.99221 
L 127.553847 45.148597 
L 127.906941 44.901771 
L 128.255026 44.584431 
L 128.598244 42.521672 
L 128.936726 42.887401 
L 129.270604 40.919715 
L 129.6 41.892863 
" clip-path="url(#p502542f7f2)" style="fill: none; stroke: #8c564b; stroke-opacity: 0.5; stroke-width: 1.5; stroke-linecap: square"/>
   </g>
   <g id="line2d_101">
    <path d="M 23.650458 169.020138 
L 40.66003 160.717629 
L 50.609992 153.126529 
L 57.669602 149.030417 
L 63.145462 150.652711 
L 67.619564 146.11906 
L 71.402364 143.925936 
L 74.679175 137.242365 
L 77.569526 134.760667 
L 80.155034 127.068705 
L 82.49391 126.576566 
L 84.629137 124.192224 
L 86.593355 121.428038 
L 88.411937 119.138387 
L 90.104996 116.551049 
L 91.688747 115.30683 
L 93.176453 112.010909 
L 94.579099 110.23373 
L 95.905888 109.000697 
L 97.164606 106.813367 
L 98.361899 105.984693 
L 99.503483 103.916929 
L 100.594312 101.457304 
L 101.638709 99.739599 
L 102.640466 98.658042 
L 103.602927 95.392619 
L 104.529061 94.103815 
L 105.421509 93.807163 
L 106.282637 91.714223 
L 107.114568 90.354952 
L 107.919218 88.940964 
L 108.69832 88.290203 
L 109.453445 85.726009 
L 110.186025 85.440489 
L 110.897368 85.115496 
L 111.588671 83.358711 
L 112.261032 80.997111 
L 112.915461 79.593945 
L 113.552889 78.334648 
L 114.174179 77.679574 
L 114.780126 76.408383 
L 115.371471 75.529681 
L 115.948901 73.473665 
L 116.513055 72.989151 
L 117.06453 71.65988 
L 117.603885 70.240893 
L 118.131639 69.26166 
L 118.648282 68.400424 
L 119.154271 67.837577 
L 119.650038 66.530639 
L 120.135987 64.973924 
L 120.6125 64.080514 
L 121.079935 63.018815 
L 121.538633 61.442907 
L 121.988914 60.62934 
L 122.431082 60.516019 
L 122.865423 59.698898 
L 123.292209 59.605941 
L 123.7117 59.879143 
L 124.124141 58.091354 
L 124.529764 58.660315 
L 124.928791 57.905493 
L 125.321433 56.488647 
L 125.707892 56.09966 
L 126.088359 55.679961 
L 126.463017 56.538878 
L 126.832041 54.383788 
L 127.195597 55.204269 
L 127.553847 55.235 
L 127.906941 53.149267 
L 128.255026 54.057037 
L 128.598244 53.554993 
L 128.936726 53.146002 
L 129.270604 53.59245 
L 129.6 52.282724 
L 129.925033 52.253126 
L 130.245817 52.393566 
L 130.562462 50.740679 
L 130.875073 49.626367 
L 131.183751 52.848231 
L 131.488595 52.903248 
L 131.789699 50.971936 
L 132.087152 53.437988 
L 132.381044 53.977855 
L 132.671457 51.877376 
L 132.958473 50.233458 
L 133.242171 48.915898 
L 133.522627 48.366007 
L 133.799914 47.910861 
L 134.074103 48.177484 
L 134.345262 47.507131 
L 134.613457 46.508569 
L 134.878753 47.072808 
L 135.141211 47.086255 
L 135.400892 46.547939 
L 135.657854 44.944558 
" clip-path="url(#p502542f7f2)" style="fill: none; stroke: #e377c2; stroke-opacity: 0.5; stroke-width: 1.5; stroke-linecap: square"/>
   </g>
   <g id="line2d_102">
    <path d="M 23.650458 166.650592 
L 40.66003 151.463714 
L 50.609992 142.305851 
L 57.669602 136.448076 
L 63.145462 132.848251 
L 67.619564 131.118635 
L 71.402364 128.489187 
L 74.679175 125.150875 
L 77.569526 122.446462 
L 80.155034 119.648176 
L 82.49391 116.418895 
L 84.629137 113.911731 
L 86.593355 112.157153 
L 88.411937 110.389062 
L 90.104996 108.763523 
L 91.688747 107.037562 
L 93.176453 105.16783 
L 94.579099 103.1528 
L 95.905888 101.433166 
L 97.164606 100.453591 
L 98.361899 100.351393 
L 99.503483 99.768029 
L 100.594312 98.781361 
L 101.638709 97.52567 
L 102.640466 96.457048 
L 103.602927 96.123454 
L 104.529061 96.217312 
L 105.421509 96.287628 
L 106.282637 95.712666 
L 107.114568 96.364286 
L 107.919218 95.603663 
L 108.69832 94.824097 
L 109.453445 96.124398 
L 110.186025 97.178999 
L 110.897368 96.449675 
L 111.588671 96.710493 
L 112.261032 96.668982 
L 112.915461 95.417757 
L 113.552889 96.760789 
L 114.174179 97.60215 
L 114.780126 97.000175 
L 115.371471 98.633844 
L 115.948901 99.089046 
L 116.513055 97.226201 
L 117.06453 97.880986 
L 117.603885 98.441614 
L 118.131639 97.291375 
L 118.648282 97.803334 
L 119.154271 98.38089 
L 119.650038 97.570448 
L 120.135987 97.975837 
L 120.6125 98.137475 
L 121.079935 97.442455 
L 121.538633 97.294932 
L 121.988914 98.07866 
L 122.431082 98.481972 
L 122.865423 98.289276 
L 123.292209 98.00091 
L 123.7117 97.474516 
L 124.124141 97.004631 
L 124.529764 96.77185 
L 124.928791 96.42939 
L 125.321433 96.171224 
L 125.707892 95.609788 
L 126.088359 94.724866 
L 126.463017 93.404417 
L 126.832041 93.059327 
L 127.195597 93.165758 
L 127.553847 92.815981 
L 127.906941 92.116504 
L 128.255026 91.428671 
L 128.598244 90.932604 
L 128.936726 91.00099 
L 129.270604 90.556372 
L 129.6 90.562994 
L 129.925033 91.083918 
L 130.245817 90.754025 
L 130.562462 89.721503 
L 130.875073 90.343687 
L 131.183751 90.01402 
L 131.488595 88.87682 
L 131.789699 89.00881 
L 132.087152 88.682645 
L 132.381044 88.064679 
L 132.671457 89.29602 
L 132.958473 89.793543 
L 133.242171 89.658563 
L 133.522627 90.644859 
L 133.799914 91.22874 
L 134.074103 91.416897 
L 134.345262 93.281148 
L 134.613457 94.583965 
L 134.878753 94.260198 
L 135.141211 95.017485 
L 135.400892 96.242863 
L 135.657854 97.455361 
L 135.912153 98.292199 
L 136.163844 99.671047 
L 136.412979 100.945426 
L 136.65961 101.818099 
" clip-path="url(#p502542f7f2)" style="fill: none; stroke: #7f7f7f; stroke-opacity: 0.5; stroke-width: 1.5; stroke-linecap: square"/>
   </g>
   <g id="line2d_103">
    <path d="M 23.650458 163.406895 
L 40.66003 147.548966 
L 50.609992 140.674809 
L 57.669602 133.288811 
L 63.145462 128.429834 
L 67.619564 122.432012 
L 71.402364 118.801636 
L 74.679175 112.28621 
L 77.569526 108.22342 
L 80.155034 103.568399 
L 82.49391 99.07449 
L 84.629137 96.165554 
L 86.593355 92.726956 
L 88.411937 89.142397 
L 90.104996 86.230129 
L 91.688747 84.320162 
L 93.176453 81.64777 
L 94.579099 77.368845 
L 95.905888 75.751921 
L 97.164606 72.975948 
L 98.361899 70.554049 
L 99.503483 66.456633 
L 100.594312 65.365584 
L 101.638709 68.106535 
L 102.640466 65.134426 
L 103.602927 64.715207 
L 104.529061 61.234557 
L 105.421509 61.234557 
L 106.282637 59.750829 
L 107.114568 55.570968 
" clip-path="url(#p502542f7f2)" style="fill: none; stroke: #bcbd22; stroke-opacity: 0.5; stroke-width: 1.5; stroke-linecap: square"/>
   </g>
   <g id="line2d_104">
    <path d="M 23.650458 171.454486 
L 40.66003 152.40822 
L 50.609992 146.85622 
L 57.669602 139.842272 
L 63.145462 128.058743 
L 67.619564 125.947037 
L 71.402364 121.090735 
L 74.679175 114.585352 
L 77.569526 108.776298 
L 80.155034 105.814414 
L 82.49391 100.825093 
L 84.629137 98.732833 
L 86.593355 95.543433 
L 88.411937 90.098119 
L 90.104996 87.359484 
L 91.688747 85.701666 
L 93.176453 80.466058 
L 94.579099 80.697604 
L 95.905888 78.00474 
L 97.164606 75.362644 
L 98.361899 73.883201 
L 99.503483 72.016271 
L 100.594312 69.254044 
L 101.638709 66.88175 
L 102.640466 63.95601 
L 103.602927 60.242692 
L 104.529061 57.1515 
L 105.421509 58.292127 
L 106.282637 58.314211 
" clip-path="url(#p502542f7f2)" style="fill: none; stroke: #17becf; stroke-opacity: 0.5; stroke-width: 1.5; stroke-linecap: square"/>
   </g>
   <g id="line2d_105">
    <path d="M 23.650458 160.044426 
L 40.66003 156.417604 
L 50.609992 153.243358 
L 57.669602 151.805171 
L 63.145462 159.454656 
L 67.619564 153.568722 
L 71.402364 154.26533 
L 74.679175 156.259573 
L 77.569526 153.201683 
L 80.155034 154.140381 
L 82.49391 159.936703 
L 84.629137 152.582309 
L 86.593355 154.477042 
L 88.411937 153.341335 
L 90.104996 155.79135 
L 91.688747 153.813109 
L 93.176453 155.554 
L 94.579099 158.971958 
L 95.905888 151.195277 
L 97.164606 154.021264 
L 98.361899 152.2614 
L 99.503483 148.184091 
L 100.594312 153.959991 
L 101.638709 154.437412 
L 102.640466 147.237967 
L 103.602927 148.238935 
L 104.529061 148.303509 
L 105.421509 151.392471 
L 106.282637 153.68445 
L 107.114568 149.704954 
L 107.919218 148.866266 
L 108.69832 148.557773 
L 109.453445 145.687547 
L 110.186025 146.386375 
L 110.897368 150.14691 
L 111.588671 148.172591 
L 112.261032 146.658811 
L 112.915461 145.468175 
L 113.552889 144.666587 
L 114.174179 147.548966 
L 114.780126 146.205712 
L 115.371471 145.015915 
L 115.948901 145.924728 
L 116.513055 147.204622 
L 117.06453 148.399873 
L 117.603885 142.918546 
L 118.131639 146.683029 
L 118.648282 147.265562 
L 119.154271 142.634869 
L 119.650038 146.420967 
L 120.135987 148.204804 
L 120.6125 141.873586 
L 121.079935 141.707687 
L 121.538633 143.833096 
L 121.988914 142.094435 
L 122.431082 140.569821 
L 122.865423 138.843318 
L 123.292209 142.287859 
L 123.7117 145.139867 
L 124.124141 145.028357 
L 124.529764 144.957265 
L 124.928791 140.879536 
L 125.321433 139.008212 
L 125.707892 140.742105 
L 126.088359 142.549324 
L 126.463017 140.280719 
L 126.832041 142.042331 
L 127.195597 140.892815 
L 127.553847 143.178598 
L 127.906941 141.615517 
L 128.255026 141.046151 
L 128.598244 142.703798 
L 128.936726 138.894638 
L 129.270604 140.460354 
L 129.6 135.638626 
L 129.925033 141.574594 
L 130.245817 144.597264 
L 130.562462 140.953953 
L 130.875073 136.910658 
L 131.183751 140.515474 
L 131.488595 137.998299 
L 131.789699 137.812085 
L 132.087152 137.706362 
L 132.381044 140.944148 
L 132.671457 141.575027 
L 132.958473 140.268083 
L 133.242171 139.164101 
L 133.522627 141.972888 
L 133.799914 138.145872 
L 134.074103 140.070451 
L 134.345262 140.237097 
L 134.613457 140.003627 
L 134.878753 145.058691 
L 135.141211 141.455164 
L 135.400892 144.185253 
L 135.657854 142.43904 
L 135.912153 141.653853 
L 136.163844 142.532263 
L 136.412979 143.27451 
L 136.65961 138.475676 
" clip-path="url(#p502542f7f2)" style="fill: none; stroke: #1f77b4; stroke-opacity: 0.5; stroke-width: 1.5; stroke-linecap: square"/>
   </g>
   <g id="line2d_106">
    <path d="M 23.650458 167.577921 
L 40.66003 152.098775 
L 50.609992 146.40486 
L 57.669602 138.979537 
L 63.145462 134.115308 
L 67.619564 131.023692 
L 71.402364 124.645021 
L 74.679175 119.647296 
L 77.569526 115.750146 
L 80.155034 114.02024 
L 82.49391 110.383471 
L 84.629137 108.62926 
L 86.593355 104.858223 
L 88.411937 102.53657 
L 90.104996 99.753965 
L 91.688747 98.921197 
L 93.176453 95.450141 
L 94.579099 94.492698 
L 95.905888 92.321618 
L 97.164606 90.143179 
L 98.361899 89.314569 
L 99.503483 87.741586 
L 100.594312 85.539504 
L 101.638709 84.477624 
L 102.640466 82.562856 
L 103.602927 80.645127 
L 104.529061 78.969242 
L 105.421509 76.633352 
L 106.282637 74.657617 
L 107.114568 74.465934 
L 107.919218 73.161234 
L 108.69832 70.939334 
L 109.453445 69.267386 
L 110.186025 68.402109 
L 110.897368 66.902448 
L 111.588671 66.129321 
L 112.261032 64.523915 
L 112.915461 63.450452 
L 113.552889 62.042352 
L 114.174179 61.33969 
L 114.780126 60.345528 
L 115.371471 59.596644 
L 115.948901 58.37974 
L 116.513055 57.347956 
L 117.06453 57.056381 
L 117.603885 56.513606 
L 118.131639 54.838418 
L 118.648282 55.052088 
L 119.154271 54.1429 
L 119.650038 53.518705 
L 120.135987 52.553146 
L 120.6125 52.157328 
L 121.079935 51.021045 
L 121.538633 50.548769 
L 121.988914 49.795528 
L 122.431082 47.970927 
L 122.865423 47.46123 
L 123.292209 46.478268 
L 123.7117 44.799628 
L 124.124141 43.495094 
L 124.529764 42.222602 
L 124.928791 41.688987 
L 125.321433 41.4498 
L 125.707892 40.242866 
L 126.088359 39.586411 
L 126.463017 38.098165 
L 126.832041 36.908047 
L 127.195597 36.083108 
L 127.553847 36.273546 
L 127.906941 35.97447 
L 128.255026 34.719808 
L 128.598244 33.970384 
L 128.936726 34.57027 
L 129.270604 34.009969 
L 129.6 34.218459 
L 129.925033 32.991791 
L 130.245817 31.403921 
L 130.562462 30.630403 
" clip-path="url(#p502542f7f2)" style="fill: none; stroke: #ff7f0e; stroke-opacity: 0.5; stroke-width: 1.5; stroke-linecap: square"/>
   </g>
   <g id="line2d_107">
    <path d="M 23.650458 166.709077 
L 40.66003 158.668805 
L 50.609992 166.485284 
L 57.669602 161.330687 
L 63.145462 153.237736 
L 67.619564 157.920839 
L 71.402364 158.627706 
L 74.679175 161.730266 
L 77.569526 155.752285 
L 80.155034 158.796632 
L 82.49391 158.200736 
L 84.629137 161.530123 
L 86.593355 155.850284 
L 88.411937 159.958364 
L 90.104996 152.971116 
L 91.688747 154.845354 
L 93.176453 148.825102 
L 94.579099 155.785217 
L 95.905888 151.29358 
L 97.164606 157.779655 
L 98.361899 152.666792 
L 99.503483 158.203201 
L 100.594312 155.252001 
L 101.638709 157.62651 
L 102.640466 159.507374 
L 103.602927 155.161592 
L 104.529061 155.043075 
L 105.421509 159.384226 
L 106.282637 156.924431 
L 107.114568 164.022767 
L 107.919218 159.297235 
L 108.69832 160.146282 
L 109.453445 158.257664 
L 110.186025 157.662401 
L 110.897368 153.439403 
L 111.588671 156.539232 
L 112.261032 148.361109 
L 112.915461 152.422803 
L 113.552889 161.30074 
L 114.174179 159.215518 
L 114.780126 151.168753 
L 115.371471 158.415742 
L 115.948901 151.90245 
L 116.513055 150.798597 
L 117.06453 146.789711 
L 117.603885 150.887706 
L 118.131639 154.770322 
L 118.648282 155.08567 
L 119.154271 153.029426 
L 119.650038 151.906608 
L 120.135987 155.502921 
L 120.6125 153.473114 
L 121.079935 150.166305 
L 121.538633 152.423764 
L 121.988914 158.108101 
L 122.431082 154.69975 
L 122.865423 152.375359 
L 123.292209 147.679653 
L 123.7117 150.892745 
L 124.124141 149.066692 
L 124.529764 149.397746 
L 124.928791 149.4431 
L 125.321433 148.563219 
L 125.707892 149.295368 
L 126.088359 148.235545 
L 126.463017 141.97878 
L 126.832041 144.016111 
L 127.195597 150.870848 
L 127.553847 143.136911 
L 127.906941 142.517119 
L 128.255026 143.198413 
L 128.598244 144.561559 
L 128.936726 142.401732 
L 129.270604 142.787118 
L 129.6 147.854187 
L 129.925033 149.643067 
L 130.245817 146.392749 
L 130.562462 147.543828 
L 130.875073 142.787653 
L 131.183751 144.147794 
L 131.488595 143.260484 
L 131.789699 146.921251 
L 132.087152 147.823411 
L 132.381044 150.740587 
L 132.671457 154.429832 
L 132.958473 149.854578 
L 133.242171 158.760403 
L 133.522627 146.862367 
L 133.799914 141.877336 
L 134.074103 147.341397 
L 134.345262 149.15688 
L 134.613457 139.538996 
L 134.878753 144.468888 
L 135.141211 145.970276 
L 135.400892 142.325653 
L 135.657854 147.800523 
L 135.912153 146.114911 
L 136.163844 142.109112 
L 136.412979 143.41414 
L 136.65961 135.422267 
" clip-path="url(#p502542f7f2)" style="fill: none; stroke: #2ca02c; stroke-opacity: 0.5; stroke-width: 1.5; stroke-linecap: square"/>
   </g>
   <g id="line2d_108">
    <path d="M 23.650458 155.028895 
L 40.66003 166.975227 
L 50.609992 156.506921 
L 57.669602 132.574721 
L 63.145462 132.72136 
L 67.619564 126.09429 
L 71.402364 128.288424 
L 74.679175 125.05348 
L 77.569526 113.628613 
L 80.155034 109.521588 
L 82.49391 106.027453 
L 84.629137 104.262157 
L 86.593355 106.108051 
L 88.411937 96.315939 
L 90.104996 94.032601 
L 91.688747 90.45918 
L 93.176453 87.306904 
L 94.579099 89.049431 
L 95.905888 84.943546 
L 97.164606 80.899324 
L 98.361899 80.419542 
L 99.503483 76.44991 
L 100.594312 76.889835 
L 101.638709 75.713348 
L 102.640466 71.289464 
L 103.602927 72.050034 
L 104.529061 70.716415 
L 105.421509 68.187963 
L 106.282637 67.800847 
L 107.114568 63.522438 
L 107.919218 64.426309 
L 108.69832 64.7559 
L 109.453445 61.081955 
L 110.186025 61.757839 
L 110.897368 57.78123 
L 111.588671 59.320929 
L 112.261032 59.060528 
L 112.915461 56.924637 
L 113.552889 58.583041 
L 114.174179 56.041635 
L 114.780126 57.134516 
L 115.371471 56.689276 
L 115.948901 54.410186 
L 116.513055 54.763539 
L 117.06453 51.820096 
L 117.603885 51.515358 
L 118.131639 51.473288 
L 118.648282 50.217563 
L 119.154271 49.442386 
L 119.650038 48.907797 
L 120.135987 48.213322 
L 120.6125 47.654238 
L 121.079935 46.878717 
L 121.538633 46.108464 
L 121.988914 45.777493 
L 122.431082 44.361731 
L 122.865423 42.764833 
L 123.292209 42.007391 
L 123.7117 40.778921 
L 124.124141 39.952042 
L 124.529764 38.694748 
L 124.928791 37.417026 
L 125.321433 36.573608 
L 125.707892 36.360496 
L 126.088359 35.022685 
L 126.463017 34.120925 
L 126.832041 33.281417 
L 127.195597 32.778264 
L 127.553847 32.075512 
L 127.906941 31.541465 
L 128.255026 30.570839 
L 128.598244 30.159077 
L 128.936726 29.097971 
L 129.270604 28.297067 
L 129.6 27.728434 
L 129.925033 27.114224 
L 130.245817 26.830286 
L 130.562462 25.993949 
L 130.875073 25.50655 
L 131.183751 24.997286 
L 131.488595 24.384894 
L 131.789699 23.724802 
L 132.087152 22.971709 
L 132.381044 22.34845 
L 132.671457 22.047698 
L 132.958473 21.166649 
L 133.242171 20.641443 
L 133.522627 20.132024 
L 133.799914 19.486661 
L 134.074103 19.155105 
L 134.345262 18.685136 
L 134.613457 18.135073 
L 134.878753 17.597458 
L 135.141211 16.838237 
L 135.400892 16.290258 
" clip-path="url(#p502542f7f2)" style="fill: none; stroke: #d62728; stroke-opacity: 0.5; stroke-width: 1.5; stroke-linecap: square"/>
   </g>
   <g id="line2d_109">
    <path d="M 23.650458 171.606772 
L 40.66003 165.425734 
L 50.609992 158.73525 
L 57.669602 153.051154 
L 63.145462 143.000186 
L 67.619564 135.401845 
L 71.402364 130.75371 
L 74.679175 124.064675 
L 77.569526 115.854001 
L 80.155034 112.054022 
L 82.49391 110.19868 
L 84.629137 106.874241 
L 86.593355 104.268572 
L 88.411937 101.070784 
L 90.104996 98.620085 
L 91.688747 97.28002 
L 93.176453 94.422531 
L 94.579099 90.106176 
L 95.905888 87.388105 
L 97.164606 84.157 
L 98.361899 81.723246 
L 99.503483 79.24486 
L 100.594312 77.814311 
L 101.638709 76.81271 
L 102.640466 76.219985 
L 103.602927 73.941377 
L 104.529061 72.020565 
L 105.421509 71.070073 
L 106.282637 69.240511 
L 107.114568 66.428943 
L 107.919218 64.505363 
L 108.69832 60.910091 
L 109.453445 58.173246 
L 110.186025 57.993909 
L 110.897368 57.618008 
L 111.588671 55.211759 
L 112.261032 55.605244 
L 112.915461 55.654301 
L 113.552889 54.099789 
L 114.174179 51.101218 
L 114.780126 49.362665 
" clip-path="url(#p502542f7f2)" style="fill: none; stroke: #9467bd; stroke-opacity: 0.5; stroke-width: 1.5; stroke-linecap: square"/>
   </g>
   <g id="line2d_110">
    <path d="M 23.650458 183.861441 
L 40.66003 182.775241 
L 50.609992 181.517209 
L 57.669602 169.692577 
L 63.145462 169.40523 
L 67.619564 164.300289 
L 71.402364 158.157173 
L 74.679175 154.609419 
L 77.569526 152.312555 
L 80.155034 148.29542 
L 82.49391 144.510337 
L 84.629137 143.334092 
L 86.593355 139.8048 
L 88.411937 137.64412 
L 90.104996 135.518075 
L 91.688747 131.602719 
L 93.176453 130.461904 
L 94.579099 128.581518 
L 95.905888 126.092134 
L 97.164606 123.941334 
L 98.361899 122.266411 
L 99.503483 119.444334 
L 100.594312 117.895854 
L 101.638709 116.013418 
L 102.640466 115.454702 
L 103.602927 112.632557 
L 104.529061 110.539656 
L 105.421509 109.617896 
L 106.282637 108.431664 
L 107.114568 106.67574 
L 107.919218 104.607951 
L 108.69832 103.56458 
L 109.453445 102.939744 
L 110.186025 101.423572 
L 110.897368 99.274269 
L 111.588671 97.478391 
L 112.261032 97.56417 
L 112.915461 96.213429 
L 113.552889 95.450924 
L 114.174179 94.40571 
L 114.780126 92.924015 
L 115.371471 92.317282 
L 115.948901 91.310786 
L 116.513055 89.506184 
L 117.06453 88.588483 
L 117.603885 88.674128 
L 118.131639 87.361691 
L 118.648282 86.231456 
L 119.154271 84.959255 
L 119.650038 84.189198 
L 120.135987 83.234172 
L 120.6125 83.077285 
L 121.079935 82.317346 
L 121.538633 81.124995 
L 121.988914 80.395588 
L 122.431082 79.071383 
L 122.865423 78.679852 
L 123.292209 79.189202 
L 123.7117 77.580125 
L 124.124141 75.777139 
L 124.529764 74.149716 
L 124.928791 75.170489 
L 125.321433 73.626437 
L 125.707892 72.42823 
L 126.088359 70.145706 
L 126.463017 70.264047 
L 126.832041 69.53528 
L 127.195597 67.213279 
L 127.553847 67.160952 
L 127.906941 65.647962 
L 128.255026 68.372058 
L 128.598244 61.234557 
L 128.936726 60.431955 
L 129.270604 61.678817 
L 129.6 61.234557 
L 130.245817 55.570968 
L 130.562462 59.750829 
" clip-path="url(#p502542f7f2)" style="fill: none; stroke: #8c564b; stroke-opacity: 0.5; stroke-width: 1.5; stroke-linecap: square"/>
   </g>
   <g id="line2d_111">
    <path d="M 23.650458 157.974925 
L 40.66003 154.233317 
L 50.609992 150.38076 
L 57.669602 139.592807 
L 63.145462 136.516256 
L 67.619564 128.979714 
L 71.402364 124.687988 
L 74.679175 121.192019 
L 77.569526 117.551327 
L 80.155034 113.69215 
L 82.49391 109.302441 
L 84.629137 107.047846 
L 86.593355 104.381133 
L 88.411937 101.26797 
L 90.104996 98.418249 
L 91.688747 95.386931 
L 93.176453 92.738255 
L 94.579099 89.950692 
L 95.905888 88.320752 
L 97.164606 85.731774 
L 98.361899 84.630297 
L 99.503483 82.912487 
L 100.594312 80.912165 
L 101.638709 80.196258 
L 102.640466 77.651425 
L 103.602927 77.515501 
L 104.529061 75.10994 
L 105.421509 74.144325 
L 106.282637 72.728365 
L 107.114568 72.102655 
L 107.919218 69.958682 
L 108.69832 68.6362 
L 109.453445 67.76567 
L 110.186025 64.857577 
L 110.897368 64.738764 
L 111.588671 62.888746 
L 112.261032 61.150916 
L 112.915461 61.566294 
L 113.552889 59.413836 
L 114.174179 58.351454 
L 114.780126 57.625571 
L 115.371471 56.025654 
L 115.948901 54.989064 
L 116.513055 52.810665 
L 117.06453 52.259009 
L 117.603885 51.133903 
L 118.131639 50.8081 
L 118.648282 48.957819 
L 119.154271 47.840574 
L 119.650038 47.231319 
L 120.135987 46.193109 
L 120.6125 46.16245 
L 121.079935 43.823927 
L 121.538633 43.473108 
L 121.988914 41.798358 
L 122.431082 41.472663 
L 122.865423 40.391629 
L 123.292209 39.947424 
L 123.7117 39.466905 
L 124.124141 39.027759 
L 124.529764 38.553882 
L 124.928791 37.215116 
L 125.321433 38.119874 
L 125.707892 36.345151 
" clip-path="url(#p502542f7f2)" style="fill: none; stroke: #e377c2; stroke-opacity: 0.5; stroke-width: 1.5; stroke-linecap: square"/>
   </g>
   <g id="line2d_112">
    <path d="M 23.650458 168.900277 
L 40.66003 157.55967 
L 50.609992 149.92085 
L 57.669602 143.439822 
L 63.145462 134.339725 
L 67.619564 128.020193 
L 71.402364 123.284676 
L 74.679175 118.949318 
L 77.569526 115.626146 
L 80.155034 111.675159 
L 82.49391 108.448548 
L 84.629137 106.206196 
L 86.593355 102.734134 
L 88.411937 100.133123 
L 90.104996 97.081788 
L 91.688747 94.519902 
L 93.176453 92.424467 
L 94.579099 90.371422 
L 95.905888 88.208023 
L 97.164606 86.680867 
L 98.361899 85.277472 
L 99.503483 82.654316 
L 100.594312 80.959762 
L 101.638709 79.125568 
L 102.640466 77.316636 
L 103.602927 75.753525 
L 104.529061 74.025665 
L 105.421509 72.361331 
L 106.282637 71.602248 
L 107.114568 70.00375 
L 107.919218 68.249954 
L 108.69832 66.840738 
L 109.453445 65.357037 
L 110.186025 64.766575 
L 110.897368 62.992029 
L 111.588671 61.374394 
L 112.261032 60.665073 
L 112.915461 59.424308 
L 113.552889 58.112807 
L 114.174179 56.901687 
L 114.780126 55.81216 
L 115.371471 54.704523 
L 115.948901 53.532327 
L 116.513055 52.555243 
L 117.06453 51.289401 
L 117.603885 50.657222 
L 118.131639 49.810122 
L 118.648282 48.563601 
L 119.154271 47.929262 
L 119.650038 46.977357 
L 120.135987 46.398434 
L 120.6125 45.711997 
L 121.079935 44.562101 
L 121.538633 43.508314 
L 121.988914 42.537383 
L 122.431082 41.568598 
L 122.865423 40.737489 
L 123.292209 39.900752 
L 123.7117 39.283552 
L 124.124141 38.70617 
L 124.529764 37.705584 
L 124.928791 36.607368 
L 125.321433 35.713045 
L 125.707892 34.604121 
L 126.088359 33.436215 
L 126.463017 32.508328 
L 126.832041 31.644918 
L 127.195597 30.773343 
L 127.553847 29.965406 
L 127.906941 29.302304 
L 128.255026 28.596074 
L 128.598244 28.130597 
L 128.936726 27.479055 
L 129.270604 27.146087 
L 129.6 26.700512 
L 129.925033 26.36933 
L 130.245817 26.239951 
L 130.562462 26.015348 
L 130.875073 25.214347 
L 131.183751 24.876676 
" clip-path="url(#p502542f7f2)" style="fill: none; stroke: #7f7f7f; stroke-opacity: 0.5; stroke-width: 1.5; stroke-linecap: square"/>
   </g>
   <g id="line2d_113">
    <path d="M 23.650458 171.048393 
L 40.66003 161.511205 
L 50.609992 152.475019 
L 57.669602 143.626182 
L 63.145462 138.329804 
L 67.619564 130.955317 
L 71.402364 125.732741 
L 74.679175 122.780362 
L 77.569526 116.94165 
L 80.155034 114.449255 
L 82.49391 110.771357 
L 84.629137 106.042674 
L 86.593355 104.077416 
L 88.411937 101.016665 
L 90.104996 98.487023 
L 91.688747 95.534643 
L 93.176453 93.639766 
L 94.579099 92.835079 
L 95.905888 89.796338 
L 97.164606 88.367305 
L 98.361899 86.850986 
L 99.503483 84.501882 
L 100.594312 83.236775 
L 101.638709 81.260434 
L 102.640466 80.075164 
L 103.602927 78.975597 
L 104.529061 77.273564 
L 105.421509 76.150713 
L 106.282637 75.533219 
L 107.114568 73.927461 
L 107.919218 72.918504 
L 108.69832 71.832348 
L 109.453445 70.912351 
L 110.186025 69.254522 
L 110.897368 68.11321 
L 111.588671 67.516879 
L 112.261032 65.134636 
L 112.915461 64.531869 
L 113.552889 64.721638 
L 114.174179 62.376543 
L 114.780126 61.212969 
L 115.371471 60.868828 
L 115.948901 60.597913 
L 116.513055 58.920976 
L 117.06453 57.884321 
L 117.603885 58.224171 
L 118.131639 56.416347 
L 118.648282 55.046898 
L 119.154271 55.761975 
L 119.650038 54.351554 
L 120.135987 53.216403 
L 120.6125 52.958927 
L 121.079935 52.416449 
L 121.538633 51.449731 
L 121.988914 50.497688 
L 122.431082 50.422878 
L 122.865423 49.718854 
L 123.292209 49.534496 
L 123.7117 49.533782 
L 124.124141 48.615751 
L 124.529764 48.76328 
L 124.928791 47.890214 
L 125.321433 47.691074 
L 125.707892 48.113499 
L 126.088359 47.907563 
L 126.463017 47.59729 
L 126.832041 47.904316 
L 127.195597 47.682532 
L 127.553847 47.562288 
L 127.906941 47.460754 
L 128.255026 47.405439 
L 128.598244 47.779123 
L 128.936726 47.098833 
L 129.270604 47.489171 
L 129.6 47.82793 
L 129.925033 47.242262 
L 130.245817 46.879035 
L 130.562462 47.357863 
L 130.875073 47.023025 
L 131.183751 45.839915 
L 131.488595 45.550899 
L 131.789699 45.53997 
L 132.087152 43.105435 
L 132.381044 42.459066 
L 132.671457 43.324176 
L 132.958473 41.154219 
L 133.242171 40.212513 
L 133.522627 41.00101 
L 133.799914 38.990369 
L 134.074103 37.670069 
L 134.345262 37.897737 
L 134.613457 37.640811 
L 134.878753 35.236839 
L 135.141211 35.437552 
L 135.400892 36.012915 
L 135.657854 34.014595 
L 135.912153 34.184672 
L 136.163844 34.503325 
L 136.412979 33.65659 
L 136.65961 33.900443 
" clip-path="url(#p502542f7f2)" style="fill: none; stroke: #bcbd22; stroke-opacity: 0.5; stroke-width: 1.5; stroke-linecap: square"/>
   </g>
   <g id="line2d_114">
    <path d="M 23.650458 160.629944 
L 40.66003 162.696547 
L 50.609992 169.218004 
L 57.669602 143.171883 
L 63.145462 135.306782 
L 67.619564 132.444318 
L 71.402364 134.286638 
L 74.679175 145.109961 
L 77.569526 137.886387 
L 80.155034 128.87325 
L 82.49391 126.888775 
L 84.629137 126.329046 
L 86.593355 127.489548 
L 88.411937 118.801636 
L 90.104996 116.823016 
L 91.688747 114.529595 
L 93.176453 114.756825 
L 94.579099 117.510054 
L 95.905888 120.49474 
L 97.164606 105.897798 
L 98.361899 106.140426 
L 99.503483 110.424534 
L 100.594312 103.02732 
L 101.638709 101.689163 
L 102.640466 98.183818 
L 103.602927 100.424009 
L 104.529061 99.979262 
L 105.421509 94.605271 
L 106.282637 91.695756 
L 107.114568 87.619123 
L 107.919218 85.103618 
L 108.69832 86.961748 
L 109.453445 85.112644 
L 110.186025 81.871401 
L 110.897368 85.495045 
L 111.588671 82.070464 
L 112.261032 78.735177 
L 112.915461 91.385493 
L 113.552889 80.295851 
L 114.174179 77.459642 
L 114.780126 83.503993 
L 115.371471 78.967931 
L 115.948901 78.890994 
L 116.513055 79.24486 
L 117.06453 72.800279 
L 117.603885 72.212803 
L 118.131639 74.646536 
L 118.648282 73.150862 
L 119.154271 73.711125 
L 119.650038 70.788393 
L 120.135987 73.274647 
L 120.6125 78.450925 
L 121.079935 67.676376 
L 121.538633 68.013062 
L 121.988914 70.31406 
L 122.431082 65.971069 
L 122.865423 68.372058 
L 123.292209 65.35955 
L 123.7117 61.234557 
L 124.124141 62.76859 
L 124.529764 59.750829 
" clip-path="url(#p502542f7f2)" style="fill: none; stroke: #17becf; stroke-opacity: 0.5; stroke-width: 1.5; stroke-linecap: square"/>
   </g>
   <g id="line2d_115">
    <path d="M 23.650458 166.986686 
L 40.66003 165.131901 
L 50.609992 157.053347 
L 57.669602 149.508943 
L 63.145462 145.328259 
L 67.619564 142.971049 
L 71.402364 138.091984 
L 74.679175 139.231616 
L 77.569526 131.541182 
L 80.155034 127.168402 
L 82.49391 127.118804 
L 84.629137 118.367094 
L 86.593355 118.239499 
L 88.411937 116.093074 
L 90.104996 112.216303 
L 91.688747 111.615243 
L 93.176453 108.027041 
L 94.579099 103.974475 
L 95.905888 103.081218 
L 97.164606 98.194853 
L 98.361899 97.339002 
L 99.503483 96.831734 
L 100.594312 92.634744 
L 101.638709 91.687706 
L 102.640466 89.005542 
L 103.602927 87.668743 
L 104.529061 87.484219 
L 105.421509 85.320552 
L 106.282637 85.933896 
L 107.114568 84.611022 
L 107.919218 82.589912 
L 108.69832 81.23037 
L 109.453445 79.217014 
L 110.186025 76.468861 
L 110.897368 75.4298 
L 111.588671 74.745285 
L 112.261032 74.660183 
L 112.915461 76.679326 
L 113.552889 73.108334 
L 114.174179 70.648222 
L 114.780126 67.104401 
L 115.371471 64.852447 
L 115.948901 63.492975 
L 116.513055 59.750829 
" clip-path="url(#p502542f7f2)" style="fill: none; stroke: #1f77b4; stroke-opacity: 0.5; stroke-width: 1.5; stroke-linecap: square"/>
   </g>
   <g id="line2d_116">
    <path d="M 23.650458 165.560808 
L 40.66003 159.198034 
L 50.609992 150.676514 
L 57.669602 141.574802 
L 63.145462 136.837064 
L 67.619564 130.760673 
L 71.402364 124.871062 
L 74.679175 119.393127 
L 77.569526 116.692432 
L 80.155034 112.425032 
L 82.49391 107.100137 
L 84.629137 105.410158 
L 86.593355 103.099589 
L 88.411937 99.526233 
L 90.104996 98.296928 
L 91.688747 95.125637 
L 93.176453 92.244238 
L 94.579099 89.311128 
L 95.905888 87.566928 
L 97.164606 86.199256 
L 98.361899 84.538569 
L 99.503483 82.937979 
L 100.594312 80.542157 
L 101.638709 78.842249 
L 102.640466 77.318579 
L 103.602927 75.413553 
L 104.529061 73.610744 
L 105.421509 72.181321 
L 106.282637 70.943474 
L 107.114568 68.73384 
L 107.919218 67.048126 
L 108.69832 66.208633 
L 109.453445 64.322381 
L 110.186025 62.372023 
L 110.897368 62.314933 
L 111.588671 61.630159 
L 112.261032 60.040233 
L 112.915461 59.323272 
L 113.552889 57.382766 
L 114.174179 55.935972 
L 114.780126 54.877896 
L 115.371471 53.881263 
L 115.948901 53.692429 
L 116.513055 52.48834 
L 117.06453 51.758432 
L 117.603885 51.02541 
L 118.131639 49.55187 
L 118.648282 48.436575 
L 119.154271 47.369146 
L 119.650038 46.188865 
L 120.135987 45.071595 
L 120.6125 44.480768 
L 121.079935 43.680609 
L 121.538633 42.55743 
L 121.988914 41.75761 
L 122.431082 40.951146 
L 122.865423 39.942519 
L 123.292209 39.604379 
L 123.7117 39.278789 
L 124.124141 38.657132 
L 124.529764 37.815062 
L 124.928791 37.25602 
L 125.321433 36.31672 
L 125.707892 35.371635 
L 126.088359 34.712216 
L 126.463017 34.621902 
L 126.832041 33.524679 
L 127.195597 33.468612 
L 127.553847 32.977366 
L 127.906941 32.55239 
L 128.255026 32.172329 
L 128.598244 31.397196 
L 128.936726 30.630403 
" clip-path="url(#p502542f7f2)" style="fill: none; stroke: #ff7f0e; stroke-opacity: 0.5; stroke-width: 1.5; stroke-linecap: square"/>
   </g>
   <g id="line2d_117">
    <path d="M 23.650458 178.557332 
L 40.66003 170.046321 
L 50.609992 162.819612 
L 57.669602 154.278168 
L 63.145462 149.775651 
L 67.619564 143.394362 
L 71.402364 137.101098 
L 74.679175 132.658333 
L 77.569526 127.552307 
L 80.155034 123.250219 
L 82.49391 119.632038 
L 84.629137 117.011105 
L 86.593355 113.302613 
L 88.411937 110.802294 
L 90.104996 107.477611 
L 91.688747 104.393402 
L 93.176453 102.236678 
L 94.579099 99.320287 
L 95.905888 97.316319 
L 97.164606 95.115418 
L 98.361899 93.139336 
L 99.503483 91.183286 
L 100.594312 89.773066 
L 101.638709 87.855651 
L 102.640466 85.544472 
L 103.602927 84.160326 
L 104.529061 82.740207 
L 105.421509 80.571429 
L 106.282637 79.186277 
L 107.114568 77.833937 
L 107.919218 76.544685 
L 108.69832 74.759669 
L 109.453445 73.78463 
L 110.186025 72.57809 
L 110.897368 70.675139 
L 111.588671 70.397985 
L 112.261032 68.90987 
L 112.915461 67.532247 
L 113.552889 66.719555 
L 114.174179 65.23733 
L 114.780126 64.328847 
L 115.371471 63.032124 
L 115.948901 61.916931 
L 116.513055 61.047629 
L 117.06453 59.924319 
L 117.603885 59.10743 
L 118.131639 58.0423 
L 118.648282 56.976282 
L 119.154271 56.470747 
L 119.650038 55.232553 
L 120.135987 54.868123 
L 120.6125 53.946072 
L 121.079935 53.308383 
L 121.538633 52.839557 
L 121.988914 52.126194 
L 122.431082 51.438205 
L 122.865423 50.528553 
L 123.292209 49.3974 
L 123.7117 48.652943 
L 124.124141 48.069279 
L 124.529764 47.441361 
L 124.928791 46.645347 
L 125.321433 46.285636 
L 125.707892 45.945723 
L 126.088359 45.292661 
L 126.463017 45.06394 
L 126.832041 44.349451 
L 127.195597 43.460524 
L 127.553847 43.155183 
L 127.906941 42.553176 
L 128.255026 41.858776 
L 128.598244 41.349328 
L 128.936726 40.660303 
L 129.270604 40.221615 
L 129.6 40.222653 
L 129.925033 39.436909 
L 130.245817 38.729534 
L 130.562462 39.075809 
L 130.875073 38.750951 
L 131.183751 38.563879 
L 131.488595 37.607408 
L 131.789699 37.522313 
L 132.087152 37.623983 
L 132.381044 37.552871 
L 132.671457 37.650165 
L 132.958473 36.789357 
L 133.242171 37.306599 
L 133.522627 38.199957 
L 133.799914 38.649102 
L 134.074103 39.471708 
L 134.345262 37.817227 
L 134.613457 38.719 
L 134.878753 39.495738 
L 135.141211 37.667408 
L 135.400892 38.119874 
L 135.657854 36.345151 
L 135.912153 41.892863 
L 136.163844 43.90429 
L 136.65961 40.919715 
" clip-path="url(#p502542f7f2)" style="fill: none; stroke: #2ca02c; stroke-opacity: 0.5; stroke-width: 1.5; stroke-linecap: square"/>
   </g>
   <g id="line2d_118">
    <path d="M 23.650458 182.242124 
L 40.66003 174.944736 
L 50.609992 165.306341 
L 57.669602 167.531889 
L 63.145462 166.358849 
L 67.619564 155.650797 
L 71.402364 145.008217 
L 74.679175 143.329109 
L 77.569526 140.865024 
L 80.155034 137.831615 
L 82.49391 134.666127 
L 84.629137 127.0858 
L 86.593355 124.242125 
L 88.411937 121.999222 
L 90.104996 119.910842 
L 91.688747 117.13563 
L 93.176453 112.947932 
L 94.579099 110.387716 
L 95.905888 109.415617 
L 97.164606 109.497089 
L 98.361899 105.090904 
L 99.503483 102.360495 
L 100.594312 99.732751 
L 101.638709 97.700244 
L 102.640466 96.315657 
L 103.602927 96.140552 
L 104.529061 93.956398 
L 105.421509 93.543776 
L 106.282637 90.881285 
L 107.114568 88.516169 
L 107.919218 85.432169 
L 108.69832 83.831486 
L 109.453445 85.360772 
L 110.186025 85.010555 
L 110.897368 83.515208 
L 111.588671 81.703047 
L 112.261032 79.217014 
L 112.915461 77.237577 
L 113.552889 77.373974 
L 114.780126 71.331725 
L 115.371471 73.214804 
L 115.948901 72.192393 
L 116.513055 74.240901 
L 117.06453 79.581712 
" clip-path="url(#p502542f7f2)" style="fill: none; stroke: #d62728; stroke-opacity: 0.5; stroke-width: 1.5; stroke-linecap: square"/>
   </g>
   <g id="line2d_119">
    <path d="M 23.650458 161.723647 
L 40.66003 152.458778 
L 50.609992 156.533214 
L 57.669602 149.237024 
L 63.145462 140.94156 
L 67.619564 141.356851 
L 71.402364 136.903336 
L 74.679175 136.029682 
L 77.569526 129.899842 
L 80.155034 128.429834 
L 82.49391 128.887135 
L 84.629137 124.156683 
L 86.593355 119.016091 
L 88.411937 118.394447 
L 90.104996 114.788722 
L 91.688747 117.221719 
L 93.176453 108.721549 
L 94.579099 108.303918 
L 95.905888 104.512171 
L 97.164606 101.791666 
L 98.361899 99.276199 
L 99.503483 100.8468 
L 100.594312 97.655668 
L 101.638709 94.67597 
L 102.640466 94.006789 
L 103.602927 88.833197 
L 104.529061 91.272999 
L 105.421509 88.239305 
L 106.282637 88.497098 
L 107.114568 85.807343 
L 107.919218 85.850416 
L 108.69832 78.296763 
L 109.453445 82.147765 
L 110.186025 81.475893 
L 110.897368 81.284513 
L 111.588671 78.334648 
L 112.261032 80.485672 
L 112.915461 80.505303 
L 113.552889 82.7976 
L 114.174179 77.606026 
L 114.780126 74.151739 
L 115.371471 72.599984 
L 115.948901 65.510888 
L 116.513055 70.445874 
L 117.06453 69.484544 
L 117.603885 73.214804 
L 118.131639 67.70982 
L 118.648282 73.257533 
" clip-path="url(#p502542f7f2)" style="fill: none; stroke: #9467bd; stroke-opacity: 0.5; stroke-width: 1.5; stroke-linecap: square"/>
   </g>
   <g id="line2d_120">
    <path d="M 23.650458 161.30074 
L 40.66003 157.041658 
L 50.609992 152.136175 
L 57.669602 144.825541 
L 63.145462 143.562069 
L 67.619564 140.408215 
L 71.402364 134.157959 
L 74.679175 136.778318 
L 77.569526 134.930477 
L 80.155034 125.617383 
L 82.49391 128.289338 
L 84.629137 124.992474 
L 86.593355 116.082152 
L 88.411937 114.34933 
L 90.104996 116.481996 
L 91.688747 108.615472 
L 93.176453 107.682219 
L 94.579099 103.212875 
L 95.905888 100.475571 
L 97.164606 100.070712 
L 98.361899 98.655352 
L 99.503483 97.145419 
L 100.594312 95.070306 
L 101.638709 92.859844 
L 102.640466 94.683319 
L 103.602927 90.070344 
L 104.529061 89.982194 
L 105.421509 88.722992 
L 106.282637 84.642083 
L 107.114568 85.601399 
L 107.919218 82.461872 
L 108.69832 79.942805 
L 109.453445 79.975093 
L 110.186025 78.458006 
L 110.897368 77.642884 
L 111.588671 77.48648 
L 112.261032 76.155002 
L 112.915461 73.63809 
L 113.552889 72.77219 
L 114.174179 71.528979 
L 114.780126 70.090844 
L 115.371471 69.776011 
L 115.948901 66.490082 
L 116.513055 68.007076 
L 117.06453 66.348045 
L 117.603885 64.20546 
L 118.131639 62.973977 
L 118.648282 60.964364 
L 119.154271 62.050901 
L 119.650038 62.162176 
L 120.135987 59.5845 
L 120.6125 60.746072 
L 121.079935 56.358486 
L 121.538633 58.322711 
L 121.988914 56.746833 
L 122.431082 55.565097 
L 122.865423 54.598371 
L 123.292209 54.082984 
L 123.7117 52.590859 
L 124.124141 52.373167 
L 124.529764 52.194046 
L 124.928791 51.370778 
L 125.321433 52.657007 
L 125.707892 51.387697 
L 126.088359 49.387966 
L 126.463017 47.435681 
L 126.832041 47.849562 
L 127.195597 47.049966 
L 127.553847 47.217786 
L 127.906941 46.910728 
L 128.255026 46.928754 
L 128.598244 45.627764 
L 128.936726 45.985269 
L 129.270604 45.32212 
L 129.6 45.025111 
L 129.925033 43.167045 
L 130.245817 42.556879 
L 130.562462 42.996599 
L 130.875073 46.314905 
L 131.183751 43.857593 
L 131.488595 39.015202 
L 131.789699 39.876893 
L 132.087152 38.792221 
L 132.381044 40.476002 
L 132.671457 41.071293 
L 132.958473 40.551452 
L 133.242171 39.645301 
L 133.522627 38.576957 
L 133.799914 33.381099 
L 134.074103 35.370745 
L 134.345262 35.911452 
L 134.613457 37.975537 
L 134.878753 36.269971 
L 135.141211 32.991791 
L 135.400892 36.345151 
L 135.657854 40.919715 
" clip-path="url(#p502542f7f2)" style="fill: none; stroke: #8c564b; stroke-opacity: 0.5; stroke-width: 1.5; stroke-linecap: square"/>
   </g>
   <g id="line2d_121">
    <path d="M 23.650458 171.252644 
L 40.66003 163.041971 
L 50.609992 151.507266 
L 57.669602 145.366224 
L 63.145462 144.583362 
L 67.619564 140.422428 
L 71.402364 139.84824 
L 74.679175 130.989165 
L 77.569526 127.611303 
L 80.155034 121.11943 
L 82.49391 114.157255 
L 84.629137 111.869973 
L 86.593355 110.314259 
L 88.411937 107.265649 
L 90.104996 104.248166 
L 91.688747 101.190739 
L 93.176453 97.296328 
L 94.579099 96.676005 
L 95.905888 93.164877 
L 97.164606 91.979329 
L 98.361899 90.991398 
L 99.503483 87.501854 
L 100.594312 86.974815 
L 101.638709 82.745499 
L 102.640466 79.384606 
L 103.602927 77.135816 
L 104.529061 74.240901 
L 105.421509 67.70982 
" clip-path="url(#p502542f7f2)" style="fill: none; stroke: #e377c2; stroke-opacity: 0.5; stroke-width: 1.5; stroke-linecap: square"/>
   </g>
   <g id="line2d_122">
    <path d="M 23.650458 175.486674 
L 40.66003 159.762145 
L 50.609992 156.285699 
L 57.669602 149.021817 
L 63.145462 143.431896 
L 67.619564 137.936057 
L 71.402364 132.325907 
L 74.679175 125.117182 
L 77.569526 119.372883 
L 80.155034 115.767175 
L 82.49391 113.042882 
L 84.629137 109.106137 
L 86.593355 104.50371 
L 88.411937 100.597224 
L 90.104996 96.928765 
L 91.688747 95.166218 
L 93.176453 94.67387 
L 94.579099 92.284294 
L 95.905888 87.908755 
L 97.164606 85.28897 
L 98.361899 83.73552 
L 99.503483 81.372772 
L 100.594312 81.583777 
L 101.638709 79.948279 
L 102.640466 79.459492 
L 103.602927 77.152744 
L 104.529061 75.323562 
L 105.421509 74.544443 
L 106.282637 69.748526 
L 107.114568 68.4123 
L 107.919218 73.214804 
L 108.69832 66.775522 
L 109.453445 64.573939 
L 110.186025 73.257533 
L 111.588671 69.484544 
L 112.261032 69.484544 
L 112.915461 71.331725 
L 113.552889 64.35646 
L 114.174179 58.314211 
" clip-path="url(#p502542f7f2)" style="fill: none; stroke: #7f7f7f; stroke-opacity: 0.5; stroke-width: 1.5; stroke-linecap: square"/>
   </g>
   <g id="line2d_123">
    <path d="M 23.650458 159.208914 
L 40.66003 156.365678 
L 50.609992 146.678673 
L 57.669602 134.289157 
L 63.145462 130.738632 
L 67.619564 123.55623 
L 71.402364 117.851671 
L 74.679175 116.031487 
L 77.569526 109.177237 
L 80.155034 105.497136 
L 82.49391 100.06531 
L 84.629137 95.86682 
L 86.593355 92.892003 
L 88.411937 88.893977 
L 90.104996 86.160192 
L 91.688747 83.516071 
L 93.176453 80.038795 
L 94.579099 78.363929 
L 95.905888 75.398347 
L 97.164606 73.035867 
L 98.361899 70.732539 
L 99.503483 69.425254 
L 100.594312 66.228557 
L 101.638709 65.000419 
L 102.640466 62.735598 
L 103.602927 60.964438 
L 104.529061 59.109475 
L 105.421509 57.390621 
L 106.282637 55.742612 
L 107.114568 54.723443 
L 107.919218 52.71501 
L 108.69832 51.749498 
L 109.453445 50.454265 
L 110.186025 49.485967 
L 110.897368 48.946823 
L 111.588671 47.601295 
L 112.261032 46.154802 
L 112.915461 45.194423 
L 113.552889 44.047677 
L 114.174179 42.539086 
L 114.780126 41.400185 
L 115.371471 40.735088 
L 115.948901 39.062327 
L 116.513055 38.647481 
L 117.06453 37.143494 
L 117.603885 36.823515 
L 118.131639 35.753312 
L 118.648282 34.268021 
L 119.154271 32.187409 
L 119.650038 31.116554 
L 120.135987 30.078238 
L 120.6125 29.492824 
L 121.079935 26.247982 
" clip-path="url(#p502542f7f2)" style="fill: none; stroke: #bcbd22; stroke-opacity: 0.5; stroke-width: 1.5; stroke-linecap: square"/>
   </g>
   <g id="line2d_124">
    <path d="M 23.650458 164.692882 
L 40.66003 155.868675 
L 50.609992 151.378409 
L 57.669602 151.657235 
L 63.145462 146.962494 
L 67.619564 155.362109 
L 71.402364 147.967992 
L 74.679175 139.433013 
L 77.569526 138.121965 
L 80.155034 137.812085 
L 82.49391 133.388057 
L 84.629137 134.828081 
L 86.593355 130.418344 
L 88.411937 127.475706 
L 90.104996 127.0858 
L 91.688747 126.618664 
L 93.176453 125.721127 
L 94.579099 123.535361 
L 95.905888 120.461903 
L 97.164606 114.656641 
L 98.361899 114.686474 
L 99.503483 112.896021 
L 100.594312 111.488681 
L 101.638709 109.557022 
L 102.640466 109.349259 
L 103.602927 105.633177 
L 104.529061 103.036274 
L 105.421509 100.853739 
L 106.282637 100.740874 
L 107.114568 100.401183 
L 107.919218 99.449927 
L 108.69832 98.252874 
L 109.453445 96.696082 
L 110.186025 97.035805 
L 110.897368 95.191441 
L 111.588671 95.209645 
L 112.261032 94.384744 
L 112.915461 93.239691 
L 113.552889 89.270163 
L 114.174179 88.114001 
L 114.780126 87.257323 
L 115.371471 86.327795 
L 115.948901 85.8167 
L 116.513055 84.963759 
L 117.06453 84.596654 
L 117.603885 84.191753 
L 118.131639 85.29106 
L 118.648282 85.321733 
L 119.154271 84.885427 
L 119.650038 83.956958 
L 120.135987 84.74104 
L 120.6125 84.738968 
L 121.079935 84.459239 
L 121.538633 83.531238 
L 121.988914 82.819344 
L 122.431082 81.892273 
L 122.865423 79.548742 
L 123.292209 79.275277 
L 123.7117 79.23473 
L 124.124141 78.429413 
L 124.529764 76.386857 
L 124.928791 73.958701 
L 125.321433 75.723419 
L 125.707892 77.991556 
L 126.088359 76.061782 
L 126.463017 78.379299 
L 126.832041 79.935143 
L 127.195597 82.570539 
L 127.553847 86.857486 
L 127.906941 88.10026 
L 128.255026 89.678881 
L 128.598244 89.678881 
L 128.936726 89.678881 
L 129.270604 86.935638 
L 129.6 92.599226 
L 129.925033 86.935638 
L 130.245817 95.72113 
" clip-path="url(#p502542f7f2)" style="fill: none; stroke: #17becf; stroke-opacity: 0.5; stroke-width: 1.5; stroke-linecap: square"/>
   </g>
   <g id="line2d_125">
    <path d="M 23.650458 171.802567 
L 40.66003 161.527476 
L 50.609992 160.28223 
L 57.669602 153.618392 
L 63.145462 144.969409 
L 67.619564 140.59311 
L 71.402364 137.145653 
L 74.679175 137.006139 
L 77.569526 133.699059 
L 80.155034 124.822116 
L 82.49391 122.105038 
L 84.629137 119.725657 
L 86.593355 116.398377 
L 88.411937 111.678751 
L 90.104996 111.861557 
L 91.688747 109.036579 
L 93.176453 104.774975 
L 94.579099 104.072927 
L 95.905888 104.461568 
L 97.164606 100.574324 
L 98.361899 100.290018 
L 99.503483 97.980185 
L 100.594312 94.73419 
L 101.638709 94.356917 
L 102.640466 92.008061 
L 103.602927 90.434541 
L 104.529061 88.582227 
L 105.421509 87.5909 
L 106.282637 86.628929 
L 107.114568 84.489331 
L 107.919218 83.767119 
L 108.69832 81.672783 
L 109.453445 79.862936 
L 110.186025 79.06355 
L 110.897368 77.353462 
L 111.588671 75.850676 
L 112.261032 74.581662 
L 112.915461 71.819519 
L 113.552889 70.437782 
L 114.174179 69.85796 
L 114.780126 68.194697 
L 115.371471 65.797053 
L 115.948901 65.07179 
L 116.513055 64.407822 
L 117.06453 63.048303 
L 117.603885 62.574385 
L 118.131639 61.567387 
L 118.648282 59.83338 
L 119.154271 57.231394 
L 119.650038 55.621912 
L 120.135987 54.496009 
L 120.6125 52.880067 
L 121.079935 50.941155 
L 121.538633 52.98457 
" clip-path="url(#p502542f7f2)" style="fill: none; stroke: #1f77b4; stroke-opacity: 0.5; stroke-width: 1.5; stroke-linecap: square"/>
   </g>
   <g id="line2d_126">
    <path d="M 23.650458 158.656619 
L 40.66003 144.651761 
L 50.609992 145.022501 
L 57.669602 141.397336 
L 63.145462 137.981307 
L 67.619564 133.671643 
L 71.402364 129.438141 
L 74.679175 119.594427 
L 77.569526 114.807662 
L 80.155034 112.850449 
L 82.49391 108.359906 
L 84.629137 104.448505 
L 86.593355 99.881669 
L 88.411937 96.459307 
L 90.104996 93.60494 
L 91.688747 90.48444 
L 93.176453 88.094374 
L 94.579099 85.376426 
L 95.905888 82.522178 
L 97.164606 80.836419 
L 98.361899 78.221924 
L 99.503483 76.707878 
L 100.594312 75.271882 
L 101.638709 73.683869 
L 102.640466 72.909517 
L 103.602927 71.155656 
L 104.529061 69.891956 
L 105.421509 68.582684 
L 106.282637 67.524978 
L 107.114568 68.569353 
L 107.919218 67.213279 
L 108.69832 65.751316 
L 109.453445 64.772523 
L 110.186025 64.573939 
L 110.897368 64.007102 
L 111.588671 62.362006 
L 112.261032 61.988574 
L 112.915461 61.167619 
L 113.552889 60.431955 
L 114.174179 59.750829 
" clip-path="url(#p502542f7f2)" style="fill: none; stroke: #ff7f0e; stroke-opacity: 0.5; stroke-width: 1.5; stroke-linecap: square"/>
   </g>
   <g id="line2d_127">
    <defs>
     <path id="macb53b4c16" d="M 0 1 
C 0.265203 1 0.51958 0.894634 0.707107 0.707107 
C 0.894634 0.51958 1 0.265203 1 0 
C 1 -0.265203 0.894634 -0.51958 0.707107 -0.707107 
C 0.51958 -0.894634 0.265203 -1 0 -1 
C -0.265203 -1 -0.51958 -0.894634 -0.707107 -0.707107 
C -0.894634 -0.51958 -1 -0.265203 -1 0 
C -1 0.265203 -0.894634 0.51958 -0.707107 0.707107 
C -0.51958 0.894634 -0.265203 1 0 1 
z
" style="stroke: #000000"/>
    </defs>
    <g clip-path="url(#p502542f7f2)">
     <use xlink:href="#macb53b4c16" x="23.650458" y="170.007655" style="stroke: #000000"/>
     <use xlink:href="#macb53b4c16" x="40.66003" y="162.451447" style="stroke: #000000"/>
     <use xlink:href="#macb53b4c16" x="50.609992" y="157.46288" style="stroke: #000000"/>
     <use xlink:href="#macb53b4c16" x="57.669602" y="150.318915" style="stroke: #000000"/>
     <use xlink:href="#macb53b4c16" x="63.145462" y="146.180689" style="stroke: #000000"/>
     <use xlink:href="#macb53b4c16" x="67.619564" y="141.956404" style="stroke: #000000"/>
     <use xlink:href="#macb53b4c16" x="71.402364" y="138.228621" style="stroke: #000000"/>
     <use xlink:href="#macb53b4c16" x="74.679175" y="134.731856" style="stroke: #000000"/>
     <use xlink:href="#macb53b4c16" x="77.569526" y="130.249784" style="stroke: #000000"/>
     <use xlink:href="#macb53b4c16" x="80.155034" y="126.697381" style="stroke: #000000"/>
     <use xlink:href="#macb53b4c16" x="82.49391" y="123.43482" style="stroke: #000000"/>
     <use xlink:href="#macb53b4c16" x="84.629137" y="120.661429" style="stroke: #000000"/>
     <use xlink:href="#macb53b4c16" x="86.593355" y="118.009252" style="stroke: #000000"/>
     <use xlink:href="#macb53b4c16" x="88.411937" y="114.924854" style="stroke: #000000"/>
     <use xlink:href="#macb53b4c16" x="90.104996" y="112.484882" style="stroke: #000000"/>
     <use xlink:href="#macb53b4c16" x="91.688747" y="110.133157" style="stroke: #000000"/>
     <use xlink:href="#macb53b4c16" x="93.176453" y="107.484244" style="stroke: #000000"/>
     <use xlink:href="#macb53b4c16" x="94.579099" y="105.966374" style="stroke: #000000"/>
     <use xlink:href="#macb53b4c16" x="95.905888" y="103.473453" style="stroke: #000000"/>
     <use xlink:href="#macb53b4c16" x="97.164606" y="101.465562" style="stroke: #000000"/>
     <use xlink:href="#macb53b4c16" x="98.361899" y="99.986669" style="stroke: #000000"/>
     <use xlink:href="#macb53b4c16" x="99.503483" y="98.104951" style="stroke: #000000"/>
     <use xlink:href="#macb53b4c16" x="100.594312" y="96.502956" style="stroke: #000000"/>
     <use xlink:href="#macb53b4c16" x="101.638709" y="95.037376" style="stroke: #000000"/>
     <use xlink:href="#macb53b4c16" x="102.640466" y="93.23618" style="stroke: #000000"/>
     <use xlink:href="#macb53b4c16" x="103.602927" y="91.738348" style="stroke: #000000"/>
     <use xlink:href="#macb53b4c16" x="104.529061" y="90.214995" style="stroke: #000000"/>
     <use xlink:href="#macb53b4c16" x="105.421509" y="88.824142" style="stroke: #000000"/>
     <use xlink:href="#macb53b4c16" x="106.282637" y="87.81006" style="stroke: #000000"/>
     <use xlink:href="#macb53b4c16" x="107.114568" y="86.795509" style="stroke: #000000"/>
     <use xlink:href="#macb53b4c16" x="107.919218" y="86.295644" style="stroke: #000000"/>
     <use xlink:href="#macb53b4c16" x="108.69832" y="84.860811" style="stroke: #000000"/>
     <use xlink:href="#macb53b4c16" x="109.453445" y="83.565968" style="stroke: #000000"/>
     <use xlink:href="#macb53b4c16" x="110.186025" y="82.851033" style="stroke: #000000"/>
     <use xlink:href="#macb53b4c16" x="110.897368" y="82.168154" style="stroke: #000000"/>
     <use xlink:href="#macb53b4c16" x="111.588671" y="80.881502" style="stroke: #000000"/>
     <use xlink:href="#macb53b4c16" x="112.261032" y="79.681234" style="stroke: #000000"/>
     <use xlink:href="#macb53b4c16" x="112.915461" y="78.836767" style="stroke: #000000"/>
     <use xlink:href="#macb53b4c16" x="113.552889" y="77.932287" style="stroke: #000000"/>
     <use xlink:href="#macb53b4c16" x="114.174179" y="76.680573" style="stroke: #000000"/>
     <use xlink:href="#macb53b4c16" x="114.780126" y="75.9701" style="stroke: #000000"/>
     <use xlink:href="#macb53b4c16" x="115.371471" y="75.825255" style="stroke: #000000"/>
     <use xlink:href="#macb53b4c16" x="115.948901" y="74.946072" style="stroke: #000000"/>
     <use xlink:href="#macb53b4c16" x="116.513055" y="74.114588" style="stroke: #000000"/>
     <use xlink:href="#macb53b4c16" x="117.06453" y="73.281456" style="stroke: #000000"/>
     <use xlink:href="#macb53b4c16" x="117.603885" y="72.633669" style="stroke: #000000"/>
     <use xlink:href="#macb53b4c16" x="118.131639" y="71.586273" style="stroke: #000000"/>
     <use xlink:href="#macb53b4c16" x="118.648282" y="70.589174" style="stroke: #000000"/>
     <use xlink:href="#macb53b4c16" x="119.154271" y="69.740679" style="stroke: #000000"/>
     <use xlink:href="#macb53b4c16" x="119.650038" y="68.734275" style="stroke: #000000"/>
     <use xlink:href="#macb53b4c16" x="120.135987" y="68.649719" style="stroke: #000000"/>
     <use xlink:href="#macb53b4c16" x="120.6125" y="68.153118" style="stroke: #000000"/>
     <use xlink:href="#macb53b4c16" x="121.079935" y="66.661362" style="stroke: #000000"/>
     <use xlink:href="#macb53b4c16" x="121.538633" y="68.47693" style="stroke: #000000"/>
     <use xlink:href="#macb53b4c16" x="121.988914" y="68.094115" style="stroke: #000000"/>
     <use xlink:href="#macb53b4c16" x="122.431082" y="67.270964" style="stroke: #000000"/>
     <use xlink:href="#macb53b4c16" x="122.865423" y="66.391938" style="stroke: #000000"/>
     <use xlink:href="#macb53b4c16" x="123.292209" y="65.843572" style="stroke: #000000"/>
     <use xlink:href="#macb53b4c16" x="123.7117" y="65.08499" style="stroke: #000000"/>
     <use xlink:href="#macb53b4c16" x="124.124141" y="64.26725" style="stroke: #000000"/>
     <use xlink:href="#macb53b4c16" x="124.529764" y="63.571023" style="stroke: #000000"/>
     <use xlink:href="#macb53b4c16" x="124.928791" y="62.732069" style="stroke: #000000"/>
     <use xlink:href="#macb53b4c16" x="125.321433" y="62.482953" style="stroke: #000000"/>
     <use xlink:href="#macb53b4c16" x="125.707892" y="61.852815" style="stroke: #000000"/>
     <use xlink:href="#macb53b4c16" x="126.088359" y="62.249416" style="stroke: #000000"/>
     <use xlink:href="#macb53b4c16" x="126.463017" y="61.668619" style="stroke: #000000"/>
     <use xlink:href="#macb53b4c16" x="126.832041" y="60.952164" style="stroke: #000000"/>
     <use xlink:href="#macb53b4c16" x="127.195597" y="60.36467" style="stroke: #000000"/>
     <use xlink:href="#macb53b4c16" x="127.553847" y="59.976731" style="stroke: #000000"/>
     <use xlink:href="#macb53b4c16" x="127.906941" y="59.357996" style="stroke: #000000"/>
     <use xlink:href="#macb53b4c16" x="128.255026" y="58.866161" style="stroke: #000000"/>
     <use xlink:href="#macb53b4c16" x="128.598244" y="58.110674" style="stroke: #000000"/>
     <use xlink:href="#macb53b4c16" x="128.936726" y="57.579861" style="stroke: #000000"/>
     <use xlink:href="#macb53b4c16" x="129.270604" y="58.874884" style="stroke: #000000"/>
     <use xlink:href="#macb53b4c16" x="129.6" y="58.652701" style="stroke: #000000"/>
     <use xlink:href="#macb53b4c16" x="129.925033" y="59.633936" style="stroke: #000000"/>
     <use xlink:href="#macb53b4c16" x="130.245817" y="58.213202" style="stroke: #000000"/>
     <use xlink:href="#macb53b4c16" x="130.562462" y="57.133425" style="stroke: #000000"/>
     <use xlink:href="#macb53b4c16" x="130.875073" y="58.557461" style="stroke: #000000"/>
     <use xlink:href="#macb53b4c16" x="131.183751" y="58.523412" style="stroke: #000000"/>
     <use xlink:href="#macb53b4c16" x="131.488595" y="61.461474" style="stroke: #000000"/>
     <use xlink:href="#macb53b4c16" x="131.789699" y="65.375614" style="stroke: #000000"/>
     <use xlink:href="#macb53b4c16" x="132.087152" y="64.704802" style="stroke: #000000"/>
     <use xlink:href="#macb53b4c16" x="132.381044" y="64.55975" style="stroke: #000000"/>
     <use xlink:href="#macb53b4c16" x="132.671457" y="64.58735" style="stroke: #000000"/>
     <use xlink:href="#macb53b4c16" x="132.958473" y="63.384213" style="stroke: #000000"/>
     <use xlink:href="#macb53b4c16" x="133.242171" y="62.85366" style="stroke: #000000"/>
     <use xlink:href="#macb53b4c16" x="133.522627" y="62.820195" style="stroke: #000000"/>
     <use xlink:href="#macb53b4c16" x="133.799914" y="61.46444" style="stroke: #000000"/>
     <use xlink:href="#macb53b4c16" x="134.074103" y="61.4761" style="stroke: #000000"/>
     <use xlink:href="#macb53b4c16" x="134.345262" y="61.114078" style="stroke: #000000"/>
     <use xlink:href="#macb53b4c16" x="134.613457" y="61.100109" style="stroke: #000000"/>
     <use xlink:href="#macb53b4c16" x="134.878753" y="60.316805" style="stroke: #000000"/>
     <use xlink:href="#macb53b4c16" x="135.141211" y="59.379615" style="stroke: #000000"/>
     <use xlink:href="#macb53b4c16" x="135.400892" y="59.758368" style="stroke: #000000"/>
     <use xlink:href="#macb53b4c16" x="135.657854" y="66.853234" style="stroke: #000000"/>
     <use xlink:href="#macb53b4c16" x="135.912153" y="73.857402" style="stroke: #000000"/>
     <use xlink:href="#macb53b4c16" x="136.163844" y="74.678737" style="stroke: #000000"/>
     <use xlink:href="#macb53b4c16" x="136.412979" y="82.488695" style="stroke: #000000"/>
     <use xlink:href="#macb53b4c16" x="136.65961" y="73.21157" style="stroke: #000000"/>
    </g>
   </g>
   <g id="patch_3">
    <path d="M 18 192.24 
L 18 25.92 
" style="fill: none; stroke: #000000; stroke-width: 0.8; stroke-linejoin: miter; stroke-linecap: square"/>
   </g>
   <g id="patch_4">
    <path d="M 129.6 192.24 
L 129.6 25.92 
" style="fill: none; stroke: #000000; stroke-width: 0.8; stroke-linejoin: miter; stroke-linecap: square"/>
   </g>
   <g id="patch_5">
    <path d="M 18 192.24 
L 129.6 192.24 
" style="fill: none; stroke: #000000; stroke-width: 0.8; stroke-linejoin: miter; stroke-linecap: square"/>
   </g>
   <g id="patch_6">
    <path d="M 18 25.92 
L 129.6 25.92 
" style="fill: none; stroke: #000000; stroke-width: 0.8; stroke-linejoin: miter; stroke-linecap: square"/>
   </g>
  </g>
 </g>
 <defs>
  <clipPath id="p502542f7f2">
   <rect x="18" y="25.92" width="111.6" height="166.32"/>
  </clipPath>
 </defs>
</svg>
