<?xml version="1.0" encoding="utf-8" standalone="no"?>
<!DOCTYPE svg PUBLIC "-//W3C//DTD SVG 1.1//EN"
  "http://www.w3.org/Graphics/SVG/1.1/DTD/svg11.dtd">
<svg xmlns:xlink="http://www.w3.org/1999/xlink" width="720pt" height="144pt" viewBox="0 0 720 144" xmlns="http://www.w3.org/2000/svg" version="1.1">
 <metadata>
  <rdf:RDF xmlns:dc="http://purl.org/dc/elements/1.1/" xmlns:cc="http://creativecommons.org/ns#" xmlns:rdf="http://www.w3.org/1999/02/22-rdf-syntax-ns#">
   <cc:Work>
    <dc:type rdf:resource="http://purl.org/dc/dcmitype/StillImage"/>
    <dc:date>2023-02-13T18:13:10.620677</dc:date>
    <dc:format>image/svg+xml</dc:format>
    <dc:creator>
     <cc:Agent>
      <dc:title>Matplotlib v3.6.2, https://matplotlib.org/</dc:title>
     </cc:Agent>
    </dc:creator>
   </cc:Work>
  </rdf:RDF>
 </metadata>
 <defs>
  <style type="text/css">*{stroke-linejoin: round; stroke-linecap: butt}</style>
 </defs>
 <g id="figure_1">
  <g id="patch_1">
   <path d="M 0 144 
L 720 144 
L 720 0 
L 0 0 
L 0 144 
z
" style="fill: none"/>
  </g>
  <g id="axes_1">
   <g id="patch_2">
    <path d="M 90 128.16 
L 648 128.16 
L 648 17.28 
L 90 17.28 
L 90 128.16 
z
" style="fill: none"/>
   </g>
   <g id="matplotlib.axis_1">
    <g id="xtick_1">
     <g id="line2d_1">
      <defs>
       <path id="m5cbf89fd3a" d="M 0 0 
L 0 -3.5 
" style="stroke: #000000; stroke-width: 0.8"/>
      </defs>
      <g>
       <use xlink:href="#m5cbf89fd3a" x="90" y="128.16" style="stroke: #000000; stroke-width: 0.8"/>
      </g>
     </g>
     <g id="line2d_2">
      <defs>
       <path id="m7db222208d" d="M 0 0 
L 0 3.5 
" style="stroke: #000000; stroke-width: 0.8"/>
      </defs>
      <g>
       <use xlink:href="#m7db222208d" x="90" y="17.28" style="stroke: #000000; stroke-width: 0.8"/>
      </g>
     </g>
     <g id="text_1">
      <text style="font: 14px 'DejaVu Sans', 'Bitstream Vera Sans', 'Computer Modern Sans Serif', 'Lucida Grande', 'Verdana', 'Geneva', 'Lucid', 'Arial', 'Helvetica', 'Avant Garde', sans-serif; text-anchor: middle" x="90" y="142.297812" transform="rotate(-0 90 142.297812)">0</text>
     </g>
    </g>
    <g id="xtick_2">
     <g id="line2d_3">
      <g>
       <use xlink:href="#m5cbf89fd3a" x="183" y="128.16" style="stroke: #000000; stroke-width: 0.8"/>
      </g>
     </g>
     <g id="line2d_4">
      <g>
       <use xlink:href="#m7db222208d" x="183" y="17.28" style="stroke: #000000; stroke-width: 0.8"/>
      </g>
     </g>
     <g id="text_2">
      <text style="font: 14px 'DejaVu Sans', 'Bitstream Vera Sans', 'Computer Modern Sans Serif', 'Lucida Grande', 'Verdana', 'Geneva', 'Lucid', 'Arial', 'Helvetica', 'Avant Garde', sans-serif; text-anchor: middle" x="183" y="142.297812" transform="rotate(-0 183 142.297812)">500</text>
     </g>
    </g>
    <g id="xtick_3">
     <g id="line2d_5">
      <g>
       <use xlink:href="#m5cbf89fd3a" x="276" y="128.16" style="stroke: #000000; stroke-width: 0.8"/>
      </g>
     </g>
     <g id="line2d_6">
      <g>
       <use xlink:href="#m7db222208d" x="276" y="17.28" style="stroke: #000000; stroke-width: 0.8"/>
      </g>
     </g>
     <g id="text_3">
      <text style="font: 14px 'DejaVu Sans', 'Bitstream Vera Sans', 'Computer Modern Sans Serif', 'Lucida Grande', 'Verdana', 'Geneva', 'Lucid', 'Arial', 'Helvetica', 'Avant Garde', sans-serif; text-anchor: middle" x="276" y="142.297812" transform="rotate(-0 276 142.297812)">1000</text>
     </g>
    </g>
    <g id="xtick_4">
     <g id="line2d_7">
      <g>
       <use xlink:href="#m5cbf89fd3a" x="369" y="128.16" style="stroke: #000000; stroke-width: 0.8"/>
      </g>
     </g>
     <g id="line2d_8">
      <g>
       <use xlink:href="#m7db222208d" x="369" y="17.28" style="stroke: #000000; stroke-width: 0.8"/>
      </g>
     </g>
     <g id="text_4">
      <text style="font: 14px 'DejaVu Sans', 'Bitstream Vera Sans', 'Computer Modern Sans Serif', 'Lucida Grande', 'Verdana', 'Geneva', 'Lucid', 'Arial', 'Helvetica', 'Avant Garde', sans-serif; text-anchor: middle" x="369" y="142.297812" transform="rotate(-0 369 142.297812)">1500</text>
     </g>
    </g>
    <g id="xtick_5">
     <g id="line2d_9">
      <g>
       <use xlink:href="#m5cbf89fd3a" x="462" y="128.16" style="stroke: #000000; stroke-width: 0.8"/>
      </g>
     </g>
     <g id="line2d_10">
      <g>
       <use xlink:href="#m7db222208d" x="462" y="17.28" style="stroke: #000000; stroke-width: 0.8"/>
      </g>
     </g>
     <g id="text_5">
      <text style="font: 14px 'DejaVu Sans', 'Bitstream Vera Sans', 'Computer Modern Sans Serif', 'Lucida Grande', 'Verdana', 'Geneva', 'Lucid', 'Arial', 'Helvetica', 'Avant Garde', sans-serif; text-anchor: middle" x="462" y="142.297812" transform="rotate(-0 462 142.297812)">2000</text>
     </g>
    </g>
    <g id="xtick_6">
     <g id="line2d_11">
      <g>
       <use xlink:href="#m5cbf89fd3a" x="555" y="128.16" style="stroke: #000000; stroke-width: 0.8"/>
      </g>
     </g>
     <g id="line2d_12">
      <g>
       <use xlink:href="#m7db222208d" x="555" y="17.28" style="stroke: #000000; stroke-width: 0.8"/>
      </g>
     </g>
     <g id="text_6">
      <text style="font: 14px 'DejaVu Sans', 'Bitstream Vera Sans', 'Computer Modern Sans Serif', 'Lucida Grande', 'Verdana', 'Geneva', 'Lucid', 'Arial', 'Helvetica', 'Avant Garde', sans-serif; text-anchor: middle" x="555" y="142.297812" transform="rotate(-0 555 142.297812)">2500</text>
     </g>
    </g>
    <g id="xtick_7">
     <g id="line2d_13">
      <g>
       <use xlink:href="#m5cbf89fd3a" x="648" y="128.16" style="stroke: #000000; stroke-width: 0.8"/>
      </g>
     </g>
     <g id="line2d_14">
      <g>
       <use xlink:href="#m7db222208d" x="648" y="17.28" style="stroke: #000000; stroke-width: 0.8"/>
      </g>
     </g>
     <g id="text_7">
      <text style="font: 14px 'DejaVu Sans', 'Bitstream Vera Sans', 'Computer Modern Sans Serif', 'Lucida Grande', 'Verdana', 'Geneva', 'Lucid', 'Arial', 'Helvetica', 'Avant Garde', sans-serif; text-anchor: middle" x="648" y="142.297812" transform="rotate(-0 648 142.297812)">3000</text>
     </g>
    </g>
   </g>
   <g id="matplotlib.axis_2">
    <g id="ytick_1">
     <g id="line2d_15">
      <defs>
       <path id="m9fc500a225" d="M 0 0 
L 3.5 0 
" style="stroke: #000000; stroke-width: 0.8"/>
      </defs>
      <g>
       <use xlink:href="#m9fc500a225" x="90" y="112.500421" style="stroke: #000000; stroke-width: 0.8"/>
      </g>
     </g>
     <g id="line2d_16">
      <defs>
       <path id="m0fb202f8bf" d="M 0 0 
L -3.5 0 
" style="stroke: #000000; stroke-width: 0.8"/>
      </defs>
      <g>
       <use xlink:href="#m0fb202f8bf" x="648" y="112.500421" style="stroke: #000000; stroke-width: 0.8"/>
      </g>
     </g>
     <g id="text_8">
      <text style="font: 14px 'DejaVu Sans', 'Bitstream Vera Sans', 'Computer Modern Sans Serif', 'Lucida Grande', 'Verdana', 'Geneva', 'Lucid', 'Arial', 'Helvetica', 'Avant Garde', sans-serif; text-anchor: end" x="86.5" y="117.819327" transform="rotate(-0 86.5 117.819327)">0</text>
     </g>
    </g>
    <g id="ytick_2">
     <g id="line2d_17">
      <g>
       <use xlink:href="#m9fc500a225" x="90" y="74.892557" style="stroke: #000000; stroke-width: 0.8"/>
      </g>
     </g>
     <g id="line2d_18">
      <g>
       <use xlink:href="#m0fb202f8bf" x="648" y="74.892557" style="stroke: #000000; stroke-width: 0.8"/>
      </g>
     </g>
     <g id="text_9">
      <text style="font: 14px 'DejaVu Sans', 'Bitstream Vera Sans', 'Computer Modern Sans Serif', 'Lucida Grande', 'Verdana', 'Geneva', 'Lucid', 'Arial', 'Helvetica', 'Avant Garde', sans-serif; text-anchor: end" x="86.5" y="80.211464" transform="rotate(-0 86.5 80.211464)">50</text>
     </g>
    </g>
    <g id="ytick_3">
     <g id="line2d_19">
      <g>
       <use xlink:href="#m9fc500a225" x="90" y="37.284694" style="stroke: #000000; stroke-width: 0.8"/>
      </g>
     </g>
     <g id="line2d_20">
      <g>
       <use xlink:href="#m0fb202f8bf" x="648" y="37.284694" style="stroke: #000000; stroke-width: 0.8"/>
      </g>
     </g>
     <g id="text_10">
      <text style="font: 14px 'DejaVu Sans', 'Bitstream Vera Sans', 'Computer Modern Sans Serif', 'Lucida Grande', 'Verdana', 'Geneva', 'Lucid', 'Arial', 'Helvetica', 'Avant Garde', sans-serif; text-anchor: end" x="86.5" y="42.6036" transform="rotate(-0 86.5 42.6036)">100</text>
     </g>
    </g>
   </g>
   <g id="line2d_21">
    <path d="M 90 122.757273 
L 90.186 123.12 
L 90.372 112.813237 
L 90.558 50.70397 
L 90.744 40.685776 
L 90.93 48.956641 
L 91.116 47.533862 
L 91.302 43.532568 
L 91.674 42.327964 
L 91.86 45.466751 
L 92.046 40.214052 
L 92.232 38.28986 
L 92.418 37.881014 
L 92.604 33.58854 
L 92.79 38.331634 
L 92.976 46.389278 
L 93.348 39.528231 
L 93.534 42.367305 
L 93.72 37.332269 
L 93.906 39.106459 
L 94.278 35.999744 
L 94.464 36.82789 
L 94.836 41.254222 
L 95.208 33.411723 
L 95.58 41.766811 
L 95.766 38.876624 
L 95.952 40.740503 
L 96.138 36.51326 
L 96.324 37.895931 
L 96.51 38.02857 
L 96.696 37.044481 
L 96.882 37.085313 
L 97.068 38.948291 
L 97.254 36.126536 
L 97.44 39.964942 
L 97.626 35.045934 
L 97.998 31.982626 
L 98.37 38.893448 
L 98.556 34.479191 
L 98.742 35.6909 
L 98.928 31.421423 
L 99.114 35.265125 
L 99.3 36.219024 
L 99.672 28.089342 
L 99.858 30.3621 
L 100.044 28.748391 
L 100.23 37.304423 
L 100.416 39.374974 
L 100.788 29.860637 
L 100.974 30.724444 
L 101.16 33.079937 
L 101.346 33.428304 
L 101.532 31.643383 
L 101.718 25.234589 
L 101.904 23.176988 
L 102.276 47.791238 
L 102.462 28.272198 
L 102.648 30.163782 
L 102.834 29.143671 
L 103.02 26.932681 
L 103.392 27.800032 
L 103.578 26.941306 
L 103.764 23.007511 
L 103.95 23.996985 
L 104.136 23.922901 
L 104.322 22.32 
L 104.508 23.511334 
L 104.694 22.547122 
L 104.88 24.999027 
L 105.066 30.747049 
L 105.252 29.784943 
L 105.438 33.779702 
L 105.81 73.26318 
L 105.996 78.632078 
L 106.182 80.626612 
L 106.368 81.252553 
L 106.554 76.928132 
L 106.926 83.774987 
L 107.112 83.985565 
L 107.484 87.805797 
L 107.67 92.236342 
L 107.856 87.08261 
L 108.042 86.026121 
L 108.228 86.774886 
L 108.414 78.717219 
L 108.6 80.93255 
L 108.786 75.011654 
L 108.972 79.609623 
L 109.344 91.853604 
L 109.53 92.021492 
L 109.716 89.176628 
L 109.902 91.7026 
L 110.088 89.008074 
L 110.46 97.179691 
L 110.646 94.577568 
L 110.832 90.218613 
L 111.018 89.178038 
L 111.204 90.378012 
L 111.39 88.929955 
L 111.576 88.826247 
L 111.762 95.708573 
L 112.134 86.397135 
L 112.32 83.701587 
L 112.506 89.51195 
L 112.692 89.182381 
L 112.878 87.726493 
L 113.064 92.859839 
L 113.25 82.28129 
L 113.622 91.568141 
L 113.994 86.108516 
L 114.18 85.379539 
L 114.552 92.161852 
L 114.924 80.93456 
L 115.11 78.177205 
L 115.482 89.080762 
L 115.668 89.286503 
L 115.854 87.740916 
L 116.04 90.108985 
L 116.226 88.832803 
L 116.412 85.189113 
L 116.598 87.499946 
L 116.784 92.019505 
L 117.156 94.717521 
L 117.342 92.309112 
L 117.528 86.457229 
L 117.714 90.639612 
L 117.9 91.999341 
L 118.086 90.893811 
L 118.458 86.557486 
L 118.83 83.193252 
L 119.016 81.035467 
L 119.202 84.102812 
L 119.388 84.297076 
L 119.574 85.257633 
L 119.76 90.355562 
L 119.946 88.030347 
L 120.132 90.823957 
L 120.318 89.571434 
L 120.69 92.882168 
L 120.876 97.256246 
L 121.062 93.715142 
L 121.248 95.985911 
L 121.434 94.235998 
L 121.62 94.610718 
L 121.806 90.367732 
L 121.992 82.857823 
L 122.178 83.841278 
L 122.364 88.10363 
L 122.55 89.325781 
L 122.736 84.252667 
L 122.922 85.723439 
L 123.108 83.112612 
L 123.294 83.241 
L 123.48 79.831241 
L 123.852 91.600621 
L 124.038 92.979492 
L 124.224 86.373193 
L 124.41 85.60296 
L 124.596 69.095092 
L 124.782 88.723997 
L 124.968 93.665875 
L 125.154 93.450117 
L 125.34 85.635633 
L 125.526 86.375898 
L 126.27 98.906162 
L 126.456 96.619518 
L 126.642 91.646501 
L 126.828 94.132166 
L 127.014 86.08249 
L 127.2 83.124585 
L 127.386 85.626856 
L 127.572 83.760591 
L 127.758 89.502144 
L 127.944 88.237525 
L 128.13 88.974133 
L 128.316 87.975775 
L 128.502 89.11002 
L 128.688 88.723736 
L 128.874 93.433917 
L 129.06 92.179984 
L 129.246 88.067965 
L 129.432 88.436803 
L 129.618 90.342608 
L 129.804 87.810793 
L 129.99 87.720935 
L 130.176 82.628539 
L 130.362 83.833272 
L 130.548 92.642711 
L 130.734 86.079324 
L 130.92 90.020515 
L 131.106 77.298931 
L 131.292 86.689944 
L 131.478 90.430116 
L 131.664 84.52218 
L 132.036 91.151359 
L 132.408 82.545498 
L 132.594 92.245793 
L 132.78 87.591767 
L 132.966 90.30571 
L 133.152 85.975816 
L 133.338 86.224002 
L 133.524 76.91134 
L 133.71 86.829692 
L 133.896 86.611713 
L 134.082 84.896583 
L 134.268 90.768824 
L 134.454 86.376521 
L 134.64 93.944495 
L 135.012 87.938177 
L 135.198 87.733156 
L 135.384 80.196826 
L 135.57 79.85563 
L 135.942 92.679204 
L 136.128 85.054555 
L 136.314 90.998983 
L 136.5 92.948015 
L 136.872 88.820334 
L 137.058 91.645484 
L 137.244 91.351893 
L 137.43 89.3171 
L 137.616 93.465609 
L 137.802 95.042359 
L 138.546 79.493143 
L 138.732 89.35082 
L 138.918 77.238015 
L 139.104 79.024317 
L 139.476 93.84847 
L 140.22 78.150271 
L 140.592 96.399594 
L 140.778 94.592994 
L 140.964 83.014804 
L 141.522 95.152866 
L 141.708 93.888554 
L 141.894 88.432822 
L 142.08 88.884671 
L 142.266 93.415216 
L 142.452 89.676971 
L 143.01 94.786677 
L 143.196 93.238292 
L 143.568 97.050615 
L 143.754 89.27668 
L 143.94 93.857732 
L 144.126 92.864397 
L 144.312 85.43832 
L 144.498 92.843464 
L 144.684 90.764401 
L 144.87 95.412436 
L 145.056 90.232734 
L 145.428 96.645574 
L 145.614 87.672719 
L 145.8 88.355564 
L 145.986 91.490195 
L 146.172 99.192191 
L 146.358 100.812491 
L 146.544 97.263343 
L 147.102 93.397813 
L 147.288 90.159424 
L 147.474 90.349947 
L 147.846 96.908837 
L 148.032 93.056929 
L 148.218 92.252446 
L 148.404 92.414994 
L 148.59 95.639045 
L 148.776 94.724269 
L 148.962 96.656072 
L 149.148 95.070181 
L 149.334 96.187324 
L 149.52 98.93751 
L 149.706 104.686277 
L 150.078 100.792502 
L 150.264 101.087418 
L 150.45 103.950728 
L 150.636 96.112972 
L 150.822 95.313794 
L 151.008 101.030318 
L 151.194 101.777314 
L 151.566 98.49186 
L 151.752 102.914295 
L 151.938 120.277867 
L 152.124 123.105003 
L 152.31 123.074199 
L 152.682 122.863216 
L 152.868 122.903675 
L 153.054 122.738304 
L 153.612 122.841772 
L 154.542 122.865867 
L 154.728 122.904059 
L 154.914 122.615361 
L 155.1 122.632428 
L 155.286 122.818848 
L 155.472 122.703534 
L 155.844 122.724269 
L 156.03 122.9074 
L 156.588 122.588879 
L 156.774 122.861674 
L 156.96 122.846751 
L 157.146 122.64752 
L 157.518 122.829045 
L 157.89 122.900909 
L 158.076 122.695283 
L 158.262 122.762109 
L 158.448 122.634082 
L 158.634 122.749258 
L 158.82 122.712124 
L 159.378 122.91597 
L 159.936 122.795713 
L 160.122 122.721823 
L 160.494 122.75715 
L 161.238 122.818017 
L 161.424 122.684628 
L 161.61 122.727288 
L 161.796 122.983214 
L 162.168 122.629171 
L 162.354 122.864131 
L 162.726 122.535065 
L 163.098 122.918627 
L 163.47 122.654345 
L 163.842 122.830028 
L 164.028 122.781676 
L 164.214 122.896836 
L 164.586 122.771366 
L 164.772 122.580831 
L 165.888 122.775821 
L 166.26 122.63882 
L 166.446 122.850703 
L 166.818 122.810074 
L 167.004 122.965088 
L 167.376 122.814615 
L 167.562 122.626598 
L 167.934 122.95649 
L 168.12 122.710599 
L 168.306 122.682402 
L 168.492 122.769262 
L 168.678 122.491883 
L 168.864 122.548656 
L 169.05 122.798502 
L 169.422 122.701747 
L 169.608 122.922783 
L 169.794 122.947236 
L 170.352 122.721607 
L 170.538 122.663593 
L 170.724 122.800325 
L 170.91 122.698975 
L 171.468 122.857158 
L 171.654 122.627754 
L 171.84 122.795473 
L 172.212 122.706008 
L 172.398 122.556873 
L 172.77 122.784496 
L 173.142 122.822476 
L 173.514 122.755368 
L 174.072 122.615193 
L 174.444 122.765221 
L 174.816 122.571128 
L 175.002 122.755906 
L 175.188 122.723659 
L 175.56 122.945092 
L 175.746 122.75332 
L 176.49 122.890238 
L 176.676 122.966987 
L 177.234 122.539278 
L 177.42 122.770764 
L 178.164 122.660249 
L 178.35 122.833145 
L 179.466 122.673324 
L 179.838 122.888656 
L 180.21 122.695617 
L 180.768 122.841254 
L 181.14 122.669758 
L 181.326 122.440938 
L 182.628 122.822622 
L 183.186 122.854493 
L 183.372 122.802148 
L 183.558 122.938618 
L 184.116 122.701212 
L 184.674 122.706691 
L 185.046 122.870064 
L 185.604 122.723831 
L 185.79 122.444501 
L 186.162 122.925026 
L 186.348 122.68073 
L 186.72 122.740951 
L 186.906 122.882675 
L 187.092 122.694277 
L 187.65 122.723592 
L 187.836 122.877166 
L 188.208 122.720494 
L 188.58 122.864663 
L 188.766 122.813949 
L 188.952 122.988671 
L 189.324 122.954118 
L 189.51 122.791169 
L 190.068 122.811261 
L 190.254 122.743514 
L 190.44 122.914174 
L 190.812 122.810794 
L 191.928 122.650147 
L 192.486 122.756367 
L 192.858 122.699787 
L 193.974 122.91514 
L 194.16 122.678968 
L 194.904 122.486458 
L 195.09 122.719252 
L 195.276 122.655937 
L 195.834 122.87096 
L 196.02 122.851683 
L 196.206 122.599446 
L 196.764 122.635283 
L 196.95 122.830984 
L 197.136 122.471013 
L 197.508 122.871488 
L 198.81 122.730025 
L 199.182 122.653588 
L 199.554 122.758322 
L 199.926 122.896236 
L 200.112 122.78102 
L 200.484 122.868795 
L 200.856 122.817183 
L 201.042 122.602781 
L 201.414 122.963564 
L 201.6 122.856322 
L 202.158 122.940815 
L 202.344 122.724693 
L 202.716 122.750014 
L 202.902 122.70864 
L 203.274 122.827986 
L 203.46 122.651594 
L 203.832 122.953712 
L 204.018 122.771399 
L 204.576 122.755437 
L 204.762 122.887707 
L 204.948 122.736581 
L 205.32 122.946845 
L 205.692 122.659916 
L 206.064 122.89628 
L 206.25 122.67062 
L 207.18 122.853698 
L 207.552 122.678503 
L 208.296 122.835614 
L 209.598 122.879446 
L 209.784 123.052422 
L 210.156 122.654828 
L 210.342 122.84947 
L 210.528 122.658292 
L 210.714 122.93574 
L 211.644 122.689283 
L 212.016 122.821825 
L 212.202 122.685154 
L 212.388 122.739492 
L 212.574 122.623647 
L 212.946 122.872335 
L 213.132 122.727689 
L 213.504 122.735751 
L 213.876 122.920674 
L 214.062 122.731512 
L 214.248 122.846522 
L 214.434 122.753615 
L 214.806 122.870693 
L 214.992 122.755867 
L 215.178 122.856232 
L 215.736 122.835685 
L 216.108 122.850524 
L 216.294 122.629598 
L 216.48 122.8073 
L 217.41 122.712665 
L 217.596 122.933416 
L 217.968 122.614443 
L 218.154 122.815493 
L 218.898 122.705766 
L 219.27 122.916439 
L 219.828 122.824696 
L 220.014 122.556823 
L 220.2 122.547702 
L 220.386 122.765188 
L 221.502 122.805735 
L 221.874 122.840057 
L 222.246 122.647254 
L 222.432 122.843832 
L 222.804 122.684439 
L 223.176 122.657575 
L 223.548 122.830226 
L 223.92 122.722053 
L 224.478 122.760567 
L 224.85 122.609842 
L 225.036 122.811932 
L 226.524 122.757837 
L 226.896 122.857034 
L 227.082 122.566785 
L 227.454 122.903751 
L 228.384 122.671644 
L 228.57 122.794481 
L 228.942 122.543085 
L 229.314 122.685898 
L 229.872 122.736167 
L 230.058 122.696128 
L 230.244 122.787448 
L 230.616 122.698037 
L 230.802 122.925428 
L 230.988 122.680919 
L 231.174 122.821734 
L 231.546 122.687694 
L 232.29 122.929995 
L 232.662 122.749625 
L 232.848 122.881965 
L 233.034 122.874478 
L 233.22 122.729833 
L 233.592 122.890997 
L 233.778 122.714342 
L 233.964 122.821413 
L 234.15 122.717579 
L 234.522 122.934309 
L 234.894 122.71981 
L 235.08 122.748675 
L 235.452 122.511579 
L 235.638 122.751495 
L 237.684 122.821747 
L 237.87 122.635734 
L 238.056 122.80058 
L 239.358 122.782332 
L 239.544 122.885608 
L 239.916 122.566688 
L 240.102 122.813572 
L 240.474 122.695721 
L 240.66 122.81032 
L 241.218 122.642189 
L 241.404 122.687075 
L 241.59 122.529915 
L 241.962 122.780499 
L 242.148 122.866714 
L 242.334 122.828663 
L 242.52 122.940586 
L 242.706 122.900864 
L 243.078 122.471022 
L 243.45 122.867015 
L 243.636 122.748424 
L 243.822 122.76938 
L 244.008 122.9307 
L 244.194 122.721692 
L 244.38 122.762726 
L 244.566 123.009593 
L 244.938 122.78905 
L 245.124 122.712624 
L 245.496 122.925136 
L 245.868 122.711668 
L 246.054 122.774806 
L 246.426 122.675152 
L 246.798 122.861074 
L 247.542 122.605303 
L 247.728 122.868134 
L 247.914 122.909987 
L 248.286 122.801057 
L 248.472 122.952456 
L 248.658 122.846859 
L 248.844 122.591662 
L 249.03 122.84634 
L 249.216 122.650603 
L 249.402 122.813793 
L 249.96 122.798488 
L 250.332 122.968924 
L 250.518 120.239781 
L 250.704 104.944337 
L 250.89 103.394435 
L 251.076 106.175769 
L 251.262 105.370871 
L 251.448 101.531611 
L 251.82 102.817265 
L 252.006 104.265185 
L 252.192 102.078657 
L 252.75 106.070763 
L 252.936 104.370878 
L 253.122 104.121228 
L 253.308 105.388372 
L 253.494 105.830034 
L 253.68 105.007744 
L 253.866 101.703095 
L 254.238 106.971868 
L 254.424 104.820341 
L 254.61 104.254992 
L 254.982 104.873158 
L 255.168 106.025914 
L 255.354 103.930639 
L 255.54 99.334902 
L 255.726 100.952178 
L 255.912 106.183759 
L 256.098 103.093239 
L 256.284 102.864294 
L 256.842 104.825881 
L 257.028 106.457348 
L 257.214 106.109869 
L 257.4 100.760498 
L 257.772 105.749743 
L 258.33 106.693726 
L 258.516 109.014133 
L 259.074 106.951075 
L 259.26 105.357075 
L 259.818 108.912975 
L 260.004 107.598549 
L 260.19 107.712126 
L 260.376 108.892764 
L 260.562 108.360492 
L 260.748 108.442733 
L 260.934 110.236183 
L 261.12 109.851645 
L 261.306 106.435449 
L 261.492 106.283204 
L 261.864 102.117761 
L 262.05 107.628501 
L 262.422 104.246585 
L 262.608 105.926709 
L 262.794 106.097746 
L 262.98 106.920791 
L 263.166 108.547274 
L 263.352 108.329773 
L 263.538 107.098558 
L 263.724 108.263439 
L 263.91 110.14358 
L 264.096 110.672129 
L 264.282 108.4145 
L 264.468 108.87571 
L 264.654 107.020058 
L 264.84 106.838056 
L 265.026 108.902256 
L 265.212 107.762701 
L 265.584 109.854306 
L 265.77 108.463265 
L 265.956 110.513522 
L 266.142 121.122993 
L 266.328 122.853093 
L 266.514 122.77564 
L 266.7 122.886335 
L 267.63 122.666136 
L 267.816 122.851229 
L 268.746 122.800218 
L 268.932 122.866683 
L 269.304 122.550812 
L 269.49 122.735128 
L 269.862 122.664739 
L 270.048 122.903017 
L 270.606 122.529661 
L 270.792 122.316095 
L 270.978 122.671251 
L 271.35 122.710383 
L 271.536 122.812525 
L 271.908 122.672628 
L 272.094 122.591597 
L 272.28 122.70623 
L 272.652 122.515749 
L 272.838 122.72702 
L 273.024 122.645016 
L 273.21 122.693175 
L 273.396 122.908111 
L 273.582 122.894549 
L 273.768 122.566988 
L 273.954 122.640188 
L 274.14 122.857411 
L 274.326 122.776526 
L 274.512 122.570636 
L 274.884 122.787207 
L 275.256 122.936558 
L 275.628 122.764218 
L 275.814 122.839218 
L 276 122.636002 
L 276.186 122.758297 
L 276.372 122.539818 
L 276.558 122.766906 
L 277.116 122.771651 
L 277.302 122.547118 
L 277.488 122.821155 
L 278.232 122.645712 
L 278.976 122.762463 
L 279.72 122.731685 
L 279.906 122.866737 
L 280.092 122.725634 
L 280.464 122.938634 
L 280.65 122.764284 
L 280.836 122.866485 
L 281.022 122.713312 
L 282.138 122.926111 
L 282.324 122.746042 
L 282.51 122.869988 
L 282.696 122.758885 
L 282.882 122.875889 
L 283.626 122.727135 
L 283.812 122.845235 
L 283.998 122.735509 
L 284.556 122.716093 
L 284.928 122.64967 
L 285.3 122.825835 
L 285.486 122.894016 
L 285.858 122.76507 
L 286.23 122.909912 
L 286.788 122.674069 
L 287.16 122.847198 
L 287.346 122.721046 
L 287.532 122.787458 
L 287.718 122.675555 
L 287.904 122.892333 
L 288.09 122.707956 
L 288.834 122.827945 
L 289.02 122.588347 
L 289.206 122.675007 
L 289.392 122.890874 
L 290.136 122.654085 
L 290.322 122.791992 
L 290.508 122.681097 
L 291.066 122.942364 
L 291.438 122.292034 
L 291.996 122.80894 
L 292.368 122.583196 
L 292.926 122.901661 
L 293.112 122.776724 
L 293.484 122.746881 
L 293.67 122.525831 
L 293.856 122.789662 
L 294.042 122.82589 
L 294.228 122.593157 
L 294.6 122.890441 
L 295.158 122.737055 
L 295.344 122.815315 
L 295.53 122.710209 
L 296.646 122.788125 
L 296.832 122.584046 
L 297.018 122.706794 
L 297.762 122.705888 
L 298.134 122.916826 
L 298.692 122.794748 
L 299.064 122.776974 
L 299.808 122.911865 
L 300.552 122.566237 
L 300.738 122.893215 
L 301.296 122.83874 
L 301.854 122.437272 
L 302.226 122.653878 
L 302.412 122.661289 
L 302.598 122.530669 
L 303.156 122.729055 
L 303.342 122.654845 
L 303.528 122.452208 
L 303.9 122.676174 
L 304.086 122.648654 
L 304.272 122.46088 
L 304.458 122.673189 
L 304.644 122.504226 
L 305.016 122.863957 
L 305.202 122.703313 
L 305.388 122.260036 
L 305.76 122.83094 
L 306.132 122.357433 
L 306.504 122.796694 
L 307.062 122.541809 
L 307.248 122.760325 
L 307.992 122.708932 
L 308.178 122.654494 
L 308.364 122.718313 
L 308.55 122.548101 
L 308.922 122.732998 
L 309.294 122.841638 
L 309.48 122.596146 
L 309.666 122.783448 
L 310.224 122.74791 
L 310.968 122.759032 
L 311.526 122.80436 
L 311.712 122.627517 
L 312.084 122.668353 
L 312.27 122.87384 
L 312.642 122.853728 
L 312.828 122.53863 
L 313.014 122.629763 
L 313.2 122.890512 
L 313.386 122.705049 
L 313.572 122.821904 
L 314.13 122.557319 
L 314.316 122.821916 
L 314.502 122.864031 
L 314.688 122.662059 
L 314.874 122.707714 
L 315.06 122.90449 
L 315.432 122.699212 
L 315.618 122.815713 
L 315.804 122.661698 
L 315.99 122.874533 
L 316.176 122.888229 
L 316.548 122.687662 
L 316.92 122.756838 
L 317.106 122.551107 
L 317.664 122.792811 
L 317.85 122.773938 
L 318.036 122.597644 
L 318.222 122.808726 
L 319.152 122.875562 
L 319.524 122.611977 
L 319.71 122.750097 
L 320.64 122.746012 
L 320.826 122.518441 
L 321.198 122.680047 
L 321.384 122.66005 
L 321.756 122.921072 
L 322.128 122.711098 
L 322.314 122.719003 
L 322.5 122.602893 
L 322.686 122.639259 
L 322.872 122.839349 
L 323.244 122.6579 
L 323.802 122.755768 
L 324.546 122.704209 
L 324.918 122.752309 
L 325.29 122.888235 
L 325.848 122.701096 
L 326.034 122.775191 
L 326.406 122.68959 
L 326.964 122.617129 
L 327.15 122.819609 
L 327.336 122.731936 
L 327.522 122.880597 
L 327.708 122.76939 
L 327.894 122.867899 
L 328.266 122.674206 
L 328.452 122.80373 
L 328.638 122.563428 
L 329.01 122.58531 
L 329.196 122.613678 
L 329.568 122.916309 
L 329.754 122.787089 
L 330.126 122.933022 
L 330.312 122.751601 
L 331.056 122.841305 
L 331.428 122.719728 
L 331.614 122.920214 
L 331.986 122.681035 
L 332.172 122.756022 
L 332.358 123.02626 
L 332.73 122.802022 
L 333.102 122.84725 
L 333.288 122.580649 
L 334.59 122.84642 
L 334.776 122.759305 
L 334.962 122.879341 
L 335.148 122.664584 
L 335.52 122.793377 
L 337.008 122.772556 
L 337.566 122.641097 
L 337.752 122.751682 
L 337.938 122.625303 
L 338.31 122.916932 
L 338.496 122.927083 
L 338.868 122.653738 
L 339.054 122.599872 
L 339.612 122.833605 
L 339.798 122.775872 
L 339.984 122.573883 
L 340.356 122.746762 
L 340.542 122.820763 
L 341.472 122.554966 
L 341.844 122.883141 
L 342.03 122.688012 
L 342.216 122.802244 
L 342.402 122.635242 
L 343.518 122.656239 
L 343.704 122.650971 
L 344.076 122.840801 
L 344.262 122.640266 
L 345.192 122.836294 
L 345.378 122.651223 
L 345.564 122.650189 
L 345.75 122.896688 
L 345.936 122.938154 
L 346.122 122.609149 
L 346.308 122.63386 
L 346.494 122.969446 
L 347.052 122.862767 
L 347.424 122.942773 
L 347.796 122.771354 
L 348.354 122.840275 
L 349.098 122.803541 
L 349.284 122.56489 
L 349.842 122.940623 
L 350.214 122.579926 
L 350.586 122.856168 
L 350.958 122.706316 
L 351.144 122.600393 
L 351.702 122.930273 
L 351.888 122.748033 
L 352.446 122.692801 
L 352.818 122.800164 
L 353.004 122.717396 
L 353.376 122.832453 
L 353.562 122.678857 
L 353.748 122.875141 
L 354.12 122.717443 
L 354.306 122.998279 
L 354.678 122.560646 
L 354.864 122.763538 
L 355.05 122.668737 
L 355.422 122.765077 
L 355.608 122.679358 
L 355.98 122.887916 
L 356.91 122.563867 
L 357.096 122.713778 
L 358.212 122.757548 
L 358.398 122.617937 
L 359.142 122.801006 
L 360.072 122.649356 
L 360.258 122.751197 
L 360.444 122.713464 
L 360.63 122.867436 
L 361.002 122.801692 
L 361.188 122.958531 
L 361.374 122.928856 
L 361.746 122.629039 
L 361.932 122.832558 
L 362.304 122.601294 
L 362.49 122.582357 
L 362.676 122.851374 
L 363.048 122.613584 
L 363.42 122.913475 
L 363.792 122.766442 
L 363.978 122.922876 
L 364.536 122.651452 
L 364.722 122.823166 
L 365.652 122.514064 
L 366.024 122.77983 
L 366.21 122.780363 
L 366.396 122.524669 
L 366.582 122.515423 
L 366.768 122.745136 
L 366.954 122.570214 
L 367.512 122.797191 
L 367.698 122.764103 
L 367.884 122.571292 
L 368.256 122.897241 
L 368.442 122.772818 
L 368.814 122.847908 
L 369 122.747335 
L 369.186 122.898234 
L 369.744 122.715542 
L 370.86 122.738124 
L 371.046 122.650296 
L 371.418 122.837186 
L 371.604 122.8214 
L 372.162 122.526771 
L 372.534 122.800216 
L 372.72 122.560734 
L 372.906 122.723813 
L 373.092 122.690495 
L 373.278 122.864079 
L 373.464 122.59893 
L 373.836 122.824725 
L 374.022 122.691429 
L 374.208 122.773397 
L 374.58 122.686484 
L 374.766 122.811965 
L 375.138 122.791205 
L 375.324 122.839004 
L 375.696 122.738443 
L 376.812 122.805274 
L 377.184 122.717895 
L 377.556 122.652809 
L 377.742 122.871355 
L 378.114 122.747507 
L 378.3 122.671172 
L 378.486 122.862622 
L 379.044 122.830403 
L 379.602 122.571891 
L 379.788 122.798273 
L 379.974 122.707739 
L 380.16 122.803771 
L 380.346 122.753617 
L 380.532 122.533692 
L 380.904 123.013489 
L 381.09 122.655951 
L 381.276 122.723446 
L 381.648 122.55394 
L 381.834 122.791989 
L 382.02 122.784635 
L 382.206 122.621645 
L 382.578 122.826445 
L 382.95 122.539661 
L 383.508 122.818907 
L 383.694 122.752534 
L 383.88 122.519238 
L 384.438 122.750577 
L 384.624 122.676105 
L 384.996 122.857489 
L 385.182 122.85327 
L 385.554 122.686593 
L 386.112 122.832644 
L 386.298 122.832484 
L 386.484 122.680788 
L 386.856 122.85341 
L 387.6 122.702015 
L 387.786 122.868786 
L 387.972 122.869488 
L 388.344 122.566189 
L 388.902 122.833784 
L 389.088 122.871265 
L 389.274 122.683329 
L 390.39 122.696861 
L 390.576 122.627189 
L 390.948 122.730151 
L 391.878 122.76828 
L 392.25 122.920703 
L 392.622 122.615227 
L 392.994 122.845955 
L 393.738 122.756388 
L 393.924 122.618585 
L 394.296 122.768734 
L 395.226 122.851952 
L 395.598 122.722555 
L 395.784 122.77234 
L 396.156 122.622239 
L 396.342 122.892866 
L 396.714 122.799172 
L 396.9 122.569197 
L 397.272 122.841437 
L 397.458 122.78774 
L 397.644 122.489374 
L 398.202 122.903125 
L 398.388 122.703258 
L 398.76 122.793091 
L 398.946 122.739263 
L 399.318 122.851968 
L 399.876 122.685128 
L 400.062 122.847668 
L 400.806 122.709874 
L 401.178 122.553239 
L 401.364 122.700539 
L 401.55 122.691571 
L 401.736 122.465098 
L 401.922 122.905139 
L 402.294 122.687375 
L 402.666 122.881848 
L 402.852 122.664857 
L 403.224 122.754166 
L 403.41 122.795552 
L 403.596 122.685305 
L 403.968 122.942568 
L 404.898 122.580954 
L 405.084 122.805682 
L 405.27 122.831355 
L 405.456 122.703377 
L 405.828 122.835906 
L 406.2 122.669745 
L 406.386 122.800789 
L 406.758 122.752586 
L 406.944 122.61974 
L 407.316 122.746484 
L 407.688 122.786269 
L 407.874 122.547808 
L 408.246 122.775647 
L 408.432 122.671383 
L 409.362 122.925579 
L 409.548 122.634624 
L 409.92 122.66004 
L 410.106 122.61764 
L 410.292 122.951882 
L 410.664 122.975895 
L 410.85 122.893825 
L 411.036 121.054774 
L 411.222 109.377675 
L 411.408 107.179533 
L 411.594 108.701949 
L 411.78 108.557553 
L 411.966 107.355764 
L 412.338 109.852759 
L 412.71 108.328571 
L 412.896 108.44809 
L 413.082 108.744974 
L 413.454 107.146539 
L 413.64 107.257998 
L 414.012 110.132347 
L 414.198 109.452303 
L 414.384 107.243626 
L 414.756 106.578086 
L 415.128 108.484004 
L 415.314 110.114755 
L 415.5 108.911885 
L 415.686 109.222927 
L 415.872 110.701117 
L 416.058 109.806813 
L 416.43 111.037455 
L 416.616 111.170547 
L 416.802 109.694051 
L 416.988 111.379108 
L 417.174 111.104931 
L 417.36 110.225029 
L 417.546 108.119932 
L 417.732 108.649339 
L 417.918 109.876361 
L 418.104 109.610817 
L 418.29 109.608744 
L 418.476 109.805817 
L 418.662 110.400512 
L 418.848 107.605367 
L 419.034 108.153149 
L 419.22 107.309482 
L 419.592 111.530102 
L 419.778 109.995725 
L 419.964 110.704192 
L 420.15 110.53543 
L 420.522 108.596527 
L 420.708 110.858516 
L 420.894 111.234301 
L 421.266 110.378037 
L 421.452 111.616259 
L 421.824 107.456294 
L 422.196 111.616123 
L 422.568 122.300415 
L 422.754 122.698107 
L 422.94 122.774848 
L 423.126 122.707829 
L 423.312 122.775646 
L 423.87 122.604632 
L 424.056 122.693446 
L 424.428 122.487225 
L 424.614 122.782883 
L 424.8 122.806566 
L 424.986 122.717204 
L 425.172 122.836464 
L 425.358 122.790267 
L 425.544 122.610763 
L 425.73 122.848009 
L 425.916 122.806391 
L 426.102 122.945915 
L 426.474 122.663553 
L 426.846 122.854124 
L 427.032 122.519548 
L 427.404 122.564637 
L 427.59 122.538681 
L 427.776 122.784909 
L 428.334 122.893343 
L 428.52 122.650019 
L 428.706 122.630515 
L 429.078 122.779811 
L 429.264 122.885648 
L 429.45 122.760256 
L 429.636 122.7932 
L 429.822 122.584863 
L 430.008 122.642271 
L 430.194 122.358132 
L 430.566 122.893916 
L 430.752 122.762514 
L 431.31 122.976752 
L 431.682 122.500666 
L 432.054 122.835292 
L 432.24 122.810075 
L 432.426 122.656814 
L 434.844 122.811119 
L 435.03 122.642261 
L 435.216 122.896318 
L 435.402 122.958384 
L 435.588 122.75403 
L 436.332 122.634751 
L 436.518 122.608074 
L 437.076 122.894627 
L 437.262 122.891397 
L 437.448 122.623888 
L 438.006 122.779795 
L 438.936 122.877246 
L 439.68 122.741005 
L 440.052 122.914157 
L 440.424 122.808918 
L 440.61 122.890352 
L 440.796 122.640944 
L 440.982 122.799761 
L 441.354 122.661521 
L 441.726 122.853921 
L 442.098 122.817716 
L 442.284 122.673715 
L 442.842 122.843609 
L 443.4 122.748416 
L 443.586 122.87602 
L 443.958 122.616478 
L 444.33 122.638896 
L 444.516 122.745067 
L 444.702 122.691744 
L 444.888 122.791787 
L 445.074 122.749796 
L 445.446 122.957164 
L 445.632 122.877882 
L 445.818 122.610106 
L 446.004 122.620444 
L 446.19 122.890419 
L 446.376 122.870195 
L 446.562 122.640114 
L 446.748 122.690119 
L 446.934 122.583499 
L 447.492 122.916363 
L 448.05 122.618855 
L 448.236 122.824563 
L 449.91 122.673644 
L 450.468 122.81969 
L 450.84 122.792406 
L 451.212 122.838522 
L 451.398 122.99042 
L 451.956 122.714339 
L 452.328 122.628752 
L 452.7 122.904987 
L 453.072 122.643971 
L 453.444 122.62788 
L 453.63 122.778679 
L 453.816 122.563851 
L 454.188 122.819412 
L 454.746 122.664162 
L 454.932 122.756749 
L 455.118 122.693558 
L 455.304 122.750997 
L 455.49 122.664002 
L 455.676 122.846821 
L 456.978 122.771084 
L 457.164 122.921763 
L 457.536 122.953122 
L 457.722 122.717817 
L 457.908 122.716424 
L 458.094 122.973783 
L 458.652 122.679365 
L 458.838 122.833435 
L 459.21 122.767553 
L 459.582 122.974276 
L 459.768 122.95422 
L 460.14 122.673192 
L 460.512 122.77367 
L 460.884 122.691979 
L 462 122.61408 
L 462.186 122.694977 
L 462.558 122.610425 
L 463.116 122.864763 
L 463.488 122.411705 
L 464.046 122.820973 
L 464.232 122.63174 
L 464.418 122.629536 
L 464.604 122.879735 
L 465.162 122.69625 
L 465.348 122.70279 
L 465.534 122.857484 
L 465.72 122.717305 
L 466.278 122.75987 
L 466.464 122.909563 
L 466.65 122.816244 
L 467.58 122.933902 
L 467.766 122.822953 
L 467.952 122.91779 
L 468.138 122.742585 
L 468.51 122.738254 
L 468.696 122.849223 
L 468.882 122.730097 
L 469.254 122.784354 
L 469.626 122.711981 
L 469.812 122.827542 
L 470.556 122.660911 
L 470.742 122.839995 
L 471.3 122.59231 
L 471.486 122.808621 
L 471.858 122.697455 
L 472.23 122.796569 
L 472.788 122.763076 
L 472.974 122.865673 
L 473.532 122.76331 
L 473.904 122.839506 
L 474.09 122.733872 
L 474.462 122.806204 
L 474.648 122.623319 
L 475.02 122.694206 
L 475.206 122.727963 
L 475.392 122.517897 
L 475.764 122.903289 
L 476.322 122.715329 
L 476.694 122.704893 
L 476.88 122.864441 
L 477.252 122.777469 
L 477.624 122.707066 
L 477.81 122.588747 
L 478.182 122.931481 
L 478.368 123.018554 
L 478.554 122.770831 
L 479.112 122.671904 
L 479.298 122.837939 
L 479.856 122.659396 
L 480.042 122.79 
L 480.414 122.568785 
L 480.6 122.621979 
L 480.786 122.794363 
L 480.972 122.73579 
L 481.158 122.551383 
L 481.344 122.834896 
L 481.53 122.860437 
L 481.902 122.569956 
L 482.274 122.80305 
L 482.646 122.724766 
L 483.018 122.794578 
L 483.204 122.588162 
L 483.576 122.801512 
L 483.762 122.818317 
L 483.948 122.613193 
L 484.32 122.864398 
L 484.506 122.854113 
L 484.692 122.705808 
L 484.878 122.740715 
L 485.064 122.956948 
L 485.622 122.873997 
L 486.366 122.648106 
L 486.738 122.902515 
L 486.924 122.746189 
L 487.11 122.813027 
L 487.296 122.703706 
L 487.668 122.788197 
L 488.226 122.725254 
L 488.412 122.887122 
L 488.784 122.754676 
L 488.97 122.88495 
L 489.342 122.653647 
L 489.528 122.839187 
L 489.714 122.854161 
L 489.9 122.721824 
L 490.086 122.909013 
L 490.458 122.713761 
L 490.644 122.785105 
L 491.016 122.474437 
L 491.388 122.815731 
L 491.76 122.931072 
L 491.946 122.69359 
L 492.132 122.642223 
L 492.69 122.948203 
L 492.876 122.742009 
L 493.62 122.752118 
L 493.806 122.827621 
L 494.364 122.742897 
L 494.736 122.951292 
L 495.294 122.656115 
L 495.48 122.822258 
L 496.596 122.699796 
L 496.782 122.593951 
L 497.154 122.802688 
L 497.34 122.682951 
L 497.526 122.729323 
L 497.712 122.530639 
L 498.27 122.706774 
L 498.642 122.497269 
L 498.828 122.746534 
L 499.386 122.756954 
L 499.572 122.683553 
L 499.758 122.75536 
L 500.316 122.696842 
L 500.688 122.905087 
L 500.874 122.753639 
L 501.99 122.785765 
L 502.176 122.609912 
L 502.548 122.889646 
L 502.734 122.711925 
L 502.92 122.691026 
L 503.106 123.019453 
L 503.292 122.830954 
L 503.664 122.989945 
L 503.85 122.616573 
L 504.222 122.815958 
L 504.408 122.930281 
L 504.78 122.829814 
L 505.152 122.659777 
L 505.338 122.809399 
L 505.524 122.748115 
L 505.896 122.87406 
L 506.082 122.628295 
L 506.268 122.848061 
L 506.454 122.870886 
L 506.64 122.694435 
L 506.826 122.762997 
L 507.012 122.609747 
L 507.198 122.804162 
L 507.384 122.793447 
L 507.57 122.479513 
L 507.756 122.640657 
L 507.942 122.624172 
L 508.314 122.916403 
L 508.686 122.711079 
L 509.058 122.931231 
L 509.244 122.784198 
L 509.802 122.873113 
L 509.988 122.774086 
L 510.36 122.945127 
L 510.732 122.849929 
L 510.918 122.752688 
L 511.104 122.810244 
L 511.476 122.723213 
L 511.662 122.962113 
L 512.406 122.649123 
L 512.778 122.748208 
L 513.15 122.85808 
L 513.522 122.610031 
L 513.894 122.753263 
L 514.08 122.568338 
L 514.266 122.777558 
L 514.638 122.878239 
L 514.824 122.695334 
L 515.01 122.93802 
L 515.196 122.870041 
L 515.382 122.596234 
L 516.498 122.887921 
L 516.87 122.710359 
L 517.056 122.858068 
L 517.242 122.739945 
L 517.428 122.822536 
L 517.8 122.670216 
L 518.172 122.787741 
L 518.544 122.609225 
L 518.73 122.745046 
L 519.288 122.674556 
L 519.66 122.748774 
L 520.032 122.581609 
L 520.218 122.764485 
L 520.404 122.708446 
L 520.59 122.786949 
L 520.776 122.69461 
L 521.334 122.912065 
L 521.892 122.796773 
L 522.264 122.76079 
L 522.45 122.68092 
L 523.38 122.895005 
L 523.938 122.650514 
L 524.124 122.872296 
L 524.496 122.478075 
L 524.682 122.797918 
L 525.054 122.783497 
L 525.24 122.93849 
L 525.798 122.561919 
L 525.984 122.781307 
L 526.356 122.850193 
L 526.728 122.645768 
L 527.1 122.867237 
L 527.286 122.624251 
L 527.844 122.835793 
L 528.402 122.722756 
L 528.588 122.622028 
L 528.774 122.764523 
L 529.146 122.778883 
L 529.332 122.925541 
L 529.704 122.668581 
L 530.076 122.805719 
L 530.448 122.521824 
L 530.634 122.590911 
L 531.006 122.85444 
L 531.192 122.826396 
L 531.378 122.985387 
L 531.936 122.642367 
L 532.122 122.548125 
L 532.308 122.798028 
L 532.494 122.813918 
L 532.68 122.599892 
L 533.052 122.801469 
L 534.54 122.822689 
L 534.912 122.979479 
L 535.656 122.550237 
L 535.842 122.807981 
L 536.214 122.854087 
L 536.586 122.864834 
L 536.958 122.830215 
L 537.144 122.900409 
L 537.516 122.810842 
L 537.702 122.932282 
L 538.26 122.657639 
L 538.446 122.756747 
L 538.818 122.636326 
L 539.562 122.905336 
L 539.748 122.694989 
L 539.934 122.812143 
L 540.12 122.684797 
L 540.492 122.757742 
L 541.05 122.581845 
L 541.236 122.789652 
L 541.608 122.765509 
L 541.794 122.835075 
L 542.166 122.681474 
L 542.352 122.846274 
L 542.724 122.542225 
L 542.91 122.615452 
L 543.096 122.934666 
L 543.468 122.545551 
L 543.84 122.938441 
L 544.398 122.729621 
L 544.77 122.992125 
L 544.956 122.695623 
L 545.142 122.771331 
L 545.7 122.67599 
L 545.886 122.839976 
L 546.072 122.780946 
L 546.258 122.586092 
L 546.444 122.627474 
L 546.63 122.810876 
L 547.002 122.68173 
L 547.188 122.580477 
L 547.56 122.817936 
L 548.118 122.764159 
L 548.862 122.892198 
L 549.234 122.856777 
L 549.42 122.625876 
L 549.606 122.771625 
L 549.792 122.706776 
L 550.35 122.810971 
L 550.536 122.609016 
L 550.908 122.987832 
L 551.466 122.569969 
L 551.652 122.928675 
L 551.838 122.916286 
L 552.024 122.71699 
L 552.21 122.769272 
L 552.396 122.694248 
L 552.768 122.825963 
L 553.14 122.665633 
L 553.698 122.815029 
L 553.884 122.700229 
L 554.07 122.833304 
L 556.488 122.683315 
L 556.674 122.851453 
L 557.046 122.735736 
L 557.232 122.67381 
L 557.604 122.816792 
L 557.79 122.723439 
L 557.976 122.858835 
L 558.162 122.818535 
L 558.348 122.964741 
L 558.534 122.594492 
L 558.906 122.852202 
L 559.464 122.674625 
L 560.022 122.628696 
L 560.394 122.935164 
L 561.324 122.544195 
L 561.51 122.860926 
L 561.882 122.590596 
L 562.068 122.858845 
L 562.44 122.839666 
L 563.556 122.795041 
L 563.742 122.691848 
L 564.114 122.762711 
L 564.3 122.620365 
L 564.858 122.872589 
L 565.416 122.827837 
L 565.602 122.893596 
L 566.16 122.796462 
L 567.09 122.916522 
L 567.276 122.74536 
L 567.462 122.818349 
L 568.02 122.702458 
L 568.206 122.765379 
L 568.392 122.633528 
L 568.764 122.643299 
L 568.95 122.546186 
L 569.136 122.730887 
L 569.508 122.721162 
L 569.88 122.94988 
L 570.624 122.580745 
L 570.81 122.561537 
L 571.368 122.876139 
L 571.74 122.766601 
L 571.926 122.882954 
L 572.112 122.767579 
L 572.484 122.830655 
L 573.042 122.596445 
L 573.228 122.943862 
L 573.414 122.833401 
L 573.6 122.532405 
L 573.972 122.862338 
L 574.344 122.716656 
L 574.53 122.843882 
L 574.902 122.68466 
L 575.274 122.470254 
L 575.646 122.801782 
L 576.018 122.49014 
L 576.204 122.66132 
L 576.576 122.59384 
L 576.762 122.628964 
L 577.134 122.857439 
L 577.506 122.82823 
L 578.064 122.659283 
L 578.25 122.78906 
L 578.436 122.711418 
L 578.994 122.912908 
L 579.366 122.645928 
L 579.738 122.544302 
L 580.11 122.79216 
L 580.854 122.669136 
L 581.04 122.590088 
L 581.226 122.818719 
L 581.412 122.860198 
L 581.598 122.771763 
L 581.784 122.835868 
L 581.97 122.693312 
L 582.528 122.858137 
L 583.272 122.780604 
L 583.644 122.871048 
L 584.574 122.694296 
L 584.76 122.858988 
L 585.132 122.770155 
L 585.504 122.916335 
L 585.876 122.64618 
L 586.062 122.835353 
L 586.248 122.674915 
L 587.178 122.919079 
L 587.55 122.83327 
L 587.736 122.848602 
L 587.922 122.532432 
L 588.294 122.832759 
L 588.48 122.870443 
L 589.038 122.426814 
L 589.224 122.889704 
L 589.596 122.812778 
L 589.782 122.987961 
L 590.154 122.6469 
L 590.526 122.924942 
L 590.898 122.720661 
L 591.084 122.914615 
L 592.386 122.769886 
L 592.572 122.891711 
L 593.13 122.698149 
L 593.316 122.806007 
L 593.502 122.718471 
L 593.688 122.853693 
L 593.874 122.825019 
L 594.06 122.533012 
L 594.432 122.70545 
L 594.618 122.577197 
L 595.176 122.755795 
L 595.92 122.766182 
L 596.106 122.621873 
L 596.85 122.89399 
L 597.036 122.89345 
L 597.222 122.768983 
L 597.594 122.798181 
L 598.338 122.650101 
L 598.71 122.86227 
L 599.082 122.530208 
L 599.268 122.797271 
L 599.64 122.626322 
L 600.012 122.884279 
L 600.198 122.830225 
L 600.384 122.613213 
L 600.57 122.589171 
L 600.756 122.849886 
L 601.128 122.696024 
L 601.314 122.852246 
L 602.058 122.737108 
L 602.244 122.896966 
L 602.43 122.650048 
L 602.616 122.751692 
L 602.802 122.722431 
L 602.988 122.822008 
L 603.174 122.727888 
L 603.36 122.868295 
L 603.546 122.720367 
L 603.918 122.891128 
L 604.29 122.567055 
L 604.662 122.69486 
L 604.848 122.677823 
L 605.406 122.878498 
L 605.778 122.663653 
L 606.15 122.778296 
L 606.336 122.659207 
L 606.894 122.864643 
L 607.08 122.557074 
L 607.452 122.745205 
L 607.638 122.829938 
L 607.824 122.75385 
L 608.382 122.916093 
L 608.568 121.539236 
L 608.94 106.986588 
L 609.126 108.037488 
L 609.312 108.181503 
L 609.684 109.688207 
L 610.056 108.050841 
L 610.242 108.54965 
L 610.8 106.59926 
L 610.986 108.194573 
L 611.172 107.721373 
L 611.73 112.45887 
L 611.916 111.322398 
L 612.288 107.38241 
L 612.66 112.017328 
L 612.846 112.738492 
L 613.032 112.636313 
L 613.404 108.431415 
L 613.59 111.25252 
L 613.962 108.793052 
L 614.148 109.588993 
L 614.334 108.723311 
L 614.52 109.550034 
L 614.706 109.277818 
L 614.892 109.211498 
L 615.078 108.728401 
L 615.45 108.781316 
L 615.822 108.088146 
L 616.008 109.629776 
L 616.194 110.081244 
L 616.38 110.175528 
L 616.566 108.423981 
L 616.752 108.745796 
L 616.938 108.777149 
L 617.124 110.234988 
L 617.31 110.710884 
L 617.496 111.551371 
L 617.682 111.41191 
L 618.054 108.996205 
L 618.24 109.465573 
L 618.426 110.536857 
L 618.612 110.366987 
L 618.798 109.279952 
L 618.984 112.33223 
L 619.17 121.35511 
L 619.356 122.92197 
L 619.728 122.958159 
L 620.1 122.706743 
L 620.286 122.904662 
L 620.472 122.688617 
L 620.658 122.673892 
L 621.03 122.814563 
L 621.402 122.529903 
L 621.588 122.739828 
L 621.774 122.629911 
L 621.96 122.928972 
L 622.146 122.823926 
L 622.518 122.877414 
L 622.89 122.636848 
L 623.262 122.84481 
L 623.634 122.638837 
L 624.006 122.821883 
L 624.936 122.841324 
L 625.122 122.638052 
L 625.308 122.730732 
L 625.494 122.558693 
L 625.866 122.669915 
L 626.052 122.8142 
L 626.424 122.65606 
L 626.61 122.728671 
L 626.796 122.621431 
L 627.168 122.798914 
L 627.354 122.596476 
L 627.912 122.860878 
L 629.028 122.858009 
L 629.214 122.975223 
L 629.586 122.739002 
L 629.772 122.710819 
L 629.958 122.566191 
L 630.33 122.820257 
L 630.888 122.691563 
L 631.074 122.915225 
L 631.446 122.909024 
L 631.632 122.732274 
L 632.934 122.952344 
L 633.12 122.871899 
L 633.306 122.952523 
L 633.492 122.816024 
L 634.422 122.876528 
L 634.608 122.712438 
L 634.98 122.988279 
L 635.166 122.832756 
L 635.352 122.857449 
L 635.538 122.685332 
L 635.91 122.773197 
L 636.096 122.875237 
L 636.468 122.706493 
L 636.654 122.749802 
L 636.84 122.658954 
L 637.212 122.826478 
L 637.398 122.903057 
L 637.584 122.677148 
L 637.956 122.871536 
L 638.7 122.648276 
L 638.886 122.83874 
L 639.258 122.714023 
L 639.444 122.910774 
L 639.816 122.664123 
L 640.188 122.726094 
L 640.374 122.758818 
L 640.56 122.975097 
L 641.118 122.591872 
L 641.676 122.809303 
L 641.862 122.956344 
L 642.234 122.607368 
L 642.792 122.831794 
L 643.164 122.861963 
L 643.722 122.603339 
L 643.908 122.768887 
L 644.466 122.773266 
L 644.652 122.698725 
L 644.838 122.850926 
L 645.396 122.68351 
L 645.582 122.797744 
L 645.768 122.651539 
L 645.954 122.713872 
L 646.14 122.618595 
L 646.512 122.785168 
L 647.07 122.723697 
L 647.814 122.904944 
L 648.186 122.760565 
L 648.186 122.760565 
" clip-path="url(#p9acf4ee390)" style="fill: none; stroke: #1f77b4; stroke-width: 1.5; stroke-linecap: square"/>
   </g>
   <g id="patch_3">
    <path d="M 90 128.16 
L 90 17.28 
" style="fill: none; stroke: #000000; stroke-width: 0.8; stroke-linejoin: miter; stroke-linecap: square"/>
   </g>
   <g id="patch_4">
    <path d="M 648 128.16 
L 648 17.28 
" style="fill: none; stroke: #000000; stroke-width: 0.8; stroke-linejoin: miter; stroke-linecap: square"/>
   </g>
   <g id="patch_5">
    <path d="M 90 128.16 
L 648 128.16 
" style="fill: none; stroke: #000000; stroke-width: 0.8; stroke-linejoin: miter; stroke-linecap: square"/>
   </g>
   <g id="patch_6">
    <path d="M 90 17.28 
L 648 17.28 
" style="fill: none; stroke: #000000; stroke-width: 0.8; stroke-linejoin: miter; stroke-linecap: square"/>
   </g>
  </g>
  <g id="axes_2">
   <g id="patch_7">
    <path d="M 396 86.4 
L 612 86.4 
L 612 28.8 
L 396 28.8 
L 396 86.4 
z
" style="fill: none"/>
   </g>
   <g id="matplotlib.axis_3">
    <g id="xtick_8">
     <g id="line2d_22">
      <g>
       <use xlink:href="#m5cbf89fd3a" x="405.818182" y="86.4" style="stroke: #000000; stroke-width: 0.8"/>
      </g>
     </g>
     <g id="line2d_23">
      <g>
       <use xlink:href="#m7db222208d" x="405.818182" y="28.8" style="stroke: #000000; stroke-width: 0.8"/>
      </g>
     </g>
     <g id="text_11">
      <text style="font: 14px 'DejaVu Sans', 'Bitstream Vera Sans', 'Computer Modern Sans Serif', 'Lucida Grande', 'Verdana', 'Geneva', 'Lucid', 'Arial', 'Helvetica', 'Avant Garde', sans-serif; text-anchor: middle" x="405.818182" y="100.537813" transform="rotate(-0 405.818182 100.537813)">2700</text>
     </g>
    </g>
    <g id="xtick_9">
     <g id="line2d_24">
      <g>
       <use xlink:href="#m5cbf89fd3a" x="455.155779" y="86.4" style="stroke: #000000; stroke-width: 0.8"/>
      </g>
     </g>
     <g id="line2d_25">
      <g>
       <use xlink:href="#m7db222208d" x="455.155779" y="28.8" style="stroke: #000000; stroke-width: 0.8"/>
      </g>
     </g>
     <g id="text_12">
      <text style="font: 14px 'DejaVu Sans', 'Bitstream Vera Sans', 'Computer Modern Sans Serif', 'Lucida Grande', 'Verdana', 'Geneva', 'Lucid', 'Arial', 'Helvetica', 'Avant Garde', sans-serif; text-anchor: middle" x="455.155779" y="100.537813" transform="rotate(-0 455.155779 100.537813)">2750</text>
     </g>
    </g>
    <g id="xtick_10">
     <g id="line2d_26">
      <g>
       <use xlink:href="#m5cbf89fd3a" x="504.493376" y="86.4" style="stroke: #000000; stroke-width: 0.8"/>
      </g>
     </g>
     <g id="line2d_27">
      <g>
       <use xlink:href="#m7db222208d" x="504.493376" y="28.8" style="stroke: #000000; stroke-width: 0.8"/>
      </g>
     </g>
     <g id="text_13">
      <text style="font: 14px 'DejaVu Sans', 'Bitstream Vera Sans', 'Computer Modern Sans Serif', 'Lucida Grande', 'Verdana', 'Geneva', 'Lucid', 'Arial', 'Helvetica', 'Avant Garde', sans-serif; text-anchor: middle" x="504.493376" y="100.537813" transform="rotate(-0 504.493376 100.537813)">2800</text>
     </g>
    </g>
    <g id="xtick_11">
     <g id="line2d_28">
      <g>
       <use xlink:href="#m5cbf89fd3a" x="553.830973" y="86.4" style="stroke: #000000; stroke-width: 0.8"/>
      </g>
     </g>
     <g id="line2d_29">
      <g>
       <use xlink:href="#m7db222208d" x="553.830973" y="28.8" style="stroke: #000000; stroke-width: 0.8"/>
      </g>
     </g>
     <g id="text_14">
      <text style="font: 14px 'DejaVu Sans', 'Bitstream Vera Sans', 'Computer Modern Sans Serif', 'Lucida Grande', 'Verdana', 'Geneva', 'Lucid', 'Arial', 'Helvetica', 'Avant Garde', sans-serif; text-anchor: middle" x="553.830973" y="100.537813" transform="rotate(-0 553.830973 100.537813)">2850</text>
     </g>
    </g>
    <g id="xtick_12">
     <g id="line2d_30">
      <g>
       <use xlink:href="#m5cbf89fd3a" x="603.16857" y="86.4" style="stroke: #000000; stroke-width: 0.8"/>
      </g>
     </g>
     <g id="line2d_31">
      <g>
       <use xlink:href="#m7db222208d" x="603.16857" y="28.8" style="stroke: #000000; stroke-width: 0.8"/>
      </g>
     </g>
     <g id="text_15">
      <text style="font: 14px 'DejaVu Sans', 'Bitstream Vera Sans', 'Computer Modern Sans Serif', 'Lucida Grande', 'Verdana', 'Geneva', 'Lucid', 'Arial', 'Helvetica', 'Avant Garde', sans-serif; text-anchor: middle" x="603.16857" y="100.537813" transform="rotate(-0 603.16857 100.537813)">2900</text>
     </g>
    </g>
   </g>
   <g id="matplotlib.axis_4">
    <g id="ytick_4">
     <g id="line2d_32">
      <g>
       <use xlink:href="#m9fc500a225" x="396" y="65.516322" style="stroke: #000000; stroke-width: 0.8"/>
      </g>
     </g>
     <g id="line2d_33">
      <g>
       <use xlink:href="#m0fb202f8bf" x="612" y="65.516322" style="stroke: #000000; stroke-width: 0.8"/>
      </g>
     </g>
     <g id="text_16">
      <text style="font: 14px 'DejaVu Sans', 'Bitstream Vera Sans', 'Computer Modern Sans Serif', 'Lucida Grande', 'Verdana', 'Geneva', 'Lucid', 'Arial', 'Helvetica', 'Avant Garde', sans-serif; text-anchor: end" x="392.5" y="70.835228" transform="rotate(-0 392.5 70.835228)">0</text>
     </g>
    </g>
    <g id="ytick_5">
     <g id="line2d_34">
      <g>
       <use xlink:href="#m9fc500a225" x="396" y="28.800945" style="stroke: #000000; stroke-width: 0.8"/>
      </g>
     </g>
     <g id="line2d_35">
      <g>
       <use xlink:href="#m0fb202f8bf" x="612" y="28.800945" style="stroke: #000000; stroke-width: 0.8"/>
      </g>
     </g>
     <g id="text_17">
      <text style="font: 14px 'DejaVu Sans', 'Bitstream Vera Sans', 'Computer Modern Sans Serif', 'Lucida Grande', 'Verdana', 'Geneva', 'Lucid', 'Arial', 'Helvetica', 'Avant Garde', sans-serif; text-anchor: end" x="392.5" y="34.119852" transform="rotate(-0 392.5 34.119852)">2</text>
     </g>
    </g>
   </g>
   <g id="line2d_36">
    <path d="M 405.818182 81.722272 
L 406.804934 83.168059 
L 407.791686 83.637505 
L 408.778438 83.149472 
L 409.76519 82.48874 
L 410.751942 81.35906 
L 411.738693 82.568744 
L 413.712197 83.414945 
L 414.698949 83.325579 
L 415.685701 82.472794 
L 416.672453 83.152722 
L 417.659205 82.546191 
L 418.645957 83.1683 
L 419.632709 83.17769 
L 420.619461 83.013036 
L 421.606213 83.448064 
L 422.592965 83.124117 
L 424.566469 83.303163 
L 425.553221 82.552865 
L 426.539973 82.062133 
L 427.526725 82.328534 
L 428.513476 83.172618 
L 429.500228 82.712135 
L 430.48698 82.698388 
L 431.473732 83.145151 
L 432.460484 82.783581 
L 433.447236 83.302174 
L 435.42074 82.079734 
L 436.407492 82.906172 
L 437.394244 82.396752 
L 438.380996 83.019252 
L 439.367748 82.739463 
L 440.3545 83.212026 
L 441.341252 82.350707 
L 442.328004 82.412089 
L 443.314756 83.521394 
L 444.301508 83.53866 
L 445.288259 83.291516 
L 447.261763 83.432638 
L 448.248515 83.360561 
L 449.235267 82.448758 
L 450.222019 83.156441 
L 451.208771 83.327388 
L 452.195523 82.567647 
L 453.182275 80.895352 
L 454.169027 81.751357 
L 455.155779 81.936562 
L 456.142531 82.243872 
L 457.129283 83.163229 
L 459.102787 83.400984 
L 460.089539 82.584944 
L 461.076291 82.525564 
L 462.063042 82.275405 
L 464.036546 83.23012 
L 465.023298 82.86791 
L 466.01005 79.592716 
L 466.996802 80.791636 
L 467.983554 81.166723 
L 468.970306 81.275508 
L 469.957058 83.096973 
L 470.94381 82.82397 
L 471.930562 81.975052 
L 473.904066 82.815182 
L 474.890818 82.429329 
L 475.87757 83.33198 
L 477.851074 83.421478 
L 478.837825 82.672733 
L 480.811329 83.194151 
L 481.798081 83.108246 
L 482.784833 83.455706 
L 483.771585 83.611141 
L 484.758337 83.162791 
L 485.745089 81.955333 
L 486.731841 83.465247 
L 487.718593 83.406503 
L 488.705345 83.485582 
L 489.692097 82.463949 
L 490.678849 83.522159 
L 491.665601 83.305344 
L 492.652353 78.81321 
L 493.639105 61.55187 
L 494.625857 66.492885 
L 495.612608 69.627168 
L 496.59936 73.502929 
L 497.586112 65.184309 
L 498.572864 69.455311 
L 499.559616 63.721132 
L 500.546368 48.5958 
L 501.53312 41.702289 
L 502.519872 52.008302 
L 503.506624 57.776337 
L 504.493376 40.321544 
L 505.480128 53.091306 
L 506.46688 46.321067 
L 507.453632 60.332586 
L 508.440384 62.23981 
L 509.427136 64.470019 
L 510.413888 43.875849 
L 511.40064 31.418182 
L 512.387392 54.447238 
L 513.374143 50.472905 
L 514.360895 51.549891 
L 515.347647 50.72161 
L 516.334399 62.362904 
L 517.321151 37.173476 
L 518.307903 39.23735 
L 519.294655 63.399787 
L 520.281407 65.978268 
L 521.268159 72.009485 
L 522.254911 50.100862 
L 523.241663 40.965487 
L 524.228415 59.284542 
L 525.215167 70.371163 
L 526.201919 50.957117 
L 527.188671 34.068558 
L 528.175423 45.158053 
L 529.162175 52.173186 
L 530.148926 33.462723 
L 531.135678 58.762642 
L 532.12243 69.477388 
L 533.109182 72.541682 
L 534.095934 74.452477 
L 535.082686 71.047796 
L 536.069438 68.879719 
L 538.042942 75.775762 
L 539.029694 71.962435 
L 540.016446 74.361607 
L 541.003198 69.903319 
L 541.98995 71.636897 
L 542.976702 78.977741 
L 543.963454 78.631239 
L 544.950206 76.443062 
L 545.936958 70.924734 
L 546.923709 48.048943 
L 547.910461 69.402924 
L 548.897213 81.459015 
L 549.883965 82.189688 
L 550.870717 82.206614 
L 551.857469 82.870457 
L 552.844221 83.157236 
L 553.830973 81.899642 
L 554.817725 82.124268 
L 555.804477 80.620345 
L 556.791229 81.040405 
L 557.777981 82.520324 
L 558.764733 82.786762 
L 559.751485 81.922557 
L 560.738237 82.322548 
L 561.724989 82.892284 
L 562.711741 81.569786 
L 563.698492 83.297173 
L 564.685244 83.407932 
L 566.658748 83.781818 
L 567.6455 83.536082 
L 568.632252 81.991712 
L 569.619004 82.367428 
L 570.605756 82.610403 
L 571.592508 82.553467 
L 573.566012 83.520028 
L 574.552764 82.636723 
L 575.539516 82.013866 
L 576.526268 82.518032 
L 577.51302 83.465184 
L 578.499772 82.801083 
L 579.486524 83.505867 
L 580.473275 83.42931 
L 581.460027 83.133487 
L 582.446779 83.531878 
L 583.433531 83.338151 
L 584.420283 83.299006 
L 585.407035 82.847401 
L 587.380539 83.442978 
L 588.367291 83.223295 
L 589.354043 81.85865 
L 590.340795 83.076771 
L 591.327547 82.00526 
L 592.314299 82.781233 
L 593.301051 81.859534 
L 594.287803 83.485995 
L 595.274555 83.533122 
L 596.261307 82.87624 
L 597.248058 82.58715 
L 598.23481 83.144394 
L 599.221562 83.509093 
L 601.195066 82.939631 
L 602.181818 83.435076 
L 602.181818 83.435076 
" clip-path="url(#p8e22f77902)" style="fill: none; stroke: #1f77b4; stroke-width: 1.5; stroke-linecap: square"/>
   </g>
   <g id="patch_8">
    <path d="M 396 86.4 
L 396 28.8 
" style="fill: none; stroke: #000000; stroke-width: 0.8; stroke-linejoin: miter; stroke-linecap: square"/>
   </g>
   <g id="patch_9">
    <path d="M 612 86.4 
L 612 28.8 
" style="fill: none; stroke: #000000; stroke-width: 0.8; stroke-linejoin: miter; stroke-linecap: square"/>
   </g>
   <g id="patch_10">
    <path d="M 396 86.4 
L 612 86.4 
" style="fill: none; stroke: #000000; stroke-width: 0.8; stroke-linejoin: miter; stroke-linecap: square"/>
   </g>
   <g id="patch_11">
    <path d="M 396 28.8 
L 612 28.8 
" style="fill: none; stroke: #000000; stroke-width: 0.8; stroke-linejoin: miter; stroke-linecap: square"/>
   </g>
  </g>
 </g>
 <defs>
  <clipPath id="p9acf4ee390">
   <rect x="90" y="17.28" width="558" height="110.88"/>
  </clipPath>
  <clipPath id="p8e22f77902">
   <rect x="396" y="28.8" width="216" height="57.6"/>
  </clipPath>
 </defs>
</svg>
