<?xml version="1.0" encoding="utf-8" standalone="no"?>
<!DOCTYPE svg PUBLIC "-//W3C//DTD SVG 1.1//EN"
  "http://www.w3.org/Graphics/SVG/1.1/DTD/svg11.dtd">
<svg xmlns:xlink="http://www.w3.org/1999/xlink" width="288pt" height="288pt" viewBox="0 0 288 288" xmlns="http://www.w3.org/2000/svg" version="1.1">
 <metadata>
  <rdf:RDF xmlns:dc="http://purl.org/dc/elements/1.1/" xmlns:cc="http://creativecommons.org/ns#" xmlns:rdf="http://www.w3.org/1999/02/22-rdf-syntax-ns#">
   <cc:Work>
    <dc:type rdf:resource="http://purl.org/dc/dcmitype/StillImage"/>
    <dc:date>2022-04-25T18:36:08.085805</dc:date>
    <dc:format>image/svg+xml</dc:format>
    <dc:creator>
     <cc:Agent>
      <dc:title>Matplotlib v3.5.1, https://matplotlib.org/</dc:title>
     </cc:Agent>
    </dc:creator>
   </cc:Work>
  </rdf:RDF>
 </metadata>
 <defs>
  <style type="text/css">*{stroke-linejoin: round; stroke-linecap: butt}</style>
 </defs>
 <g id="figure_1">
  <g id="patch_1">
   <path d="M 0 288 
L 288 288 
L 288 0 
L 0 0 
L 0 288 
z
" style="fill: none"/>
  </g>
  <g id="axes_1">
   <g id="patch_2">
    <path d="M 36 133.396364 
L 259.2 133.396364 
L 259.2 34.56 
L 36 34.56 
L 36 133.396364 
z
" style="fill: none"/>
   </g>
   <g id="matplotlib.axis_1">
    <g id="xtick_1">
     <g id="line2d_1">
      <defs>
       <path id="mea76537075" d="M 0 0 
L 0 -3.5 
" style="stroke: #000000; stroke-width: 0.8"/>
      </defs>
      <g>
       <use xlink:href="#mea76537075" x="36" y="133.396364" style="stroke: #000000; stroke-width: 0.8"/>
      </g>
     </g>
     <g id="line2d_2">
      <defs>
       <path id="m9db1122bb6" d="M 0 0 
L 0 3.5 
" style="stroke: #000000; stroke-width: 0.8"/>
      </defs>
      <g>
       <use xlink:href="#m9db1122bb6" x="36" y="34.56" style="stroke: #000000; stroke-width: 0.8"/>
      </g>
     </g>
     <g id="text_1">
      <text style="font: 14px 'sans-serif'; text-anchor: middle" x="36" y="147.534176" transform="rotate(-0, 36, 147.534176)">0</text>
     </g>
    </g>
    <g id="xtick_2">
     <g id="line2d_3">
      <g>
       <use xlink:href="#mea76537075" x="87.547344" y="133.396364" style="stroke: #000000; stroke-width: 0.8"/>
      </g>
     </g>
     <g id="line2d_4">
      <g>
       <use xlink:href="#m9db1122bb6" x="87.547344" y="34.56" style="stroke: #000000; stroke-width: 0.8"/>
      </g>
     </g>
     <g id="text_2">
      <text style="font: 14px 'sans-serif'; text-anchor: middle" x="87.547344" y="147.534176" transform="rotate(-0, 87.547344, 147.534176)">100</text>
     </g>
    </g>
    <g id="xtick_3">
     <g id="line2d_5">
      <g>
       <use xlink:href="#mea76537075" x="139.094688" y="133.396364" style="stroke: #000000; stroke-width: 0.8"/>
      </g>
     </g>
     <g id="line2d_6">
      <g>
       <use xlink:href="#m9db1122bb6" x="139.094688" y="34.56" style="stroke: #000000; stroke-width: 0.8"/>
      </g>
     </g>
     <g id="text_3">
      <text style="font: 14px 'sans-serif'; text-anchor: middle" x="139.094688" y="147.534176" transform="rotate(-0, 139.094688, 147.534176)">200</text>
     </g>
    </g>
    <g id="xtick_4">
     <g id="line2d_7">
      <g>
       <use xlink:href="#mea76537075" x="190.642032" y="133.396364" style="stroke: #000000; stroke-width: 0.8"/>
      </g>
     </g>
     <g id="line2d_8">
      <g>
       <use xlink:href="#m9db1122bb6" x="190.642032" y="34.56" style="stroke: #000000; stroke-width: 0.8"/>
      </g>
     </g>
     <g id="text_4">
      <text style="font: 14px 'sans-serif'; text-anchor: middle" x="190.642032" y="147.534176" transform="rotate(-0, 190.642032, 147.534176)">300</text>
     </g>
    </g>
    <g id="xtick_5">
     <g id="line2d_9">
      <g>
       <use xlink:href="#mea76537075" x="242.189376" y="133.396364" style="stroke: #000000; stroke-width: 0.8"/>
      </g>
     </g>
     <g id="line2d_10">
      <g>
       <use xlink:href="#m9db1122bb6" x="242.189376" y="34.56" style="stroke: #000000; stroke-width: 0.8"/>
      </g>
     </g>
     <g id="text_5">
      <text style="font: 14px 'sans-serif'; text-anchor: middle" x="242.189376" y="147.534176" transform="rotate(-0, 242.189376, 147.534176)">400</text>
     </g>
    </g>
   </g>
   <g id="matplotlib.axis_2">
    <g id="ytick_1">
     <g id="line2d_11">
      <defs>
       <path id="mde132b590a" d="M 0 0 
L 3.5 0 
" style="stroke: #000000; stroke-width: 0.8"/>
      </defs>
      <g>
       <use xlink:href="#mde132b590a" x="36" y="133.396364" style="stroke: #000000; stroke-width: 0.8"/>
      </g>
     </g>
     <g id="line2d_12">
      <defs>
       <path id="m761e8cf41a" d="M 0 0 
L -3.5 0 
" style="stroke: #000000; stroke-width: 0.8"/>
      </defs>
      <g>
       <use xlink:href="#m761e8cf41a" x="259.2" y="133.396364" style="stroke: #000000; stroke-width: 0.8"/>
      </g>
     </g>
     <g id="text_6">
      <text style="font: 14px 'sans-serif'; text-anchor: end" x="32.5" y="138.71527" transform="rotate(-0, 32.5, 138.71527)">0</text>
     </g>
    </g>
    <g id="ytick_2">
     <g id="line2d_13">
      <g>
       <use xlink:href="#mde132b590a" x="36" y="77.001683" style="stroke: #000000; stroke-width: 0.8"/>
      </g>
     </g>
     <g id="line2d_14">
      <g>
       <use xlink:href="#m761e8cf41a" x="259.2" y="77.001683" style="stroke: #000000; stroke-width: 0.8"/>
      </g>
     </g>
     <g id="text_7">
      <text style="font: 14px 'sans-serif'; text-anchor: end" x="32.5" y="82.320589" transform="rotate(-0, 32.5, 82.320589)">10000</text>
     </g>
    </g>
   </g>
   <g id="line2d_15">
    <path d="M 36 113.128893 
L 36.515473 114.102652 
L 37.54642 118.392858 
L 38.061894 128.136322 
L 38.577367 120.318103 
L 39.608314 125.401404 
L 40.123788 118.713945 
L 40.639261 114.975125 
L 41.154734 118.790878 
L 41.670208 119.092901 
L 42.185681 113.416938 
L 42.701155 125.263222 
L 43.216628 119.52238 
L 43.732102 111.926024 
L 44.247575 109.886871 
L 44.763048 119.338479 
L 45.278522 120.88217 
L 45.793995 118.604504 
L 46.309469 128.054979 
L 46.824942 123.651427 
L 47.340416 125.220377 
L 47.855889 122.315775 
L 48.371363 129.05103 
L 48.886836 126.916298 
L 49.402309 131.305406 
L 49.917783 116.789768 
L 50.433256 130.226189 
L 50.94873 127.943978 
L 51.464203 118.098133 
L 51.979677 131.75899 
L 52.49515 123.214064 
L 53.010624 128.016188 
L 53.526097 126.092032 
L 54.04157 113.250702 
L 54.557044 125.385642 
L 55.072517 111.334981 
L 55.587991 114.685209 
L 56.103464 130.654898 
L 57.134411 124.852478 
L 57.649885 120.867331 
L 58.165358 111.251538 
L 58.680831 126.621005 
L 59.196305 115.735686 
L 59.711778 108.291803 
L 60.227252 114.807777 
L 60.742725 116.888444 
L 61.773672 105.395802 
L 62.289145 104.217686 
L 62.804619 99.651524 
L 63.320092 93.011935 
L 63.835566 96.409695 
L 64.351039 120.94015 
L 64.866513 121.841219 
L 65.89746 89.581566 
L 66.412933 105.276101 
L 66.928406 95.43755 
L 67.44388 111.171403 
L 67.959353 121.326217 
L 68.474827 117.431387 
L 68.9903 91.254513 
L 69.505774 102.863202 
L 70.021247 86.855565 
L 70.536721 108.179807 
L 71.052194 116.127123 
L 71.567667 126.476338 
L 72.083141 122.080446 
L 72.598614 102.04301 
L 73.114088 92.134691 
L 73.629561 115.27745 
L 74.145035 128.239846 
L 74.660508 125.341864 
L 75.175982 130.934586 
L 75.691455 130.524245 
L 76.206928 99.596669 
L 76.722402 122.261078 
L 77.237875 110.773024 
L 77.753349 96.390536 
L 78.268822 102.9435 
L 78.784296 116.785756 
L 79.299769 119.707515 
L 79.815242 115.159311 
L 80.330716 123.064179 
L 80.846189 124.457451 
L 81.361663 116.737623 
L 81.877136 101.617629 
L 82.39261 119.66521 
L 82.908083 120.153303 
L 83.423557 95.962889 
L 83.93903 94.942114 
L 84.969977 118.991287 
L 85.48545 119.131665 
L 86.000924 100.387675 
L 86.516397 109.083398 
L 87.031871 88.972402 
L 87.547344 122.783481 
L 88.062818 95.821055 
L 88.578291 89.958383 
L 89.093764 89.610348 
L 89.609238 98.491448 
L 90.124711 100.524156 
L 90.640185 95.258233 
L 91.155658 79.932009 
L 91.671132 85.084554 
L 92.186605 92.739357 
L 92.702079 93.831703 
L 93.217552 80.560492 
L 93.733025 92.751382 
L 94.248499 108.778682 
L 94.763972 88.715145 
L 95.279446 107.212601 
L 95.794919 94.747332 
L 96.310393 102.121012 
L 96.825866 87.188918 
L 97.341339 87.063706 
L 97.856813 103.859421 
L 98.372286 107.149632 
L 98.88776 92.437555 
L 99.403233 116.285862 
L 99.918707 89.161685 
L 100.43418 94.120675 
L 100.949654 112.377109 
L 101.465127 112.918859 
L 101.9806 103.670618 
L 102.496074 78.430657 
L 103.011547 109.327908 
L 103.527021 87.922052 
L 104.042494 89.936372 
L 104.557968 98.523736 
L 105.588915 94.529362 
L 106.104388 112.98053 
L 106.619861 104.166921 
L 107.135335 102.286317 
L 107.650808 98.952685 
L 108.166282 70.560974 
L 108.681755 95.501351 
L 109.197229 104.415687 
L 109.712702 74.285911 
L 110.743649 98.203007 
L 111.259122 95.160276 
L 111.774596 109.059496 
L 112.290069 93.624781 
L 112.805543 90.854601 
L 113.321016 73.621238 
L 113.83649 121.761921 
L 114.351963 75.170845 
L 114.867436 93.016832 
L 115.38291 102.389375 
L 115.898383 118.220908 
L 116.413857 120.80595 
L 116.92933 97.066127 
L 117.444804 99.24228 
L 117.960277 73.482783 
L 118.475751 76.322869 
L 118.991224 80.714705 
L 119.506697 114.667102 
L 120.022171 83.611076 
L 120.537644 79.664325 
L 121.053118 84.938742 
L 121.568591 84.805686 
L 122.084065 87.243566 
L 122.599538 91.90451 
L 123.115012 83.985077 
L 123.630485 90.146803 
L 124.145958 68.629632 
L 124.661432 82.060617 
L 125.176905 106.276829 
L 125.692379 107.409597 
L 126.207852 92.441233 
L 126.723326 101.863444 
L 127.238799 105.952443 
L 127.754273 86.624208 
L 128.269746 73.628072 
L 128.785219 80.006202 
L 129.300693 103.78219 
L 129.816166 69.747991 
L 130.33164 98.612627 
L 130.847113 94.895556 
L 131.362587 71.663195 
L 131.87806 76.590174 
L 132.393533 103.307887 
L 132.909007 80.981538 
L 133.42448 103.700561 
L 133.939954 81.932006 
L 134.455427 84.554121 
L 134.970901 72.832215 
L 135.486374 101.40958 
L 136.001848 87.058615 
L 137.032794 95.972052 
L 137.548268 108.056141 
L 138.063741 73.73329 
L 138.579215 97.45609 
L 139.094688 80.55589 
L 139.610162 86.570546 
L 140.125635 97.519488 
L 140.641109 101.606894 
L 141.156582 86.08625 
L 141.672055 102.684459 
L 142.187529 95.807454 
L 142.703002 80.394321 
L 143.218476 86.67866 
L 143.733949 84.956951 
L 144.249423 86.445421 
L 144.764896 84.531457 
L 145.28037 107.455421 
L 145.795843 104.125586 
L 146.311316 81.287426 
L 146.82679 95.617909 
L 147.342263 71.79214 
L 147.857737 107.951167 
L 148.37321 95.031972 
L 148.888684 92.993899 
L 149.91963 73.540158 
L 150.435104 79.91685 
L 150.950577 66.446765 
L 151.466051 88.605881 
L 151.981524 73.55952 
L 152.496998 71.444014 
L 153.012471 119.330168 
L 153.527945 67.598806 
L 154.043418 98.794231 
L 154.558891 110.901341 
L 155.074365 95.839048 
L 155.589838 63.812072 
L 156.105312 89.000512 
L 156.620785 87.604637 
L 157.136259 63.96691 
L 157.651732 72.756592 
L 158.167206 87.203583 
L 158.682679 86.435543 
L 159.198152 99.920308 
L 159.713626 78.90011 
L 160.229099 83.850767 
L 160.744573 77.148502 
L 161.260046 98.21101 
L 161.77552 68.546253 
L 162.290993 66.717497 
L 162.806467 75.017247 
L 163.32194 105.948562 
L 163.837413 74.7733 
L 164.352887 78.186952 
L 164.86836 73.65635 
L 165.383834 81.177244 
L 165.899307 72.71048 
L 166.414781 50.528226 
L 166.930254 82.767517 
L 167.445727 79.505904 
L 167.961201 77.626188 
L 168.476674 55.034861 
L 168.992148 63.111429 
L 169.507621 62.463999 
L 170.023095 71.656428 
L 170.538568 87.237148 
L 171.054042 73.641624 
L 171.569515 68.822324 
L 172.600462 87.974911 
L 173.115935 76.38787 
L 173.631409 107.025265 
L 174.662356 79.598107 
L 175.177829 72.677674 
L 175.693303 82.866699 
L 176.208776 80.759355 
L 176.724249 80.441143 
L 177.239723 75.146976 
L 177.755196 84.713951 
L 178.27067 81.755369 
L 178.786143 89.160267 
L 179.301617 78.087496 
L 179.81709 96.661989 
L 180.332564 96.915482 
L 180.848037 87.410209 
L 181.36351 90.927861 
L 182.394457 62.814843 
L 182.909931 110.989982 
L 183.425404 84.880757 
L 183.940878 98.101945 
L 184.456351 80.947569 
L 184.971824 75.193342 
L 185.487298 77.862409 
L 186.002771 94.90268 
L 186.518245 79.743124 
L 187.033718 78.834032 
L 187.549192 80.313649 
L 188.064665 70.570038 
L 188.580139 108.185884 
L 189.095612 87.41866 
L 189.611085 99.207606 
L 190.126559 73.898075 
L 190.642032 88.271365 
L 191.157506 65.415059 
L 191.672979 88.814062 
L 192.188453 68.246374 
L 192.703926 76.756791 
L 193.2194 83.151507 
L 193.734873 66.018417 
L 194.250346 89.415814 
L 194.76582 75.615132 
L 195.281293 56.154821 
L 195.796767 73.923811 
L 196.31224 75.005092 
L 196.827714 62.105972 
L 197.343187 92.000553 
L 197.858661 77.876164 
L 198.374134 91.177058 
L 198.889607 66.818679 
L 199.405081 101.71712 
L 199.920554 79.541178 
L 200.436028 100.611775 
L 200.951501 81.365142 
L 201.466975 50.339299 
L 201.982448 85.911191 
L 202.497921 55.537671 
L 203.013395 99.940066 
L 203.528868 74.701045 
L 204.044342 79.402226 
L 204.559815 70.696793 
L 205.075289 66.581147 
L 205.590762 76.774072 
L 206.621709 93.636889 
L 207.137182 72.771142 
L 207.652656 74.457415 
L 208.168129 86.989521 
L 208.683603 67.259152 
L 209.199076 86.588911 
L 209.71455 94.661375 
L 210.230023 77.021143 
L 210.745497 103.471249 
L 211.26097 90.15055 
L 211.776443 63.808003 
L 212.291917 94.05667 
L 212.80739 82.895851 
L 213.322864 81.988512 
L 213.838337 90.543069 
L 214.353811 77.699265 
L 214.869284 89.197633 
L 215.384758 82.491732 
L 215.900231 88.206746 
L 216.415704 101.664778 
L 216.931178 95.400502 
L 217.446651 91.858648 
L 217.962125 83.17079 
L 218.477598 82.658821 
L 218.993072 86.323377 
L 219.508545 77.682902 
L 220.024018 87.069658 
L 220.539492 80.019734 
L 221.054965 87.804593 
L 221.570439 113.545751 
L 222.085912 72.200811 
L 222.601386 72.343998 
L 223.116859 96.441845 
L 223.632333 82.407838 
L 224.147806 107.787247 
L 224.663279 83.616205 
L 225.178753 75.860661 
L 225.694226 78.595784 
L 226.2097 103.334483 
L 226.725173 101.642114 
L 227.240647 110.507131 
L 227.75612 90.021216 
L 228.271594 90.280572 
L 228.787067 69.687146 
L 229.30254 67.332279 
L 229.818014 76.807864 
L 230.333487 74.326451 
L 230.848961 79.845125 
L 231.364434 87.70545 
L 231.879908 74.296925 
L 232.395381 98.921361 
L 232.910855 92.864533 
L 233.426328 95.536854 
L 233.941801 83.342298 
L 234.457275 101.618698 
L 234.972748 100.798394 
L 235.488222 109.135414 
L 236.003695 79.322713 
L 236.519169 99.917423 
L 237.034642 92.190761 
L 237.550115 106.070133 
L 238.065589 79.519937 
L 238.581062 74.557736 
L 239.096536 92.289388 
L 239.612009 94.121498 
L 240.127483 91.013233 
L 240.642956 81.931706 
L 241.15843 65.059373 
L 241.673903 69.979003 
L 242.189376 73.599272 
L 242.70485 61.167622 
L 243.220323 82.245658 
L 243.735797 70.958773 
L 244.25127 54.992629 
L 244.766744 80.155978 
L 245.282217 85.923888 
L 245.797691 83.440025 
L 246.313164 69.731345 
L 246.828637 76.670188 
L 247.344111 60.715395 
L 247.859584 71.004909 
L 248.375058 76.413552 
L 248.890531 64.798498 
L 249.406005 68.024548 
L 249.921478 39.188523 
L 250.436952 74.636443 
L 250.952425 64.043222 
L 251.467898 49.361079 
L 251.983372 71.828285 
L 252.498845 57.93234 
L 253.014319 58.608128 
L 253.529792 60.282391 
L 254.560739 84.814111 
L 255.076212 72.609498 
L 255.591686 91.930259 
L 256.107159 94.714197 
L 256.622633 57.622593 
L 257.138106 45.358276 
L 257.65358 62.476393 
L 258.169053 68.769158 
L 258.684527 66.522875 
L 258.684527 66.522875 
" clip-path="url(#p5064032b2c)" style="fill: none; stroke: #1f77b4; stroke-width: 1.5; stroke-linecap: square"/>
   </g>
   <g id="patch_3">
    <path d="M 36 133.396364 
L 36 34.56 
" style="fill: none; stroke: #000000; stroke-width: 0.8; stroke-linejoin: miter; stroke-linecap: square"/>
   </g>
   <g id="patch_4">
    <path d="M 259.2 133.396364 
L 259.2 34.56 
" style="fill: none; stroke: #000000; stroke-width: 0.8; stroke-linejoin: miter; stroke-linecap: square"/>
   </g>
   <g id="patch_5">
    <path d="M 36 133.396364 
L 259.2 133.396364 
" style="fill: none; stroke: #000000; stroke-width: 0.8; stroke-linejoin: miter; stroke-linecap: square"/>
   </g>
   <g id="patch_6">
    <path d="M 36 34.56 
L 259.2 34.56 
" style="fill: none; stroke: #000000; stroke-width: 0.8; stroke-linejoin: miter; stroke-linecap: square"/>
   </g>
  </g>
  <g id="axes_2">
   <g id="patch_7">
    <path d="M 36 252 
L 259.2 252 
L 259.2 153.163636 
L 36 153.163636 
L 36 252 
z
" style="fill: none"/>
   </g>
   <g id="matplotlib.axis_3">
    <g id="xtick_6">
     <g id="line2d_16">
      <g>
       <use xlink:href="#mea76537075" x="36" y="252" style="stroke: #000000; stroke-width: 0.8"/>
      </g>
     </g>
     <g id="line2d_17">
      <g>
       <use xlink:href="#m9db1122bb6" x="36" y="153.163636" style="stroke: #000000; stroke-width: 0.8"/>
      </g>
     </g>
     <g id="text_8">
      <text style="font: 14px 'sans-serif'; text-anchor: middle" x="36" y="266.137812" transform="rotate(-0, 36, 266.137812)">0</text>
     </g>
    </g>
    <g id="xtick_7">
     <g id="line2d_18">
      <g>
       <use xlink:href="#mea76537075" x="87.547344" y="252" style="stroke: #000000; stroke-width: 0.8"/>
      </g>
     </g>
     <g id="line2d_19">
      <g>
       <use xlink:href="#m9db1122bb6" x="87.547344" y="153.163636" style="stroke: #000000; stroke-width: 0.8"/>
      </g>
     </g>
     <g id="text_9">
      <text style="font: 14px 'sans-serif'; text-anchor: middle" x="87.547344" y="266.137812" transform="rotate(-0, 87.547344, 266.137812)">100</text>
     </g>
    </g>
    <g id="xtick_8">
     <g id="line2d_20">
      <g>
       <use xlink:href="#mea76537075" x="139.094688" y="252" style="stroke: #000000; stroke-width: 0.8"/>
      </g>
     </g>
     <g id="line2d_21">
      <g>
       <use xlink:href="#m9db1122bb6" x="139.094688" y="153.163636" style="stroke: #000000; stroke-width: 0.8"/>
      </g>
     </g>
     <g id="text_10">
      <text style="font: 14px 'sans-serif'; text-anchor: middle" x="139.094688" y="266.137812" transform="rotate(-0, 139.094688, 266.137812)">200</text>
     </g>
    </g>
    <g id="xtick_9">
     <g id="line2d_22">
      <g>
       <use xlink:href="#mea76537075" x="190.642032" y="252" style="stroke: #000000; stroke-width: 0.8"/>
      </g>
     </g>
     <g id="line2d_23">
      <g>
       <use xlink:href="#m9db1122bb6" x="190.642032" y="153.163636" style="stroke: #000000; stroke-width: 0.8"/>
      </g>
     </g>
     <g id="text_11">
      <text style="font: 14px 'sans-serif'; text-anchor: middle" x="190.642032" y="266.137812" transform="rotate(-0, 190.642032, 266.137812)">300</text>
     </g>
    </g>
    <g id="xtick_10">
     <g id="line2d_24">
      <g>
       <use xlink:href="#mea76537075" x="242.189376" y="252" style="stroke: #000000; stroke-width: 0.8"/>
      </g>
     </g>
     <g id="line2d_25">
      <g>
       <use xlink:href="#m9db1122bb6" x="242.189376" y="153.163636" style="stroke: #000000; stroke-width: 0.8"/>
      </g>
     </g>
     <g id="text_12">
      <text style="font: 14px 'sans-serif'; text-anchor: middle" x="242.189376" y="266.137812" transform="rotate(-0, 242.189376, 266.137812)">400</text>
     </g>
    </g>
    <g id="text_13">
     <text style="font: 16px 'sans-serif'; text-anchor: middle" x="147.6" y="285.206875" transform="rotate(-0, 147.6, 285.206875)">frame/1</text>
    </g>
   </g>
   <g id="matplotlib.axis_4">
    <g id="ytick_3">
     <g id="line2d_26">
      <g>
       <use xlink:href="#mde132b590a" x="36" y="252" style="stroke: #000000; stroke-width: 0.8"/>
      </g>
     </g>
     <g id="line2d_27">
      <g>
       <use xlink:href="#m761e8cf41a" x="259.2" y="252" style="stroke: #000000; stroke-width: 0.8"/>
      </g>
     </g>
     <g id="text_14">
      <text style="font: 14px 'sans-serif'; text-anchor: end" x="32.5" y="257.318906" transform="rotate(-0, 32.5, 257.318906)">0</text>
     </g>
    </g>
    <g id="ytick_4">
     <g id="line2d_28">
      <g>
       <use xlink:href="#mde132b590a" x="36" y="216.886063" style="stroke: #000000; stroke-width: 0.8"/>
      </g>
     </g>
     <g id="line2d_29">
      <g>
       <use xlink:href="#m761e8cf41a" x="259.2" y="216.886063" style="stroke: #000000; stroke-width: 0.8"/>
      </g>
     </g>
     <g id="text_15">
      <text style="font: 14px 'sans-serif'; text-anchor: end" x="32.5" y="222.20497" transform="rotate(-0, 32.5, 222.20497)">5000</text>
     </g>
    </g>
    <g id="ytick_5">
     <g id="line2d_30">
      <g>
       <use xlink:href="#mde132b590a" x="36" y="181.772127" style="stroke: #000000; stroke-width: 0.8"/>
      </g>
     </g>
     <g id="line2d_31">
      <g>
       <use xlink:href="#m761e8cf41a" x="259.2" y="181.772127" style="stroke: #000000; stroke-width: 0.8"/>
      </g>
     </g>
     <g id="text_16">
      <text style="font: 14px 'sans-serif'; text-anchor: end" x="32.5" y="187.091033" transform="rotate(-0, 32.5, 187.091033)">10000</text>
     </g>
    </g>
   </g>
   <g id="line2d_32">
    <path d="M 36 232.970015 
L 36.515473 228.187786 
L 37.54642 240.833525 
L 38.061894 228.57983 
L 38.577367 227.111184 
L 39.092841 230.089672 
L 39.608314 237.485667 
L 40.123788 239.115772 
L 40.639261 237.757685 
L 41.154734 242.809671 
L 41.670208 241.044004 
L 42.185681 231.792906 
L 42.701155 238.244373 
L 43.216628 238.392318 
L 43.732102 237.046724 
L 44.247575 240.654224 
L 44.763048 236.553989 
L 45.278522 239.80735 
L 45.793995 233.167445 
L 46.309469 234.852505 
L 46.824942 230.950334 
L 47.340416 239.426119 
L 47.855889 236.748664 
L 48.371363 233.360527 
L 48.886836 243.000967 
L 49.402309 229.465441 
L 49.917783 239.11888 
L 50.433256 237.379309 
L 50.94873 233.217583 
L 51.464203 238.292571 
L 51.979677 233.905158 
L 52.49515 240.712756 
L 53.010624 240.520221 
L 53.526097 235.794815 
L 54.04157 239.747147 
L 54.557044 231.168436 
L 55.072517 225.757229 
L 55.587991 171.355573 
L 56.103464 205.291885 
L 56.618938 182.676859 
L 57.134411 220.151841 
L 57.649885 158.149415 
L 58.165358 188.685847 
L 58.680831 166.437599 
L 59.196305 202.587557 
L 59.711778 220.744961 
L 60.227252 174.557091 
L 60.742725 168.790673 
L 61.258199 199.657622 
L 61.773672 176.794046 
L 62.289145 168.727562 
L 62.804619 186.545525 
L 63.320092 178.96182 
L 63.835566 160.918839 
L 64.351039 208.327867 
L 64.866513 164.052209 
L 65.381986 182.0122 
L 65.89746 183.805493 
L 66.412933 172.828769 
L 66.928406 157.537942 
L 67.44388 200.507143 
L 67.959353 187.855869 
L 68.474827 209.331397 
L 69.505774 219.74166 
L 70.021247 213.135715 
L 70.536721 212.544195 
L 71.567667 233.915127 
L 72.083141 237.647078 
L 72.598614 208.658731 
L 73.114088 227.721057 
L 73.629561 216.972205 
L 74.145035 235.276743 
L 74.660508 234.010892 
L 75.175982 241.377047 
L 75.691455 225.788035 
L 76.206928 224.362649 
L 76.722402 226.97421 
L 77.237875 217.575373 
L 77.753349 229.572026 
L 78.268822 213.531392 
L 78.784296 226.599965 
L 79.299769 236.816227 
L 79.815242 226.74477 
L 80.330716 242.015085 
L 80.846189 223.03741 
L 81.361663 236.839495 
L 82.39261 213.531198 
L 82.908083 225.12472 
L 83.423557 219.73616 
L 83.93903 221.685368 
L 84.969977 224.572969 
L 85.48545 227.598659 
L 86.000924 223.543853 
L 86.516397 212.374033 
L 87.031871 221.618526 
L 87.547344 213.609453 
L 88.062818 219.871678 
L 89.093764 214.489276 
L 89.609238 213.613497 
L 90.124711 204.036402 
L 91.155658 219.937843 
L 91.671132 223.638761 
L 92.186605 211.829157 
L 92.702079 228.744462 
L 93.217552 212.939705 
L 93.733025 239.34154 
L 94.248499 219.848883 
L 94.763972 218.506763 
L 95.279446 213.365392 
L 95.794919 224.922024 
L 96.310393 215.423319 
L 97.341339 213.96108 
L 97.856813 219.831693 
L 98.372286 228.10902 
L 98.88776 215.888093 
L 99.403233 217.99005 
L 99.918707 228.245663 
L 100.43418 235.393026 
L 101.465127 209.658163 
L 101.9806 205.012765 
L 102.496074 209.922223 
L 103.011547 217.042902 
L 103.527021 208.216602 
L 104.042494 214.23404 
L 104.557968 214.166676 
L 105.073441 207.385331 
L 105.588915 231.09279 
L 106.104388 224.449584 
L 106.619861 221.519077 
L 107.135335 205.458177 
L 107.650808 200.147657 
L 108.166282 215.234108 
L 108.681755 218.037721 
L 109.197229 214.751011 
L 109.712702 207.417135 
L 110.228176 208.873487 
L 110.743649 219.177712 
L 111.259122 209.094334 
L 111.774596 217.953612 
L 112.290069 215.719005 
L 112.805543 207.406484 
L 113.321016 221.955442 
L 113.83649 223.95578 
L 114.351963 190.817386 
L 115.38291 230.781993 
L 115.898383 218.558225 
L 116.413857 215.684402 
L 116.92933 209.299421 
L 117.444804 187.088973 
L 117.960277 205.164589 
L 118.991224 231.921297 
L 119.506697 204.552847 
L 120.022171 220.646584 
L 120.537644 225.876548 
L 121.053118 198.141299 
L 121.568591 221.657362 
L 122.084065 203.254931 
L 122.599538 201.066406 
L 123.115012 214.533164 
L 123.630485 225.009116 
L 124.145958 218.010116 
L 124.661432 222.368686 
L 125.176905 225.43749 
L 125.692379 213.584885 
L 126.207852 218.605701 
L 126.723326 221.539693 
L 127.238799 221.753915 
L 127.754273 209.53227 
L 128.269746 209.41803 
L 128.785219 221.14281 
L 129.300693 217.946179 
L 129.816166 211.465125 
L 130.33164 213.691053 
L 130.847113 216.466552 
L 131.362587 221.284161 
L 131.87806 206.829992 
L 132.393533 199.972963 
L 132.909007 234.387327 
L 133.42448 238.090216 
L 134.455427 199.144631 
L 134.970901 211.898788 
L 135.486374 201.752752 
L 136.001848 220.595375 
L 136.517321 208.62865 
L 137.032794 205.831047 
L 137.548268 213.976644 
L 138.063741 204.818048 
L 138.579215 210.381702 
L 139.094688 217.47693 
L 139.610162 221.003959 
L 140.125635 220.896875 
L 140.641109 222.345067 
L 141.156582 207.648092 
L 141.672055 224.176493 
L 142.187529 209.029474 
L 142.703002 205.047374 
L 143.218476 202.437061 
L 143.733949 215.217256 
L 144.249423 213.109674 
L 144.764896 207.192314 
L 145.28037 209.757948 
L 145.795843 222.771108 
L 146.311316 203.755443 
L 146.82679 217.215992 
L 147.342263 224.402212 
L 147.857737 203.806153 
L 148.37321 189.502938 
L 148.888684 209.973949 
L 149.404157 198.709119 
L 149.91963 213.144896 
L 150.435104 218.415919 
L 150.950577 209.501464 
L 151.466051 218.83712 
L 151.981524 221.736071 
L 152.496998 211.349573 
L 153.012471 219.418675 
L 153.527945 206.838782 
L 154.043418 207.603128 
L 154.558891 215.433336 
L 155.074365 210.517781 
L 155.589838 209.571517 
L 156.105312 197.368001 
L 156.620785 201.603969 
L 157.136259 214.350453 
L 157.651732 207.480973 
L 158.167206 208.009478 
L 158.682679 207.438136 
L 159.198152 202.695985 
L 159.713626 207.34281 
L 160.229099 203.246074 
L 160.744573 203.599208 
L 161.260046 203.704248 
L 161.77552 213.205329 
L 162.290993 203.747461 
L 162.806467 229.577516 
L 163.32194 196.275296 
L 163.837413 206.12732 
L 164.352887 195.647911 
L 164.86836 205.966147 
L 165.383834 201.015212 
L 165.899307 204.012039 
L 166.414781 213.886014 
L 166.930254 221.58299 
L 167.445727 199.781433 
L 167.961201 199.360277 
L 168.476674 198.318311 
L 168.992148 202.147076 
L 169.507621 203.621616 
L 170.538568 213.118844 
L 171.054042 196.841983 
L 171.569515 188.591147 
L 172.084988 206.3732 
L 172.600462 208.306897 
L 173.115935 207.32273 
L 173.631409 202.789634 
L 174.146882 216.175385 
L 174.662356 202.576766 
L 175.177829 185.64618 
L 175.693303 201.267894 
L 176.208776 220.543019 
L 176.724249 215.921344 
L 177.239723 189.911874 
L 178.27067 212.586009 
L 178.786143 199.833403 
L 179.301617 205.70586 
L 179.81709 200.288446 
L 180.332564 212.361681 
L 180.848037 194.53264 
L 181.36351 211.625658 
L 181.878984 211.571463 
L 182.394457 210.112777 
L 182.909931 205.830196 
L 183.425404 204.620371 
L 183.940878 199.91245 
L 184.456351 207.340658 
L 184.971824 204.374563 
L 185.487298 212.043283 
L 186.002771 207.845113 
L 186.518245 217.763516 
L 187.033718 210.990538 
L 187.549192 194.543026 
L 188.064665 206.999933 
L 188.580139 211.348255 
L 189.095612 199.107664 
L 189.611085 214.05593 
L 190.126559 210.971438 
L 190.642032 205.807432 
L 191.157506 203.703872 
L 191.672979 188.875495 
L 192.188453 199.677237 
L 192.703926 200.177114 
L 193.2194 206.718938 
L 193.734873 206.651394 
L 194.250346 202.18725 
L 194.76582 208.979614 
L 195.281293 190.555469 
L 195.796767 215.262735 
L 196.31224 210.784941 
L 196.827714 216.513697 
L 197.343187 210.729868 
L 197.858661 210.180815 
L 198.374134 193.259514 
L 198.889607 197.645091 
L 199.405081 205.314582 
L 199.920554 203.597462 
L 200.436028 208.753472 
L 201.466975 216.272378 
L 201.982448 200.712735 
L 202.497921 237.237608 
L 203.013395 243.166638 
L 203.528868 238.39815 
L 204.044342 227.601866 
L 204.559815 236.892956 
L 205.075289 232.427759 
L 205.590762 237.38727 
L 206.106236 237.05632 
L 206.621709 233.334758 
L 207.137182 232.568288 
L 207.652656 239.221882 
L 208.168129 224.881417 
L 208.683603 239.059497 
L 209.199076 229.614833 
L 209.71455 237.746675 
L 210.230023 220.818567 
L 210.745497 238.477766 
L 211.26097 239.96025 
L 211.776443 238.137995 
L 212.291917 235.400637 
L 213.322864 238.492988 
L 213.838337 232.256136 
L 214.353811 237.826991 
L 214.869284 240.667044 
L 215.384758 240.708776 
L 215.900231 243.713572 
L 216.415704 229.504001 
L 216.931178 235.118076 
L 217.446651 236.606493 
L 217.962125 231.231466 
L 218.477598 239.740062 
L 218.993072 238.046371 
L 219.508545 234.252472 
L 220.024018 238.079676 
L 220.539492 238.620569 
L 221.054965 241.450915 
L 221.570439 228.944898 
L 222.085912 234.147436 
L 222.601386 232.775083 
L 223.116859 233.026176 
L 223.632333 229.712215 
L 224.147806 228.810755 
L 224.663279 235.672388 
L 225.178753 235.530322 
L 225.694226 240.129257 
L 226.725173 229.202171 
L 227.75612 233.519918 
L 228.271594 239.416901 
L 228.787067 239.708688 
L 229.30254 226.002336 
L 229.818014 237.857932 
L 230.333487 230.912005 
L 230.848961 231.780269 
L 231.879908 236.488716 
L 232.395381 237.293858 
L 232.910855 233.650327 
L 233.426328 228.684291 
L 233.941801 236.697191 
L 234.457275 241.561903 
L 234.972748 224.885526 
L 235.488222 234.150469 
L 236.003695 238.407049 
L 236.519169 234.636499 
L 237.550115 237.393187 
L 238.065589 230.460543 
L 238.581062 238.832072 
L 239.096536 230.10442 
L 239.612009 243.263114 
L 240.127483 239.983742 
L 240.642956 223.90127 
L 241.15843 235.044471 
L 241.673903 234.867891 
L 242.189376 233.732801 
L 242.70485 235.013865 
L 243.220323 230.02869 
L 243.735797 223.562415 
L 244.25127 229.832021 
L 244.766744 231.447345 
L 245.282217 238.017706 
L 245.797691 236.972343 
L 246.313164 234.623479 
L 246.828637 224.946209 
L 247.344111 234.215084 
L 247.859584 235.225396 
L 248.375058 240.440474 
L 248.890531 235.421106 
L 249.406005 235.223505 
L 249.921478 241.451501 
L 250.436952 245.024046 
L 250.952425 241.313389 
L 251.467898 231.076077 
L 251.983372 243.341938 
L 252.498845 234.561052 
L 253.014319 237.682168 
L 253.529792 233.914808 
L 254.045266 235.78411 
L 254.560739 231.095471 
L 255.076212 235.324953 
L 255.591686 236.467011 
L 256.107159 240.391946 
L 256.622633 238.576806 
L 257.138106 238.375383 
L 257.65358 235.027559 
L 258.169053 237.650051 
L 258.684527 234.898718 
L 258.684527 234.898718 
" clip-path="url(#p997f88ac35)" style="fill: none; stroke: #1f77b4; stroke-width: 1.5; stroke-linecap: square"/>
   </g>
   <g id="patch_8">
    <path d="M 36 252 
L 36 153.163636 
" style="fill: none; stroke: #000000; stroke-width: 0.8; stroke-linejoin: miter; stroke-linecap: square"/>
   </g>
   <g id="patch_9">
    <path d="M 259.2 252 
L 259.2 153.163636 
" style="fill: none; stroke: #000000; stroke-width: 0.8; stroke-linejoin: miter; stroke-linecap: square"/>
   </g>
   <g id="patch_10">
    <path d="M 36 252 
L 259.2 252 
" style="fill: none; stroke: #000000; stroke-width: 0.8; stroke-linejoin: miter; stroke-linecap: square"/>
   </g>
   <g id="patch_11">
    <path d="M 36 153.163636 
L 259.2 153.163636 
" style="fill: none; stroke: #000000; stroke-width: 0.8; stroke-linejoin: miter; stroke-linecap: square"/>
   </g>
  </g>
 </g>
 <defs>
  <clipPath id="p5064032b2c">
   <rect x="36" y="34.56" width="223.2" height="98.836364"/>
  </clipPath>
  <clipPath id="p997f88ac35">
   <rect x="36" y="153.163636" width="223.2" height="98.836364"/>
  </clipPath>
 </defs>
</svg>
