<?xml version="1.0" encoding="utf-8" standalone="no"?>
<!DOCTYPE svg PUBLIC "-//W3C//DTD SVG 1.1//EN"
  "http://www.w3.org/Graphics/SVG/1.1/DTD/svg11.dtd">
<svg xmlns:xlink="http://www.w3.org/1999/xlink" width="288pt" height="288pt" viewBox="0 0 288 288" xmlns="http://www.w3.org/2000/svg" version="1.1">
 <metadata>
  <rdf:RDF xmlns:dc="http://purl.org/dc/elements/1.1/" xmlns:cc="http://creativecommons.org/ns#" xmlns:rdf="http://www.w3.org/1999/02/22-rdf-syntax-ns#">
   <cc:Work>
    <dc:type rdf:resource="http://purl.org/dc/dcmitype/StillImage"/>
    <dc:date>2022-04-29T13:55:17.024876</dc:date>
    <dc:format>image/svg+xml</dc:format>
    <dc:creator>
     <cc:Agent>
      <dc:title>Matplotlib v3.5.1, https://matplotlib.org/</dc:title>
     </cc:Agent>
    </dc:creator>
   </cc:Work>
  </rdf:RDF>
 </metadata>
 <defs>
  <style type="text/css">*{stroke-linejoin: round; stroke-linecap: butt}</style>
 </defs>
 <g id="figure_1">
  <g id="patch_1">
   <path d="M 0 288 
L 288 288 
L 288 0 
L 0 0 
L 0 288 
z
" style="fill: none"/>
  </g>
  <g id="axes_1">
   <g id="patch_2">
    <path d="M 36 133.396364 
L 259.2 133.396364 
L 259.2 34.56 
L 36 34.56 
L 36 133.396364 
z
" style="fill: none"/>
   </g>
   <g id="matplotlib.axis_1">
    <g id="xtick_1">
     <g id="line2d_1">
      <defs>
       <path id="maf2a4ac663" d="M 0 0 
L 0 -3.5 
" style="stroke: #000000; stroke-width: 0.8"/>
      </defs>
      <g>
       <use xlink:href="#maf2a4ac663" x="36" y="133.396364" style="stroke: #000000; stroke-width: 0.8"/>
      </g>
     </g>
     <g id="line2d_2">
      <defs>
       <path id="m1cc6a1aa83" d="M 0 0 
L 0 3.5 
" style="stroke: #000000; stroke-width: 0.8"/>
      </defs>
      <g>
       <use xlink:href="#m1cc6a1aa83" x="36" y="34.56" style="stroke: #000000; stroke-width: 0.8"/>
      </g>
     </g>
     <g id="text_1">
      <text style="font: 14px 'sans-serif'; text-anchor: middle" x="36" y="147.534176" transform="rotate(-0, 36, 147.534176)">0</text>
     </g>
    </g>
    <g id="xtick_2">
     <g id="line2d_3">
      <g>
       <use xlink:href="#maf2a4ac663" x="87.547344" y="133.396364" style="stroke: #000000; stroke-width: 0.8"/>
      </g>
     </g>
     <g id="line2d_4">
      <g>
       <use xlink:href="#m1cc6a1aa83" x="87.547344" y="34.56" style="stroke: #000000; stroke-width: 0.8"/>
      </g>
     </g>
     <g id="text_2">
      <text style="font: 14px 'sans-serif'; text-anchor: middle" x="87.547344" y="147.534176" transform="rotate(-0, 87.547344, 147.534176)">50</text>
     </g>
    </g>
    <g id="xtick_3">
     <g id="line2d_5">
      <g>
       <use xlink:href="#maf2a4ac663" x="139.094688" y="133.396364" style="stroke: #000000; stroke-width: 0.8"/>
      </g>
     </g>
     <g id="line2d_6">
      <g>
       <use xlink:href="#m1cc6a1aa83" x="139.094688" y="34.56" style="stroke: #000000; stroke-width: 0.8"/>
      </g>
     </g>
     <g id="text_3">
      <text style="font: 14px 'sans-serif'; text-anchor: middle" x="139.094688" y="147.534176" transform="rotate(-0, 139.094688, 147.534176)">100</text>
     </g>
    </g>
    <g id="xtick_4">
     <g id="line2d_7">
      <g>
       <use xlink:href="#maf2a4ac663" x="190.642032" y="133.396364" style="stroke: #000000; stroke-width: 0.8"/>
      </g>
     </g>
     <g id="line2d_8">
      <g>
       <use xlink:href="#m1cc6a1aa83" x="190.642032" y="34.56" style="stroke: #000000; stroke-width: 0.8"/>
      </g>
     </g>
     <g id="text_4">
      <text style="font: 14px 'sans-serif'; text-anchor: middle" x="190.642032" y="147.534176" transform="rotate(-0, 190.642032, 147.534176)">150</text>
     </g>
    </g>
    <g id="xtick_5">
     <g id="line2d_9">
      <g>
       <use xlink:href="#maf2a4ac663" x="242.189376" y="133.396364" style="stroke: #000000; stroke-width: 0.8"/>
      </g>
     </g>
     <g id="line2d_10">
      <g>
       <use xlink:href="#m1cc6a1aa83" x="242.189376" y="34.56" style="stroke: #000000; stroke-width: 0.8"/>
      </g>
     </g>
     <g id="text_5">
      <text style="font: 14px 'sans-serif'; text-anchor: middle" x="242.189376" y="147.534176" transform="rotate(-0, 242.189376, 147.534176)">200</text>
     </g>
    </g>
   </g>
   <g id="matplotlib.axis_2">
    <g id="ytick_1">
     <g id="line2d_11">
      <defs>
       <path id="m68519f4198" d="M 0 0 
L 3.5 0 
" style="stroke: #000000; stroke-width: 0.8"/>
      </defs>
      <g>
       <use xlink:href="#m68519f4198" x="36" y="133.396364" style="stroke: #000000; stroke-width: 0.8"/>
      </g>
     </g>
     <g id="line2d_12">
      <defs>
       <path id="m52c0a55ec3" d="M 0 0 
L -3.5 0 
" style="stroke: #000000; stroke-width: 0.8"/>
      </defs>
      <g>
       <use xlink:href="#m52c0a55ec3" x="259.2" y="133.396364" style="stroke: #000000; stroke-width: 0.8"/>
      </g>
     </g>
     <g id="text_6">
      <text style="font: 14px 'sans-serif'; text-anchor: end" x="32.5" y="138.71527" transform="rotate(-0, 32.5, 138.71527)">0</text>
     </g>
    </g>
    <g id="ytick_2">
     <g id="line2d_13">
      <g>
       <use xlink:href="#m68519f4198" x="36" y="68.484486" style="stroke: #000000; stroke-width: 0.8"/>
      </g>
     </g>
     <g id="line2d_14">
      <g>
       <use xlink:href="#m52c0a55ec3" x="259.2" y="68.484486" style="stroke: #000000; stroke-width: 0.8"/>
      </g>
     </g>
     <g id="text_7">
      <text style="font: 14px 'sans-serif'; text-anchor: end" x="32.5" y="73.803393" transform="rotate(-0, 32.5, 73.803393)">10000</text>
     </g>
    </g>
   </g>
   <g id="line2d_15">
    <path d="M 36 110.628342 
L 37.030947 114.926203 
L 38.061894 122.842411 
L 39.092841 122.824748 
L 40.123788 114.344739 
L 41.154734 116.758854 
L 42.185681 117.217182 
L 43.216628 113.055205 
L 44.247575 111.775805 
L 45.278522 117.681343 
L 46.309469 124.713972 
L 47.340416 122.313932 
L 48.371363 127.166193 
L 49.402309 122.635656 
L 50.433256 128.433958 
L 51.464203 123.649683 
L 52.49515 124.439938 
L 53.526097 117.598503 
L 54.557044 116.089441 
L 55.587991 121.050076 
L 56.618938 125.190147 
L 57.649885 113.441066 
L 58.680831 119.333078 
L 59.711778 108.250338 
L 60.742725 111.211869 
L 62.804619 90.733919 
L 63.835566 104.941283 
L 64.866513 110.033251 
L 65.89746 91.996716 
L 66.928406 98.759748 
L 67.959353 117.261753 
L 68.9903 91.570863 
L 70.021247 92.098988 
L 71.052194 119.475098 
L 73.114088 99.221994 
L 74.145035 125.793236 
L 75.175982 130.326631 
L 76.206928 107.535645 
L 77.237875 99.078932 
L 78.268822 106.310668 
L 79.299769 115.022555 
L 80.330716 122.305573 
L 81.361663 105.51991 
L 82.39261 117.87232 
L 83.423557 89.721902 
L 84.454503 109.777706 
L 85.48545 106.189859 
L 86.516397 93.837287 
L 87.547344 105.663376 
L 88.578291 83.197717 
L 89.609238 94.389668 
L 90.640185 80.677834 
L 91.671132 82.193548 
L 92.702079 80.218546 
L 93.733025 95.836776 
L 94.763972 92.612562 
L 95.794919 93.15389 
L 96.825866 80.138222 
L 97.856813 101.292067 
L 98.88776 99.976652 
L 99.918707 85.334963 
L 100.949654 109.51439 
L 101.9806 84.655232 
L 103.011547 93.373514 
L 104.042494 88.31483 
L 105.073441 89.698063 
L 106.104388 104.824803 
L 107.135335 95.669265 
L 108.166282 75.424588 
L 109.197229 82.698669 
L 110.228176 86.638133 
L 111.259122 97.384741 
L 112.290069 86.023866 
L 113.321016 92.299144 
L 114.351963 76.647758 
L 115.38291 106.817712 
L 116.413857 105.241835 
L 117.444804 79.259089 
L 118.475751 70.230716 
L 119.506697 93.965269 
L 120.537644 74.584765 
L 121.568591 78.870149 
L 122.599538 81.080317 
L 123.630485 71.231456 
L 124.661432 88.244236 
L 125.692379 94.870352 
L 126.723326 99.454355 
L 127.754273 72.080825 
L 128.785219 85.626191 
L 129.816166 76.747288 
L 130.847113 75.710288 
L 131.87806 83.38725 
L 132.909007 86.140532 
L 133.939954 75.668492 
L 134.970901 80.131989 
L 136.001848 82.933235 
L 137.032794 97.274484 
L 138.063741 78.375281 
L 139.094688 76.036999 
L 140.125635 94.453422 
L 141.156582 88.493586 
L 142.187529 81.259985 
L 143.218476 78.632093 
L 144.249423 78.252983 
L 145.28037 101.621235 
L 146.311316 81.664894 
L 147.342263 83.298187 
L 148.37321 88.064921 
L 149.404157 69.645187 
L 150.435104 64.087701 
L 151.466051 73.181853 
L 152.496998 89.646613 
L 153.527945 75.614918 
L 154.558891 98.835391 
L 155.589838 67.799174 
L 156.620785 67.08494 
L 157.651732 71.912715 
L 158.682679 87.1038 
L 159.713626 73.518802 
L 160.744573 80.775251 
L 161.77552 57.699571 
L 162.806467 84.001755 
L 163.837413 67.884159 
L 164.86836 68.962295 
L 165.899307 50.778988 
L 166.930254 73.24402 
L 167.961201 56.20168 
L 168.992148 52.123804 
L 170.023095 71.298872 
L 171.054042 61.843388 
L 172.084988 75.184527 
L 173.115935 85.410225 
L 174.146882 79.000477 
L 175.177829 69.371358 
L 176.208776 72.626538 
L 177.239723 71.855595 
L 178.27067 78.217737 
L 179.301617 80.424172 
L 180.332564 85.935414 
L 181.36351 75.501083 
L 182.394457 79.880507 
L 183.425404 85.162505 
L 184.456351 69.714674 
L 185.487298 79.282124 
L 186.518245 71.116767 
L 187.549192 66.689067 
L 188.580139 92.426554 
L 189.611085 79.47814 
L 190.642032 68.302082 
L 191.672979 70.243873 
L 192.703926 71.882859 
L 193.734873 69.30797 
L 194.76582 55.688841 
L 195.796767 65.564061 
L 196.827714 68.543856 
L 197.858661 77.145892 
L 198.889607 76.848108 
L 199.920554 83.533945 
L 200.951501 55.651139 
L 201.982448 61.259191 
L 203.013395 80.361801 
L 204.044342 66.237479 
L 205.075289 62.356327 
L 206.106236 82.4357 
L 207.137182 64.585488 
L 208.168129 68.625664 
L 209.199076 84.165475 
L 210.230023 83.729296 
L 211.26097 68.458696 
L 212.291917 81.692051 
L 213.322864 79.147737 
L 214.353811 75.904897 
L 215.384758 78.09276 
L 216.415704 93.267229 
L 217.446651 80.585289 
L 218.477598 77.105017 
L 219.508545 74.6708 
L 220.539492 76.438645 
L 221.570439 86.753146 
L 222.601386 76.992011 
L 223.632333 89.313334 
L 224.663279 71.634564 
L 225.694226 84.556814 
L 226.725173 101.948264 
L 227.75612 83.619601 
L 228.787067 58.709987 
L 229.818014 66.833307 
L 230.848961 76.281097 
L 231.879908 79.542946 
L 232.910855 88.281035 
L 233.941801 86.301042 
L 234.972748 100.673249 
L 236.003695 83.008605 
L 237.034642 93.955321 
L 238.065589 68.527251 
L 239.096536 87.135474 
L 240.127483 79.38563 
L 241.15843 57.569866 
L 242.189376 57.413624 
L 243.220323 68.024688 
L 244.25127 57.633305 
L 245.282217 77.324699 
L 246.313164 64.109524 
L 247.344111 55.660268 
L 248.375058 61.122903 
L 249.406005 41.556008 
L 250.436952 59.665479 
L 251.467898 49.599563 
L 252.498845 46.924057 
L 253.529792 55.766019 
L 254.560739 70.452885 
L 255.591686 87.269896 
L 256.622633 39.120316 
L 257.65358 55.387041 
L 258.684527 56.423081 
L 258.684527 56.423081 
" clip-path="url(#p80df694f86)" style="fill: none; stroke: #1f77b4; stroke-width: 1.5; stroke-linecap: square"/>
   </g>
   <g id="patch_3">
    <path d="M 36 133.396364 
L 36 34.56 
" style="fill: none; stroke: #000000; stroke-width: 0.8; stroke-linejoin: miter; stroke-linecap: square"/>
   </g>
   <g id="patch_4">
    <path d="M 259.2 133.396364 
L 259.2 34.56 
" style="fill: none; stroke: #000000; stroke-width: 0.8; stroke-linejoin: miter; stroke-linecap: square"/>
   </g>
   <g id="patch_5">
    <path d="M 36 133.396364 
L 259.2 133.396364 
" style="fill: none; stroke: #000000; stroke-width: 0.8; stroke-linejoin: miter; stroke-linecap: square"/>
   </g>
   <g id="patch_6">
    <path d="M 36 34.56 
L 259.2 34.56 
" style="fill: none; stroke: #000000; stroke-width: 0.8; stroke-linejoin: miter; stroke-linecap: square"/>
   </g>
  </g>
  <g id="axes_2">
   <g id="patch_7">
    <path d="M 36 252 
L 259.2 252 
L 259.2 153.163636 
L 36 153.163636 
L 36 252 
z
" style="fill: none"/>
   </g>
   <g id="matplotlib.axis_3">
    <g id="xtick_6">
     <g id="line2d_16">
      <g>
       <use xlink:href="#maf2a4ac663" x="36" y="252" style="stroke: #000000; stroke-width: 0.8"/>
      </g>
     </g>
     <g id="line2d_17">
      <g>
       <use xlink:href="#m1cc6a1aa83" x="36" y="153.163636" style="stroke: #000000; stroke-width: 0.8"/>
      </g>
     </g>
     <g id="text_8">
      <text style="font: 14px 'sans-serif'; text-anchor: middle" x="36" y="266.137812" transform="rotate(-0, 36, 266.137812)">0</text>
     </g>
    </g>
    <g id="xtick_7">
     <g id="line2d_18">
      <g>
       <use xlink:href="#maf2a4ac663" x="87.547344" y="252" style="stroke: #000000; stroke-width: 0.8"/>
      </g>
     </g>
     <g id="line2d_19">
      <g>
       <use xlink:href="#m1cc6a1aa83" x="87.547344" y="153.163636" style="stroke: #000000; stroke-width: 0.8"/>
      </g>
     </g>
     <g id="text_9">
      <text style="font: 14px 'sans-serif'; text-anchor: middle" x="87.547344" y="266.137812" transform="rotate(-0, 87.547344, 266.137812)">50</text>
     </g>
    </g>
    <g id="xtick_8">
     <g id="line2d_20">
      <g>
       <use xlink:href="#maf2a4ac663" x="139.094688" y="252" style="stroke: #000000; stroke-width: 0.8"/>
      </g>
     </g>
     <g id="line2d_21">
      <g>
       <use xlink:href="#m1cc6a1aa83" x="139.094688" y="153.163636" style="stroke: #000000; stroke-width: 0.8"/>
      </g>
     </g>
     <g id="text_10">
      <text style="font: 14px 'sans-serif'; text-anchor: middle" x="139.094688" y="266.137812" transform="rotate(-0, 139.094688, 266.137812)">100</text>
     </g>
    </g>
    <g id="xtick_9">
     <g id="line2d_22">
      <g>
       <use xlink:href="#maf2a4ac663" x="190.642032" y="252" style="stroke: #000000; stroke-width: 0.8"/>
      </g>
     </g>
     <g id="line2d_23">
      <g>
       <use xlink:href="#m1cc6a1aa83" x="190.642032" y="153.163636" style="stroke: #000000; stroke-width: 0.8"/>
      </g>
     </g>
     <g id="text_11">
      <text style="font: 14px 'sans-serif'; text-anchor: middle" x="190.642032" y="266.137812" transform="rotate(-0, 190.642032, 266.137812)">150</text>
     </g>
    </g>
    <g id="xtick_10">
     <g id="line2d_24">
      <g>
       <use xlink:href="#maf2a4ac663" x="242.189376" y="252" style="stroke: #000000; stroke-width: 0.8"/>
      </g>
     </g>
     <g id="line2d_25">
      <g>
       <use xlink:href="#m1cc6a1aa83" x="242.189376" y="153.163636" style="stroke: #000000; stroke-width: 0.8"/>
      </g>
     </g>
     <g id="text_12">
      <text style="font: 14px 'sans-serif'; text-anchor: middle" x="242.189376" y="266.137812" transform="rotate(-0, 242.189376, 266.137812)">200</text>
     </g>
    </g>
    <g id="text_13">
     <text style="font: 16px 'sans-serif'; text-anchor: middle" x="147.6" y="285.206875" transform="rotate(-0, 147.6, 285.206875)">frame/2</text>
    </g>
   </g>
   <g id="matplotlib.axis_4">
    <g id="ytick_3">
     <g id="line2d_26">
      <g>
       <use xlink:href="#m68519f4198" x="36" y="252" style="stroke: #000000; stroke-width: 0.8"/>
      </g>
     </g>
     <g id="line2d_27">
      <g>
       <use xlink:href="#m52c0a55ec3" x="259.2" y="252" style="stroke: #000000; stroke-width: 0.8"/>
      </g>
     </g>
     <g id="text_14">
      <text style="font: 14px 'sans-serif'; text-anchor: end" x="32.5" y="257.318906" transform="rotate(-0, 32.5, 257.318906)">0</text>
     </g>
    </g>
    <g id="ytick_4">
     <g id="line2d_28">
      <g>
       <use xlink:href="#m68519f4198" x="36" y="210.064875" style="stroke: #000000; stroke-width: 0.8"/>
      </g>
     </g>
     <g id="line2d_29">
      <g>
       <use xlink:href="#m52c0a55ec3" x="259.2" y="210.064875" style="stroke: #000000; stroke-width: 0.8"/>
      </g>
     </g>
     <g id="text_15">
      <text style="font: 14px 'sans-serif'; text-anchor: end" x="32.5" y="215.383782" transform="rotate(-0, 32.5, 215.383782)">5000</text>
     </g>
    </g>
    <g id="ytick_5">
     <g id="line2d_30">
      <g>
       <use xlink:href="#m68519f4198" x="36" y="168.129751" style="stroke: #000000; stroke-width: 0.8"/>
      </g>
     </g>
     <g id="line2d_31">
      <g>
       <use xlink:href="#m52c0a55ec3" x="259.2" y="168.129751" style="stroke: #000000; stroke-width: 0.8"/>
      </g>
     </g>
     <g id="text_16">
      <text style="font: 14px 'sans-serif'; text-anchor: end" x="32.5" y="173.448657" transform="rotate(-0, 32.5, 173.448657)">10000</text>
     </g>
    </g>
   </g>
   <g id="line2d_32">
    <path d="M 36 226.417665 
L 37.030947 234.598515 
L 38.061894 223.153286 
L 39.092841 230.249766 
L 40.123788 235.801945 
L 41.154734 239.970038 
L 42.185681 231.719863 
L 43.216628 234.945413 
L 44.247575 236.001838 
L 45.278522 233.473939 
L 46.309469 229.191354 
L 47.340416 235.384746 
L 48.371363 235.496237 
L 49.402309 230.852258 
L 50.433256 232.054024 
L 51.464203 233.00993 
L 52.49515 238.405142 
L 53.526097 235.00687 
L 54.557044 223.890533 
L 55.587991 175.954058 
L 56.618938 191.587646 
L 57.649885 158.152321 
L 58.680831 171.402558 
L 59.711778 187.093264 
L 60.742725 171.058097 
L 61.773672 157.3679 
L 62.804619 169.30197 
L 63.835566 171.534852 
L 64.866513 157.692023 
L 65.89746 164.003592 
L 66.928406 164.846035 
L 68.9903 210.740613 
L 70.021247 205.232775 
L 71.052194 224.005939 
L 72.083141 217.549105 
L 73.114088 216.586206 
L 74.145035 231.272228 
L 75.175982 230.004789 
L 76.206928 220.553292 
L 77.237875 218.051643 
L 78.268822 213.862158 
L 79.299769 227.852685 
L 80.330716 228.743301 
L 81.361663 226.692088 
L 82.39261 212.98113 
L 83.423557 214.632557 
L 84.454503 218.310872 
L 85.48545 220.437242 
L 86.516397 210.196502 
L 87.547344 209.891114 
L 88.578291 208.843644 
L 89.609238 200.43782 
L 90.640185 209.342817 
L 91.671132 211.077482 
L 92.702079 214.789387 
L 93.733025 225.242886 
L 94.763972 208.930346 
L 95.794919 213.989936 
L 96.825866 207.043351 
L 97.856813 218.525354 
L 98.88776 210.12818 
L 99.918707 227.899076 
L 100.949654 209.484717 
L 101.9806 198.816666 
L 103.011547 204.981738 
L 104.042494 206.857448 
L 105.073441 212.874962 
L 106.104388 217.347784 
L 107.135335 193.245955 
L 108.166282 209.766133 
L 109.197229 203.135797 
L 110.228176 206.648742 
L 111.259122 206.049669 
L 112.290069 203.707455 
L 113.321016 217.313485 
L 114.351963 191.881871 
L 115.38291 219.36104 
L 116.413857 204.817122 
L 117.444804 185.272921 
L 118.475751 219.518379 
L 119.506697 204.945867 
L 120.537644 204.240308 
L 121.568591 204.774408 
L 122.599538 199.213508 
L 123.630485 215.586593 
L 124.661432 218.445018 
L 125.692379 209.120491 
L 126.723326 215.750431 
L 127.754273 201.214328 
L 128.785219 213.239729 
L 129.816166 204.920039 
L 130.847113 212.440606 
L 131.87806 193.960791 
L 132.909007 233.177015 
L 133.939954 199.689548 
L 134.970901 198.050282 
L 136.001848 207.34907 
L 137.032794 201.726301 
L 138.063741 198.974764 
L 139.094688 212.876616 
L 140.125635 215.71958 
L 141.156582 208.901941 
L 142.187529 198.304246 
L 143.218476 200.440458 
L 144.249423 202.02146 
L 145.28037 209.322601 
L 146.311316 202.421207 
L 147.342263 206.74259 
L 148.37321 189.586181 
L 149.404157 196.976927 
L 150.435104 206.568836 
L 151.466051 214.12599 
L 152.496998 208.271171 
L 153.527945 198.522236 
L 154.558891 205.394721 
L 155.589838 194.042337 
L 156.620785 199.425401 
L 157.651732 199.14835 
L 158.682679 195.949928 
L 159.713626 196.22148 
L 160.744573 194.259655 
L 162.806467 205.33602 
L 163.837413 190.958589 
L 164.86836 194.067322 
L 165.899307 200.586 
L 166.930254 202.655871 
L 167.961201 188.512363 
L 168.992148 193.343202 
L 170.023095 202.76402 
L 171.054042 181.200241 
L 172.084988 198.664463 
L 173.115935 195.936936 
L 174.146882 201.096007 
L 175.177829 182.084556 
L 176.208776 211.672489 
L 177.239723 184.40119 
L 178.27067 197.314543 
L 179.301617 193.477923 
L 180.332564 194.015348 
L 181.36351 203.750228 
L 182.394457 199.418564 
L 183.425404 192.605227 
L 184.456351 196.894049 
L 186.518245 207.068436 
L 187.549192 190.819893 
L 188.580139 196.142083 
L 189.611085 204.843123 
L 190.642032 195.578026 
L 191.672979 183.063047 
L 192.703926 194.016382 
L 193.734873 195.176361 
L 194.76582 189.620931 
L 195.796767 205.452379 
L 196.827714 206.166479 
L 197.858661 191.952868 
L 198.889607 191.665854 
L 199.920554 197.273652 
L 200.951501 206.889786 
L 201.982448 212.559811 
L 203.013395 238.603277 
L 204.044342 228.410298 
L 205.075289 231.58715 
L 206.106236 231.931126 
L 207.137182 232.766565 
L 208.168129 228.079543 
L 209.199076 230.122081 
L 210.230023 225.306128 
L 211.26097 236.533301 
L 212.291917 233.084843 
L 213.322864 232.144926 
L 214.353811 236.76964 
L 215.384758 240.309609 
L 216.415704 228.486286 
L 217.446651 230.406583 
L 218.477598 236.34711 
L 219.508545 233.090196 
L 220.539492 237.711581 
L 221.570439 227.572832 
L 222.601386 229.190411 
L 223.632333 224.844331 
L 224.663279 232.415775 
L 225.694226 234.761443 
L 226.725173 226.120352 
L 227.75612 233.451263 
L 228.787067 229.136528 
L 229.818014 230.963095 
L 230.848961 229.334989 
L 231.879908 233.956287 
L 232.910855 227.120377 
L 233.941801 236.62935 
L 234.972748 225.150673 
L 236.003695 233.514993 
L 237.034642 233.647202 
L 238.065589 231.275202 
L 239.096536 233.708455 
L 240.127483 228.046163 
L 241.15843 231.645271 
L 242.189376 230.949199 
L 243.220323 221.899369 
L 244.25127 226.490256 
L 245.282217 234.677306 
L 246.313164 225.469356 
L 247.344111 231.363496 
L 248.375058 235.197724 
L 249.406005 235.683444 
L 250.436952 241.453164 
L 251.467898 234.335728 
L 252.498845 233.037095 
L 253.529792 231.517816 
L 254.560739 229.560132 
L 255.591686 235.793286 
L 256.622633 235.848958 
L 257.65358 233.296482 
L 258.684527 231.576645 
L 258.684527 231.576645 
" clip-path="url(#p1151864ded)" style="fill: none; stroke: #1f77b4; stroke-width: 1.5; stroke-linecap: square"/>
   </g>
   <g id="patch_8">
    <path d="M 36 252 
L 36 153.163636 
" style="fill: none; stroke: #000000; stroke-width: 0.8; stroke-linejoin: miter; stroke-linecap: square"/>
   </g>
   <g id="patch_9">
    <path d="M 259.2 252 
L 259.2 153.163636 
" style="fill: none; stroke: #000000; stroke-width: 0.8; stroke-linejoin: miter; stroke-linecap: square"/>
   </g>
   <g id="patch_10">
    <path d="M 36 252 
L 259.2 252 
" style="fill: none; stroke: #000000; stroke-width: 0.8; stroke-linejoin: miter; stroke-linecap: square"/>
   </g>
   <g id="patch_11">
    <path d="M 36 153.163636 
L 259.2 153.163636 
" style="fill: none; stroke: #000000; stroke-width: 0.8; stroke-linejoin: miter; stroke-linecap: square"/>
   </g>
  </g>
 </g>
 <defs>
  <clipPath id="p80df694f86">
   <rect x="36" y="34.56" width="223.2" height="98.836364"/>
  </clipPath>
  <clipPath id="p1151864ded">
   <rect x="36" y="153.163636" width="223.2" height="98.836364"/>
  </clipPath>
 </defs>
</svg>
